{
.appVersion = "1352";
DisplayStrings = (
"\012ABCDEFGHIJKLMNOPQRSTUVWXYZ\012abcdefghijklmnopqrstuvwxyz\0120102030804050609070\012-­/endash/emdash/guilsinglleft/guilsinglright «»'\"!?.:/ellipsis ·,;/quotesinglbase/quoteleft/quoteright/quotedblbase/quotedblleft/quotedblright///backslash \012\012\012",

glyphs = (
{
glyphname = .notdef;
lastChange = "2021-07-09 03:44:36 +0000";
layers = (
{
guideLines = (
{
position = "{249, 680}";
}
);
layerId = "861B5D7F-E490-44BC-908E-F1CBF79092B0";
paths = (
{
closed = 1;
nodes = (
"862 0 LINE SMOOTH",
"922 0 OFFCURVE",
"965 35 OFFCURVE",
"977 96 CURVE SMOOTH",
"1205 1274 LINE SMOOTH",
"1217 1335 OFFCURVE",
"1188 1370 OFFCURVE",
"1128 1370 CURVE SMOOTH",
"401 1370 LINE SMOOTH",
"341 1370 OFFCURVE",
"298 1335 OFFCURVE",
"286 1274 CURVE SMOOTH",
"58 96 LINE SMOOTH",
"46 35 OFFCURVE",
"75 0 OFFCURVE",
"135 0 CURVE SMOOTH"
);
},
{
closed = 1;
nodes = (
"633 608 LINE",
"694 664 LINE",
"984 1017 OFFCURVE",
"1008 1050 OFFCURVE",
"1068 1147 CURVE",
"1151 1127 LINE",
"1111 1343 LINE",
"642 768 LINE",
"581 712 LINE",
"292 359 OFFCURVE",
"267 326 OFFCURVE",
"208 229 CURVE",
"124 249 LINE",
"151 17 LINE"
);
},
{
closed = 1;
nodes = (
"988 247 LINE",
"886 227 LINE",
"865 324 OFFCURVE",
"853 352 OFFCURVE",
"685 736 CURVE SMOOTH",
"417 1346 LINE",
"284 1127 LINE",
"385 1147 LINE",
"407 1050 OFFCURVE",
"419 1022 OFFCURVE",
"587 638 CURVE SMOOTH",
"854 28 LINE"
);
},
{
closed = 1;
nodes = (
"223 304 OFFCURVE",
"239 368 OFFCURVE",
"300 680 CURVE SMOOTH",
"360 987 OFFCURVE",
"372 1069 OFFCURVE",
"388 1262 CURVE",
"471 1257 OFFCURVE",
"554 1250 OFFCURVE",
"744 1250 CURVE SMOOTH",
"934 1250 OFFCURVE",
"1025 1257 OFFCURVE",
"1109 1262 CURVE",
"1050 1067 OFFCURVE",
"1031 986 OFFCURVE",
"971 680 CURVE SMOOTH",
"911 369 OFFCURVE",
"902 306 OFFCURVE",
"885 108 CURVE",
"803 117 OFFCURVE",
"714 120 OFFCURVE",
"524 120 CURVE SMOOTH",
"334 120 OFFCURVE",
"250 117 OFFCURVE",
"164 108 CURVE"
);
}
);
width = 1192;
},
{
layerId = "1023D002-3304-4399-867A-B886C920D2C0";
paths = (
{
closed = 1;
nodes = (
"908 0 LINE SMOOTH",
"968 0 OFFCURVE",
"1011 35 OFFCURVE",
"1023 96 CURVE SMOOTH",
"1251 1274 LINE SMOOTH",
"1263 1335 OFFCURVE",
"1234 1370 OFFCURVE",
"1174 1370 CURVE SMOOTH",
"447 1370 LINE SMOOTH",
"387 1370 OFFCURVE",
"344 1335 OFFCURVE",
"332 1274 CURVE SMOOTH",
"104 96 LINE SMOOTH",
"92 35 OFFCURVE",
"121 0 OFFCURVE",
"181 0 CURVE SMOOTH"
);
},
{
closed = 1;
nodes = (
"679 608 LINE",
"740 664 LINE",
"1030 1017 OFFCURVE",
"1054 1050 OFFCURVE",
"1114 1147 CURVE",
"1197 1127 LINE",
"1157 1343 LINE",
"688 768 LINE",
"627 712 LINE",
"338 359 OFFCURVE",
"313 326 OFFCURVE",
"254 229 CURVE",
"170 249 LINE",
"197 17 LINE"
);
},
{
closed = 1;
nodes = (
"1034 247 LINE",
"932 227 LINE",
"911 324 OFFCURVE",
"899 352 OFFCURVE",
"731 736 CURVE SMOOTH",
"463 1346 LINE",
"330 1127 LINE",
"431 1147 LINE",
"453 1050 OFFCURVE",
"465 1022 OFFCURVE",
"633 638 CURVE SMOOTH",
"900 28 LINE"
);
},
{
closed = 1;
nodes = (
"269 304 OFFCURVE",
"285 368 OFFCURVE",
"346 680 CURVE SMOOTH",
"406 987 OFFCURVE",
"418 1069 OFFCURVE",
"434 1262 CURVE",
"517 1257 OFFCURVE",
"600 1250 OFFCURVE",
"790 1250 CURVE SMOOTH",
"980 1250 OFFCURVE",
"1071 1257 OFFCURVE",
"1155 1262 CURVE",
"1096 1067 OFFCURVE",
"1077 986 OFFCURVE",
"1017 680 CURVE SMOOTH",
"957 369 OFFCURVE",
"948 306 OFFCURVE",
"931 108 CURVE",
"849 117 OFFCURVE",
"760 120 OFFCURVE",
"570 120 CURVE SMOOTH",
"380 120 OFFCURVE",
"296 117 OFFCURVE",
"210 108 CURVE"
);
}
);
width = 1280;
}
);
leftKerningGroup = H;
leftMetricsKey = H;
rightKerningGroup = H;
rightMetricsKey = H;
},
{
color = 5;
glyphname = A;
lastChange = "2021-07-09 03:44:36 +0000";
layers = (
{
anchors = (
{
name = bottom;
position = "{543, 0}";
},
{
name = ogonek;
position = "{1169, 22}";
},
{
name = top;
position = "{828, 1464}";
}
);
guideLines = (
{
angle = 243.4008;
position = "{270, 696}";
},
{
angle = 95.5126;
position = "{1078, 691}";
}
);
layerId = "861B5D7F-E490-44BC-908E-F1CBF79092B0";
paths = (
{
closed = 1;
nodes = (
"1026 -18 OFFCURVE",
"1095 -4 OFFCURVE",
"1143 17 CURVE",
"1013 1364 LINE",
"956 1374 OFFCURVE",
"867 1378 OFFCURVE",
"808 1378 CURVE SMOOTH",
"746 1378 OFFCURVE",
"660 1374 OFFCURVE",
"605 1366 CURVE",
"-66 26 LINE",
"-57 8 LINE",
"-23 -6 OFFCURVE",
"41 -14 OFFCURVE",
"110 -14 CURVE SMOOTH",
"159 -14 OFFCURVE",
"209 -10 OFFCURVE",
"249 -2 CURVE",
"560 656 LINE SMOOTH",
"610 762 OFFCURVE",
"675 899 OFFCURVE",
"749 1069 CURVE",
"761 1069 LINE",
"766 898 OFFCURVE",
"773 781 OFFCURVE",
"779 651 CURVE SMOOTH",
"802 184 LINE SMOOTH",
"807 75 OFFCURVE",
"818 -18 OFFCURVE",
"963 -18 CURVE SMOOTH"
);
},
{
closed = 1;
nodes = (
"704 280 LINE SMOOTH",
"734 280 OFFCURVE",
"773 282 OFFCURVE",
"803 282 CURVE SMOOTH",
"991 282 LINE",
"961 542 LINE",
"789 542 LINE SMOOTH",
"759 542 OFFCURVE",
"721 543 OFFCURVE",
"691 543 CURVE SMOOTH",
"593 543 LINE SMOOTH",
"565 543 OFFCURVE",
"531 542 OFFCURVE",
"503 542 CURVE SMOOTH",
"349 542 LINE",
"191 282 LINE",
"379 282 LINE SMOOTH",
"409 282 OFFCURVE",
"446 280 OFFCURVE",
"476 280 CURVE SMOOTH"
);
}
);
width = 1263;
},
{
anchors = (
{
name = bottom;
position = "{461, 0}";
},
{
name = ogonek;
position = "{947, 8}";
},
{
name = top;
position = "{738, 1464}";
}
);
guideLines = (
{
angle = 96.1971;
position = "{953, 3}";
},
{
angle = 63.604;
position = "{-40, 8}";
}
);
layerId = "1023D002-3304-4399-867A-B886C920D2C0";
paths = (
{
closed = 1;
nodes = (
"903 -12 OFFCURVE",
"931 -6 OFFCURVE",
"953 3 CURVE",
"808 1366 LINE",
"796 1368 OFFCURVE",
"757 1372 OFFCURVE",
"720 1372 CURVE SMOOTH",
"693 1372 OFFCURVE",
"649 1370 OFFCURVE",
"634 1366 CURVE",
"-40 8 LINE",
"-37 2 LINE",
"-21 -3 OFFCURVE",
"9 -6 OFFCURVE",
"41 -6 CURVE SMOOTH",
"66 -6 OFFCURVE",
"87 -4 OFFCURVE",
"99 -2 CURVE",
"579 970 LINE SMOOTH",
"613 1040 OFFCURVE",
"646 1113 OFFCURVE",
"687 1212 CURVE",
"696 1212 LINE",
"702 1096 OFFCURVE",
"710 1010 OFFCURVE",
"723 878 CURVE SMOOTH",
"805 73 LINE SMOOTH",
"811 19 OFFCURVE",
"822 -12 OFFCURVE",
"879 -12 CURVE SMOOTH"
);
},
{
closed = 1;
nodes = (
"647 358 LINE SMOOTH",
"668 358 OFFCURVE",
"765 360 OFFCURVE",
"788 360 CURVE SMOOTH",
"836 360 LINE",
"823 484 LINE",
"779 484 LINE SMOOTH",
"757 484 OFFCURVE",
"678 486 OFFCURVE",
"657 486 CURVE SMOOTH",
"446 486 LINE SMOOTH",
"426 486 OFFCURVE",
"350 484 OFFCURVE",
"328 484 CURVE SMOOTH",
"284 484 LINE",
"219 360 LINE",
"268 360 LINE SMOOTH",
"290 360 OFFCURVE",
"385 358 OFFCURVE",
"406 358 CURVE SMOOTH"
);
}
);
width = 1102;
}
);
leftKerningGroup = A;
rightKerningGroup = A;
rightMetricsKey = "=|";
unicode = 0041;
},
{
color = 5;
glyphname = B;
lastChange = "2021-07-09 03:44:36 +0000";
layers = (
{
anchors = (
{
name = bottom;
position = "{457, 0}";
},
{
name = top;
position = "{724, 1464}";
}
);
layerId = "861B5D7F-E490-44BC-908E-F1CBF79092B0";
paths = (
{
closed = 1;
nodes = (
"889 -12 OFFCURVE",
"1095 175 OFFCURVE",
"1095 451 CURVE SMOOTH",
"1095 624 OFFCURVE",
"979 742 OFFCURVE",
"817 738 CURVE",
"811 711 LINE",
"998 720 OFFCURVE",
"1155 870 OFFCURVE",
"1155 1066 CURVE SMOOTH",
"1155 1240 OFFCURVE",
"1043 1378 OFFCURVE",
"744 1378 CURVE SMOOTH",
"599 1378 OFFCURVE",
"439 1375 OFFCURVE",
"320 1370 CURVE",
"303 1356 LINE",
"41 10 LINE",
"53 -4 LINE",
"155 -7 OFFCURVE",
"271 -12 OFFCURVE",
"538 -12 CURVE SMOOTH"
);
},
{
closed = 1;
nodes = (
"583 1143 LINE",
"622 1142 OFFCURVE",
"666 1142 OFFCURVE",
"700 1142 CURVE SMOOTH",
"794 1142 OFFCURVE",
"829 1087 OFFCURVE",
"829 1019 CURVE SMOOTH",
"829 919 OFFCURVE",
"768 834 OFFCURVE",
"645 834 CURVE SMOOTH",
"405 834 LINE",
"359 598 LINE",
"599 598 LINE SMOOTH",
"728 598 OFFCURVE",
"765 526 OFFCURVE",
"765 445 CURVE SMOOTH",
"765 313 OFFCURVE",
"681 222 OFFCURVE",
"542 222 CURVE SMOOTH",
"489 222 OFFCURVE",
"447 222 OFFCURVE",
"404 221 CURVE"
);
}
);
width = 1169;
},
{
anchors = (
{
name = bottom;
position = "{436, 0}";
},
{
name = top;
position = "{688, 1464}";
}
);
layerId = "1023D002-3304-4399-867A-B886C920D2C0";
paths = (
{
closed = 1;
nodes = (
"814 -6 OFFCURVE",
"995 188 OFFCURVE",
"995 443 CURVE SMOOTH",
"995 609 OFFCURVE",
"874 725 OFFCURVE",
"726 728 CURVE",
"723 706 LINE",
"910 720 OFFCURVE",
"1051 883 OFFCURVE",
"1051 1080 CURVE SMOOTH",
"1051 1245 OFFCURVE",
"948 1371 OFFCURVE",
"686 1371 CURVE SMOOTH",
"594 1371 OFFCURVE",
"491 1368 OFFCURVE",
"362 1366 CURVE",
"348 1354 LINE",
"87 12 LINE",
"96 0 LINE",
"209 -2 OFFCURVE",
"299 -6 OFFCURVE",
"471 -6 CURVE SMOOTH"
);
},
{
closed = 1;
nodes = (
"470 1251 LINE",
"525 1250 OFFCURVE",
"611 1250 OFFCURVE",
"662 1250 CURVE SMOOTH",
"852 1250 OFFCURVE",
"903 1167 OFFCURVE",
"903 1066 CURVE SMOOTH",
"903 918 OFFCURVE",
"803 780 OFFCURVE",
"593 780 CURVE SMOOTH",
"324 780 LINE",
"301 656 LINE",
"568 656 LINE SMOOTH",
"767 656 OFFCURVE",
"845 570 OFFCURVE",
"845 438 CURVE SMOOTH",
"845 255 OFFCURVE",
"718 116 OFFCURVE",
"481 116 CURVE SMOOTH",
"403 116 OFFCURVE",
"327 116 OFFCURVE",
"249 115 CURVE"
);
}
);
width = 1110;
}
);
leftKerningGroup = H;
leftMetricsKey = H;
rightKerningGroup = B;
unicode = 0042;
},
{
color = 5;
glyphname = C;
lastChange = "2021-07-09 03:44:36 +0000";
layers = (
{
anchors = (
{
name = bottom;
position = "{525, 0}";
},
{
name = top;
position = "{818, 1466}";
}
);
layerId = "861B5D7F-E490-44BC-908E-F1CBF79092B0";
paths = (
{
closed = 1;
nodes = (
"769 -30 OFFCURVE",
"965 66 OFFCURVE",
"1059 184 CURVE",
"1044 261 OFFCURVE",
"973 359 OFFCURVE",
"903 397 CURVE",
"815 303 OFFCURVE",
"703 253 OFFCURVE",
"614 253 CURVE SMOOTH",
"486 253 OFFCURVE",
"421 351 OFFCURVE",
"421 515 CURVE SMOOTH",
"421 732 OFFCURVE",
"534 1132 OFFCURVE",
"752 1132 CURVE SMOOTH",
"838 1132 OFFCURVE",
"883 1070 OFFCURVE",
"883 948 CURVE SMOOTH",
"883 897 OFFCURVE",
"875 853 OFFCURVE",
"869 814 CURVE",
"896 803 OFFCURVE",
"944 788 OFFCURVE",
"999 788 CURVE SMOOTH",
"1143 788 OFFCURVE",
"1202 892 OFFCURVE",
"1202 1030 CURVE SMOOTH",
"1202 1250 OFFCURVE",
"1040 1396 OFFCURVE",
"785 1396 CURVE SMOOTH",
"293 1396 OFFCURVE",
"80 877 OFFCURVE",
"80 498 CURVE SMOOTH",
"80 101 OFFCURVE",
"313 -30 OFFCURVE",
"560 -30 CURVE SMOOTH"
);
}
);
width = 1156;
},
{
anchors = (
{
name = bottom;
position = "{499, 0}";
},
{
name = top;
position = "{792, 1466}";
}
);
layerId = "1023D002-3304-4399-867A-B886C920D2C0";
paths = (
{
closed = 1;
nodes = (
"706 -24 OFFCURVE",
"873 56 OFFCURVE",
"968 157 CURVE",
"961 193 OFFCURVE",
"929 238 OFFCURVE",
"889 260 CURVE",
"794 168 OFFCURVE",
"662 105 OFFCURVE",
"540 105 CURVE SMOOTH",
"362 105 OFFCURVE",
"265 240 OFFCURVE",
"265 488 CURVE SMOOTH",
"265 823 OFFCURVE",
"441 1268 OFFCURVE",
"757 1268 CURVE SMOOTH",
"900 1268 OFFCURVE",
"983 1176 OFFCURVE",
"983 1019 CURVE SMOOTH",
"983 985 OFFCURVE",
"979 958 OFFCURVE",
"975 933 CURVE",
"993 926 OFFCURVE",
"1014 922 OFFCURVE",
"1036 922 CURVE SMOOTH",
"1101 922 OFFCURVE",
"1128 972 OFFCURVE",
"1128 1066 CURVE SMOOTH",
"1128 1236 OFFCURVE",
"1002 1390 OFFCURVE",
"768 1390 CURVE SMOOTH",
"341 1390 OFFCURVE",
"115 880 OFFCURVE",
"115 477 CURVE SMOOTH",
"115 152 OFFCURVE",
"263 -24 OFFCURVE",
"528 -24 CURVE SMOOTH"
);
}
);
width = 1112;
},
{
anchors = (
{
name = bottom;
position = "{539, 0}";
},
{
name = top;
position = "{796, 1466}";
}
);
associatedMasterId = "861B5D7F-E490-44BC-908E-F1CBF79092B0";
layerId = "DB11310C-0A64-4394-BDFB-3F81034670F7";
name = "Oct 8 20, 14:17";
paths = (
{
closed = 1;
nodes = (
"774 -30 OFFCURVE",
"979 74 OFFCURVE",
"1072 187 CURVE",
"1056 263 OFFCURVE",
"991 349 OFFCURVE",
"924 393 CURVE",
"853 327 OFFCURVE",
"742 259 OFFCURVE",
"633 259 CURVE SMOOTH",
"508 259 OFFCURVE",
"436 336 OFFCURVE",
"436 519 CURVE SMOOTH",
"436 740 OFFCURVE",
"532 1132 OFFCURVE",
"742 1132 CURVE SMOOTH",
"833 1132 OFFCURVE",
"875 1074 OFFCURVE",
"875 958 CURVE SMOOTH",
"875 907 OFFCURVE",
"867 855 OFFCURVE",
"861 812 CURVE",
"888 802 OFFCURVE",
"934 792 OFFCURVE",
"988 792 CURVE SMOOTH",
"1145 792 OFFCURVE",
"1206 883 OFFCURVE",
"1206 1021 CURVE SMOOTH",
"1206 1251 OFFCURVE",
"1039 1396 OFFCURVE",
"780 1396 CURVE SMOOTH",
"300 1396 OFFCURVE",
"87 899 OFFCURVE",
"87 511 CURVE SMOOTH",
"87 134 OFFCURVE",
"288 -30 OFFCURVE",
"561 -30 CURVE SMOOTH"
);
}
);
width = 1164;
}
);
leftKerningGroup = C;
leftMetricsKey = O;
rightKerningGroup = C;
unicode = 0043;
},
{
color = 5;
glyphname = D;
lastChange = "2021-07-09 03:44:36 +0000";
layers = (
{
anchors = (
{
name = bottom;
position = "{496, 0}";
},
{
name = top;
position = "{789, 1464}";
}
);
layerId = "861B5D7F-E490-44BC-908E-F1CBF79092B0";
paths = (
{
closed = 1;
nodes = (
"664 -12 OFFCURVE",
"795 11 OFFCURVE",
"931 106 CURVE SMOOTH",
"1127 244 OFFCURVE",
"1259 556 OFFCURVE",
"1259 888 CURVE SMOOTH",
"1259 1059 OFFCURVE",
"1206 1189 OFFCURVE",
"1118 1269 CURVE SMOOTH",
"1039 1340 OFFCURVE",
"935 1378 OFFCURVE",
"718 1378 CURVE SMOOTH",
"635 1378 OFFCURVE",
"443 1375 OFFCURVE",
"319 1370 CURVE",
"302 1356 LINE",
"41 10 LINE",
"53 -4 LINE",
"89 -5 OFFCURVE",
"362 -12 OFFCURVE",
"467 -12 CURVE SMOOTH"
);
},
{
closed = 1;
nodes = (
"584 1120 LINE",
"637 1118 OFFCURVE",
"683 1118 OFFCURVE",
"748 1118 CURVE SMOOTH",
"889 1118 OFFCURVE",
"920 1003 OFFCURVE",
"920 875 CURVE SMOOTH",
"920 584 OFFCURVE",
"803 248 OFFCURVE",
"572 248 CURVE SMOOTH",
"507 248 OFFCURVE",
"465 248 OFFCURVE",
"415 246 CURVE"
);
}
);
width = 1267;
},
{
anchors = (
{
name = bottom;
position = "{474, 0}";
},
{
name = top;
position = "{757, 1464}";
}
);
layerId = "1023D002-3304-4399-867A-B886C920D2C0";
paths = (
{
closed = 1;
nodes = (
"616 -8 OFFCURVE",
"752 32 OFFCURVE",
"879 150 CURVE SMOOTH",
"1038 297 OFFCURVE",
"1140 563 OFFCURVE",
"1140 876 CURVE SMOOTH",
"1140 1028 OFFCURVE",
"1107 1149 OFFCURVE",
"1031 1235 CURVE SMOOTH",
"955 1321 OFFCURVE",
"828 1371 OFFCURVE",
"628 1371 CURVE SMOOTH",
"522 1371 OFFCURVE",
"446 1370 OFFCURVE",
"362 1366 CURVE",
"348 1354 LINE",
"88 12 LINE",
"97 0 LINE",
"230 -4 OFFCURVE",
"338 -8 OFFCURVE",
"400 -8 CURVE SMOOTH"
);
},
{
closed = 1;
nodes = (
"471 1251 LINE",
"513 1250 OFFCURVE",
"567 1250 OFFCURVE",
"608 1250 CURVE SMOOTH",
"907 1250 OFFCURVE",
"990 1119 OFFCURVE",
"990 868 CURVE SMOOTH",
"990 527 OFFCURVE",
"845 114 OFFCURVE",
"461 114 CURVE SMOOTH",
"385 114 OFFCURVE",
"297 116 OFFCURVE",
"250 116 CURVE"
);
}
);
width = 1187;
}
);
leftKerningGroup = H;
leftMetricsKey = H;
rightKerningGroup = D;
unicode = 0044;
},
{
color = 5;
glyphname = E;
lastChange = "2021-07-09 03:44:36 +0000";
layers = (
{
anchors = (
{
name = bottom;
position = "{513, 0}";
},
{
name = ogonek;
position = "{821, 0}";
},
{
name = top;
position = "{739, 1464}";
}
);
layerId = "861B5D7F-E490-44BC-908E-F1CBF79092B0";
paths = (
{
closed = 1;
nodes = (
"362 -6 LINE",
"415 272 LINE SMOOTH",
"426 328 OFFCURVE",
"437 368 OFFCURVE",
"447 422 CURVE SMOOTH",
"547 940 LINE SMOOTH",
"557 994 OFFCURVE",
"562 1034 OFFCURVE",
"574 1090 CURVE SMOOTH",
"631 1366 LINE",
"315 1366 LINE",
"298 1352 LINE",
"81 230 LINE SMOOTH",
"76 206 OFFCURVE",
"68 159 OFFCURVE",
"68 135 CURVE SMOOTH",
"68 48 OFFCURVE",
"119 -6 OFFCURVE",
"229 -6 CURVE SMOOTH"
);
},
{
closed = 1;
nodes = (
"720 -6 LINE SMOOTH",
"889 -6 OFFCURVE",
"951 59 OFFCURVE",
"973 274 CURVE",
"565 274 LINE SMOOTH",
"466 274 OFFCURVE",
"390 268 OFFCURVE",
"300 264 CURVE",
"252 -6 LINE"
);
},
{
closed = 1;
nodes = (
"877 550 LINE",
"915 638 OFFCURVE",
"934 752 OFFCURVE",
"930 822 CURVE",
"660 822 LINE SMOOTH",
"610 822 OFFCURVE",
"472 820 OFFCURVE",
"407 818 CURVE",
"356 554 LINE",
"419 552 OFFCURVE",
"558 550 OFFCURVE",
"607 550 CURVE SMOOTH"
);
},
{
closed = 1;
nodes = (
"1087 1086 LINE",
"1125 1177 OFFCURVE",
"1145 1292 OFFCURVE",
"1140 1366 CURVE",
"517 1366 LINE",
"460 1090 LINE",
"524 1088 OFFCURVE",
"662 1086 OFFCURVE",
"712 1086 CURVE SMOOTH"
);
}
);
width = 1086;
},
{
anchors = (
{
name = bottom;
position = "{460, 0}";
},
{
name = ogonek;
position = "{731, 0}";
},
{
name = top;
position = "{725, 1464}";
}
);
layerId = "1023D002-3304-4399-867A-B886C920D2C0";
paths = (
{
closed = 1;
nodes = (
"222 0 LINE",
"247 123 LINE SMOOTH",
"259 182 OFFCURVE",
"264 207 OFFCURVE",
"272 248 CURVE SMOOTH",
"439 1109 LINE SMOOTH",
"448 1153 OFFCURVE",
"455 1202 OFFCURVE",
"464 1248 CURVE SMOOTH",
"487 1366 LINE",
"362 1366 LINE",
"348 1354 LINE",
"111 129 LINE SMOOTH",
"106 105 OFFCURVE",
"104 89 OFFCURVE",
"104 76 CURVE SMOOTH",
"104 23 OFFCURVE",
"137 0 OFFCURVE",
"187 0 CURVE SMOOTH"
);
},
{
closed = 1;
nodes = (
"725 0 LINE SMOOTH",
"812 0 OFFCURVE",
"847 15 OFFCURVE",
"858 126 CURVE",
"406 126 LINE SMOOTH",
"334 126 OFFCURVE",
"219 126 OFFCURVE",
"161 111 CURVE",
"187 0 LINE"
);
},
{
closed = 1;
nodes = (
"830 630 LINE",
"849 668 OFFCURVE",
"857 713 OFFCURVE",
"856 754 CURVE",
"476 754 LINE SMOOTH",
"437 754 OFFCURVE",
"377 752 OFFCURVE",
"325 752 CURVE",
"302 632 LINE",
"354 632 OFFCURVE",
"413 630 OFFCURVE",
"452 630 CURVE SMOOTH"
);
},
{
closed = 1;
nodes = (
"1038 1242 LINE",
"1058 1281 OFFCURVE",
"1065 1325 OFFCURVE",
"1065 1366 CURVE",
"444 1366 LINE",
"419 1244 LINE",
"471 1242 OFFCURVE",
"531 1242 OFFCURVE",
"570 1242 CURVE SMOOTH"
);
}
);
width = 1023;
}
);
leftKerningGroup = E;
rightKerningGroup = E;
unicode = 0045;
},
{
color = 5;
glyphname = F;
lastChange = "2021-07-09 03:44:36 +0000";
layers = (
{
anchors = (
{
name = top;
position = "{765, 1464}";
}
);
layerId = "861B5D7F-E490-44BC-908E-F1CBF79092B0";
paths = (
{
closed = 1;
nodes = (
"251 -12 OFFCURVE",
"310 -10 OFFCURVE",
"369 0 CURVE",
"551 936 LINE SMOOTH",
"575 1059 OFFCURVE",
"597 1177 OFFCURVE",
"613 1272 CURVE SMOOTH",
"629 1366 LINE",
"318 1366 LINE",
"302 1354 LINE",
"39 0 LINE",
"94 -10 OFFCURVE",
"161 -12 OFFCURVE",
"206 -12 CURVE SMOOTH"
);
},
{
closed = 1;
nodes = (
"865 531 LINE",
"903 619 OFFCURVE",
"922 732 OFFCURVE",
"918 803 CURVE",
"556 803 LINE SMOOTH",
"498 803 OFFCURVE",
"433 801 OFFCURVE",
"395 799 CURVE",
"343 535 LINE",
"381 533 OFFCURVE",
"445 531 OFFCURVE",
"502 531 CURVE SMOOTH"
);
},
{
closed = 1;
nodes = (
"924 1082 LINE SMOOTH",
"1082 1082 OFFCURVE",
"1128 1163 OFFCURVE",
"1145 1366 CURVE",
"493 1366 LINE",
"439 1084 LINE",
"529 1084 OFFCURVE",
"614 1082 OFFCURVE",
"712 1082 CURVE SMOOTH"
);
}
);
width = 1013;
},
{
anchors = (
{
name = top;
position = "{741, 1464}";
}
);
layerId = "1023D002-3304-4399-867A-B886C920D2C0";
paths = (
{
closed = 1;
nodes = (
"182 -6 OFFCURVE",
"208 -4 OFFCURVE",
"227 0 CURVE",
"413 958 LINE SMOOTH",
"432 1056 OFFCURVE",
"449 1156 OFFCURVE",
"468 1254 CURVE SMOOTH",
"490 1366 LINE",
"361 1366 LINE",
"348 1354 LINE",
"85 0 LINE",
"104 -4 OFFCURVE",
"132 -6 OFFCURVE",
"157 -6 CURVE SMOOTH"
);
},
{
closed = 1;
nodes = (
"825 630 LINE",
"844 669 OFFCURVE",
"851 715 OFFCURVE",
"849 754 CURVE",
"475 754 LINE SMOOTH",
"436 754 OFFCURVE",
"376 752 OFFCURVE",
"324 752 CURVE",
"300 632 LINE",
"352 632 OFFCURVE",
"412 630 OFFCURVE",
"451 630 CURVE SMOOTH"
);
},
{
closed = 1;
nodes = (
"961 1240 LINE SMOOTH",
"1038 1240 OFFCURVE",
"1059 1288 OFFCURVE",
"1062 1366 CURVE",
"443 1366 LINE",
"420 1248 LINE",
"489 1241 OFFCURVE",
"582 1240 OFFCURVE",
"666 1240 CURVE SMOOTH"
);
}
);
width = 938;
}
);
leftKerningGroup = H;
leftMetricsKey = H;
rightKerningGroup = F;
unicode = 0046;
},
{
color = 5;
glyphname = G;
lastChange = "2021-07-09 03:44:36 +0000";
layers = (
{
anchors = (
{
name = bottom;
position = "{532, -40}";
},
{
name = top;
position = "{835, 1464}";
}
);
layerId = "861B5D7F-E490-44BC-908E-F1CBF79092B0";
paths = (
{
closed = 1;
nodes = (
"777 -29 OFFCURVE",
"954 12 OFFCURVE",
"1066 59 CURVE",
"891 287 LINE",
"817 250 OFFCURVE",
"747 227 OFFCURVE",
"681 227 CURVE SMOOTH",
"502 227 OFFCURVE",
"423 319 OFFCURVE",
"423 522 CURVE SMOOTH",
"423 761 OFFCURVE",
"532 1128 OFFCURVE",
"817 1128 CURVE SMOOTH",
"922 1128 OFFCURVE",
"1015 1081 OFFCURVE",
"1084 1010 CURVE",
"1168 1049 OFFCURVE",
"1253 1144 OFFCURVE",
"1275 1231 CURVE",
"1178 1336 OFFCURVE",
"1010 1402 OFFCURVE",
"827 1402 CURVE SMOOTH",
"320 1402 OFFCURVE",
"83 927 OFFCURVE",
"83 506 CURVE SMOOTH",
"83 147 OFFCURVE",
"263 -29 OFFCURVE",
"628 -29 CURVE SMOOTH"
);
},
{
closed = 1;
nodes = (
"1066 59 LINE",
"1153 507 LINE SMOOTH",
"1162 553 OFFCURVE",
"1169 608 OFFCURVE",
"1169 634 CURVE SMOOTH",
"1169 743 OFFCURVE",
"1108 793 OFFCURVE",
"984 793 CURVE SMOOTH",
"693 793 LINE",
"660 741 OFFCURVE",
"638 674 OFFCURVE",
"638 621 CURVE SMOOTH",
"638 545 OFFCURVE",
"681 510 OFFCURVE",
"761 510 CURVE SMOOTH",
"918 510 LINE",
"877 590 LINE",
"845 494 OFFCURVE",
"837 451 OFFCURVE",
"826 393 CURVE SMOOTH",
"761 59 LINE"
);
}
);
width = 1248;
},
{
anchors = (
{
name = bottom;
position = "{501, 0}";
},
{
name = top;
position = "{794, 1464}";
}
);
layerId = "1023D002-3304-4399-867A-B886C920D2C0";
paths = (
{
closed = 1;
nodes = (
"721 -24 OFFCURVE",
"854 5 OFFCURVE",
"976 59 CURVE",
"923 176 LINE",
"848 133 OFFCURVE",
"728 103 OFFCURVE",
"620 103 CURVE SMOOTH",
"391 103 OFFCURVE",
"268 237 OFFCURVE",
"268 504 CURVE SMOOTH",
"268 847 OFFCURVE",
"461 1260 OFFCURVE",
"814 1260 CURVE SMOOTH",
"934 1260 OFFCURVE",
"1035 1212 OFFCURVE",
"1105 1143 CURVE",
"1149 1161 OFFCURVE",
"1189 1205 OFFCURVE",
"1196 1253 CURVE",
"1111 1342 OFFCURVE",
"973 1390 OFFCURVE",
"826 1390 CURVE SMOOTH",
"364 1390 OFFCURVE",
"118 918 OFFCURVE",
"118 491 CURVE SMOOTH",
"118 157 OFFCURVE",
"282 -24 OFFCURVE",
"596 -24 CURVE SMOOTH"
);
},
{
closed = 1;
nodes = (
"976 59 LINE",
"1072 546 LINE SMOOTH",
"1077 572 OFFCURVE",
"1082 594 OFFCURVE",
"1082 616 CURVE SMOOTH",
"1082 663 OFFCURVE",
"1055 690 OFFCURVE",
"994 690 CURVE SMOOTH",
"662 690 LINE",
"652 669 OFFCURVE",
"641 642 OFFCURVE",
"641 615 CURVE SMOOTH",
"641 582 OFFCURVE",
"660 560 OFFCURVE",
"700 560 CURVE SMOOTH",
"983 560 LINE",
"955 600 LINE",
"933 545 OFFCURVE",
"923 492 OFFCURVE",
"913 440 CURVE SMOOTH",
"838 59 LINE"
);
}
);
width = 1199;
},
{
anchors = (
{
name = bottom;
position = "{527, -40}";
},
{
name = top;
position = "{830, 1464}";
}
);
associatedMasterId = "861B5D7F-E490-44BC-908E-F1CBF79092B0";
layerId = "4F46A423-CACA-459F-A6FB-3AB1534F87FF";
name = "Dec 6 20, 10:57";
paths = (
{
closed = 1;
nodes = (
"742 -30 OFFCURVE",
"907 -5 OFFCURVE",
"1055 33 CURVE",
"884 254 LINE",
"818 234 OFFCURVE",
"730 224 OFFCURVE",
"667 224 CURVE SMOOTH",
"491 224 OFFCURVE",
"414 323 OFFCURVE",
"414 509 CURVE SMOOTH",
"414 804 OFFCURVE",
"541 1124 OFFCURVE",
"826 1124 CURVE SMOOTH",
"963 1124 OFFCURVE",
"1053 1076 OFFCURVE",
"1125 1028 CURVE",
"1208 1078 OFFCURVE",
"1273 1183 OFFCURVE",
"1282 1270 CURVE",
"1161 1353 OFFCURVE",
"1025 1400 OFFCURVE",
"835 1400 CURVE SMOOTH",
"340 1400 OFFCURVE",
"74 953 OFFCURVE",
"74 490 CURVE SMOOTH",
"74 151 OFFCURVE",
"244 -30 OFFCURVE",
"592 -30 CURVE SMOOTH"
);
},
{
closed = 1;
nodes = (
"1055 33 LINE",
"1147 501 LINE SMOOTH",
"1156 547 OFFCURVE",
"1162 599 OFFCURVE",
"1162 628 CURVE SMOOTH",
"1162 740 OFFCURVE",
"1103 793 OFFCURVE",
"979 793 CURVE SMOOTH",
"688 793 LINE",
"655 741 OFFCURVE",
"633 674 OFFCURVE",
"633 621 CURVE SMOOTH",
"633 545 OFFCURVE",
"676 510 OFFCURVE",
"756 510 CURVE SMOOTH",
"913 510 LINE",
"872 590 LINE",
"840 494 OFFCURVE",
"832 451 OFFCURVE",
"821 393 CURVE SMOOTH",
"750 32 LINE"
);
}
);
width = 1237;
},
{
anchors = (
{
name = bottom;
position = "{525, -40}";
},
{
name = top;
position = "{828, 1464}";
}
);
associatedMasterId = "861B5D7F-E490-44BC-908E-F1CBF79092B0";
layerId = "983B6AD8-7DB5-4070-9281-6A26610AC967";
name = "Dec 6 20, 17:06";
paths = (
{
closed = 1;
nodes = (
"767 -29 OFFCURVE",
"928 2 OFFCURVE",
"1055 40 CURVE",
"882 262 LINE",
"799 237 OFFCURVE",
"728 229 OFFCURVE",
"675 229 CURVE SMOOTH",
"495 229 OFFCURVE",
"416 322 OFFCURVE",
"416 527 CURVE SMOOTH",
"416 777 OFFCURVE",
"533 1122 OFFCURVE",
"837 1122 CURVE SMOOTH",
"947 1122 OFFCURVE",
"1049 1082 OFFCURVE",
"1122 1030 CURVE",
"1198 1079 OFFCURVE",
"1261 1189 OFFCURVE",
"1271 1277 CURVE",
"1154 1359 OFFCURVE",
"1001 1400 OFFCURVE",
"847 1400 CURVE SMOOTH",
"317 1400 OFFCURVE",
"76 922 OFFCURVE",
"76 505 CURVE SMOOTH",
"76 150 OFFCURVE",
"257 -29 OFFCURVE",
"617 -29 CURVE SMOOTH"
);
},
{
closed = 1;
nodes = (
"1055 40 LINE",
"1145 501 LINE SMOOTH",
"1154 547 OFFCURVE",
"1160 602 OFFCURVE",
"1160 628 CURVE SMOOTH",
"1160 740 OFFCURVE",
"1101 793 OFFCURVE",
"977 793 CURVE SMOOTH",
"686 793 LINE",
"653 741 OFFCURVE",
"631 674 OFFCURVE",
"631 621 CURVE SMOOTH",
"631 545 OFFCURVE",
"674 510 OFFCURVE",
"754 510 CURVE SMOOTH",
"911 510 LINE",
"870 590 LINE",
"838 494 OFFCURVE",
"830 451 OFFCURVE",
"819 393 CURVE SMOOTH",
"748 32 LINE"
);
}
);
width = 1237;
}
);
leftKerningGroup = C;
leftMetricsKey = O;
rightKerningGroup = G;
unicode = 0047;
},
{
color = 5;
glyphname = H;
lastChange = "2021-07-09 03:44:36 +0000";
layers = (
{
anchors = (
{
name = bottom;
position = "{635, 0}";
},
{
name = top;
position = "{919, 1466}";
}
);
layerId = "861B5D7F-E490-44BC-908E-F1CBF79092B0";
paths = (
{
closed = 1;
nodes = (
"763 564 LINE SMOOTH",
"793 564 OFFCURVE",
"831 566 OFFCURVE",
"861 566 CURVE SMOOTH",
"927 566 OFFCURVE",
"997 564 OFFCURVE",
"1063 564 CURVE",
"1117 844 LINE",
"1051 844 OFFCURVE",
"981 842 OFFCURVE",
"915 842 CURVE SMOOTH",
"885 842 OFFCURVE",
"847 844 OFFCURVE",
"817 844 CURVE SMOOTH",
"629 844 LINE SMOOTH",
"599 844 OFFCURVE",
"561 842 OFFCURVE",
"531 842 CURVE SMOOTH",
"465 842 OFFCURVE",
"395 844 OFFCURVE",
"329 844 CURVE",
"275 564 LINE",
"341 564 OFFCURVE",
"411 566 OFFCURVE",
"477 566 CURVE SMOOTH",
"507 566 OFFCURVE",
"545 564 OFFCURVE",
"575 564 CURVE SMOOTH"
);
},
{
closed = 1;
nodes = (
"450 418 LINE SMOOTH",
"461 474 OFFCURVE",
"466 512 OFFCURVE",
"477 566 CURVE SMOOTH",
"531 842 LINE SMOOTH",
"542 896 OFFCURVE",
"550 934 OFFCURVE",
"561 990 CURVE SMOOTH",
"634 1366 LINE",
"581 1376 OFFCURVE",
"515 1378 OFFCURVE",
"472 1378 CURVE SMOOTH",
"434 1378 OFFCURVE",
"359 1376 OFFCURVE",
"304 1366 CURVE",
"40 0 LINE",
"91 -10 OFFCURVE",
"163 -12 OFFCURVE",
"202 -12 CURVE SMOOTH",
"245 -12 OFFCURVE",
"313 -10 OFFCURVE",
"370 0 CURVE"
);
},
{
closed = 1;
nodes = (
"750 0 LINE",
"805 -10 OFFCURVE",
"871 -12 OFFCURVE",
"916 -12 CURVE SMOOTH",
"961 -12 OFFCURVE",
"1021 -10 OFFCURVE",
"1080 0 CURVE",
"1344 1366 LINE",
"1293 1376 OFFCURVE",
"1221 1378 OFFCURVE",
"1182 1378 CURVE SMOOTH",
"1140 1378 OFFCURVE",
"1071 1376 OFFCURVE",
"1014 1366 CURVE",
"941 990 LINE SMOOTH",
"930 934 OFFCURVE",
"926 896 OFFCURVE",
"915 842 CURVE SMOOTH",
"861 566 LINE SMOOTH",
"850 512 OFFCURVE",
"841 474 OFFCURVE",
"830 418 CURVE SMOOTH"
);
}
);
width = 1313;
},
{
anchors = (
{
name = bottom;
position = "{524, 0}";
},
{
name = top;
position = "{807, 1464}";
}
);
layerId = "1023D002-3304-4399-867A-B886C920D2C0";
paths = (
{
closed = 1;
nodes = (
"838 642 LINE",
"850 642 OFFCURVE",
"933 644 OFFCURVE",
"952 644 CURVE SMOOTH",
"971 644 OFFCURVE",
"999 642 OFFCURVE",
"1023 642 CURVE",
"1048 770 LINE",
"1024 770 OFFCURVE",
"994 768 OFFCURVE",
"975 768 CURVE SMOOTH",
"956 768 OFFCURVE",
"875 770 OFFCURVE",
"863 770 CURVE SMOOTH",
"484 770 LINE SMOOTH",
"472 770 OFFCURVE",
"388 768 OFFCURVE",
"370 768 CURVE SMOOTH",
"352 768 OFFCURVE",
"321 770 OFFCURVE",
"298 770 CURVE",
"273 642 LINE",
"296 642 OFFCURVE",
"329 644 OFFCURVE",
"347 644 CURVE SMOOTH",
"365 644 OFFCURVE",
"447 642 OFFCURVE",
"459 642 CURVE SMOOTH"
);
},
{
closed = 1;
nodes = (
"323 494 LINE SMOOTH",
"334 550 OFFCURVE",
"340 596 OFFCURVE",
"350 644 CURVE SMOOTH",
"375 768 LINE SMOOTH",
"386 822 OFFCURVE",
"394 860 OFFCURVE",
"405 916 CURVE SMOOTH",
"492 1366 LINE",
"473 1370 OFFCURVE",
"445 1372 OFFCURVE",
"421 1372 CURVE SMOOTH",
"395 1372 OFFCURVE",
"369 1370 OFFCURVE",
"350 1366 CURVE",
"85 0 LINE",
"104 -4 OFFCURVE",
"132 -6 OFFCURVE",
"157 -6 CURVE SMOOTH",
"182 -6 OFFCURVE",
"208 -4 OFFCURVE",
"227 0 CURVE"
);
},
{
closed = 1;
nodes = (
"822 0 LINE",
"841 -4 OFFCURVE",
"868 -6 OFFCURVE",
"894 -6 CURVE SMOOTH",
"919 -6 OFFCURVE",
"945 -4 OFFCURVE",
"964 0 CURVE",
"1229 1366 LINE",
"1210 1370 OFFCURVE",
"1182 1372 OFFCURVE",
"1158 1372 CURVE SMOOTH",
"1132 1372 OFFCURVE",
"1106 1370 OFFCURVE",
"1087 1366 CURVE",
"1000 916 LINE SMOOTH",
"989 860 OFFCURVE",
"984 822 OFFCURVE",
"973 768 CURVE SMOOTH",
"948 644 LINE SMOOTH",
"919 501 OFFCURVE",
"927 537 OFFCURVE",
"918 493 CURVE SMOOTH"
);
}
);
width = 1239;
}
);
leftKerningGroup = H;
rightKerningGroup = H;
rightMetricsKey = "=|";
unicode = 0048;
},
{
color = 5;
glyphname = I;
lastChange = "2021-07-09 03:44:36 +0000";
layers = (
{
anchors = (
{
name = bottom;
position = "{211, 0}";
},
{
name = ogonek;
position = "{376, 0}";
},
{
name = top;
position = "{496, 1466}";
}
);
layerId = "861B5D7F-E490-44BC-908E-F1CBF79092B0";
paths = (
{
closed = 1;
nodes = (
"46 0 LINE",
"97 -10 OFFCURVE",
"169 -12 OFFCURVE",
"208 -12 CURVE SMOOTH",
"250 -12 OFFCURVE",
"319 -10 OFFCURVE",
"376 0 CURVE",
"640 1366 LINE",
"587 1376 OFFCURVE",
"521 1378 OFFCURVE",
"478 1378 CURVE SMOOTH",
"440 1378 OFFCURVE",
"365 1376 OFFCURVE",
"310 1366 CURVE"
);
}
);
width = 615;
},
{
anchors = (
{
name = bottom;
position = "{158, 0}";
},
{
name = ogonek;
position = "{231, 0}";
},
{
name = top;
position = "{445, 1464}";
}
);
layerId = "1023D002-3304-4399-867A-B886C920D2C0";
paths = (
{
closed = 1;
nodes = (
"89 0 LINE",
"108 -4 OFFCURVE",
"136 -6 OFFCURVE",
"161 -6 CURVE SMOOTH",
"186 -6 OFFCURVE",
"212 -4 OFFCURVE",
"231 0 CURVE",
"496 1366 LINE",
"477 1370 OFFCURVE",
"448 1372 OFFCURVE",
"424 1372 CURVE SMOOTH",
"398 1372 OFFCURVE",
"373 1370 OFFCURVE",
"354 1366 CURVE"
);
}
);
width = 510;
}
);
leftKerningGroup = H;
rightKerningGroup = H;
rightMetricsKey = "=|";
unicode = 0049;
},
{
color = 5;
glyphname = J;
lastChange = "2021-07-09 03:44:36 +0000";
layers = (
{
anchors = (
{
name = top;
position = "{867, 1464}";
}
);
layerId = "861B5D7F-E490-44BC-908E-F1CBF79092B0";
paths = (
{
closed = 1;
nodes = (
"18 248 OFFCURVE",
"-34 140 OFFCURVE",
"-48 56 CURVE",
"32 4 OFFCURVE",
"140 -20 OFFCURVE",
"254 -20 CURVE SMOOTH",
"688 -20 OFFCURVE",
"769 331 OFFCURVE",
"808 534 CURVE SMOOTH",
"969 1366 LINE",
"918 1376 OFFCURVE",
"842 1378 OFFCURVE",
"803 1378 CURVE SMOOTH",
"759 1378 OFFCURVE",
"697 1376 OFFCURVE",
"639 1366 CURVE",
"477 527 LINE SMOOTH",
"456 417 OFFCURVE",
"419 257 OFFCURVE",
"244 257 CURVE SMOOTH",
"187 257 OFFCURVE",
"126 276 OFFCURVE",
"79 305 CURVE"
);
}
);
width = 923;
},
{
anchors = (
{
name = top;
position = "{770, 1464}";
}
);
layerId = "1023D002-3304-4399-867A-B886C920D2C0";
paths = (
{
closed = 1;
nodes = (
"-25 144 OFFCURVE",
"-52 104 OFFCURVE",
"-64 58 CURVE",
"-5 16 OFFCURVE",
"91 -20 OFFCURVE",
"202 -20 CURVE SMOOTH",
"541 -20 OFFCURVE",
"616 265 OFFCURVE",
"654 460 CURVE SMOOTH",
"830 1366 LINE",
"811 1370 OFFCURVE",
"784 1372 OFFCURVE",
"759 1372 CURVE SMOOTH",
"734 1372 OFFCURVE",
"707 1370 OFFCURVE",
"688 1366 CURVE",
"516 480 LINE SMOOTH",
"489 340 OFFCURVE",
"434 106 OFFCURVE",
"209 106 CURVE SMOOTH",
"125 106 OFFCURVE",
"54 138 OFFCURVE",
"9 170 CURVE"
);
}
);
width = 826;
},
{
anchors = (
{
name = top;
position = "{791, 1464}";
}
);
associatedMasterId = "1023D002-3304-4399-867A-B886C920D2C0";
layerId = "80D6747C-2F12-4A6E-8C11-7F902FDF4CFC";
name = "Dec 6 20, 21:36";
paths = (
{
closed = 1;
nodes = (
"-4 149 OFFCURVE",
"-31 109 OFFCURVE",
"-43 63 CURVE",
"14 19 OFFCURVE",
"122 -20 OFFCURVE",
"243 -20 CURVE SMOOTH",
"575 -20 OFFCURVE",
"639 274 OFFCURVE",
"675 460 CURVE SMOOTH",
"851 1366 LINE",
"832 1370 OFFCURVE",
"805 1372 OFFCURVE",
"780 1372 CURVE SMOOTH",
"755 1372 OFFCURVE",
"728 1370 OFFCURVE",
"709 1366 CURVE",
"537 480 LINE SMOOTH",
"510 340 OFFCURVE",
"461 106 OFFCURVE",
"243 106 CURVE SMOOTH",
"163 106 OFFCURVE",
"79 138 OFFCURVE",
"30 175 CURVE"
);
}
);
width = 849;
}
);
leftKerningGroup = J;
rightKerningGroup = U;
unicode = 004A;
},
{
color = 5;
glyphname = K;
lastChange = "2021-07-09 03:44:36 +0000";
layers = (
{
anchors = (
{
name = bottom;
position = "{550, 0}";
},
{
name = top;
position = "{826, 1464}";
}
);
guideLines = (
{
angle = 98.4758;
position = "{1001, 492}";
},
{
angle = 56.0515;
position = "{991, 880}";
}
);
layerId = "861B5D7F-E490-44BC-908E-F1CBF79092B0";
paths = (
{
closed = 1;
nodes = (
"977 -23 OFFCURVE",
"1073 14 OFFCURVE",
"1115 71 CURVE",
"1061 127 OFFCURVE",
"1047 186 OFFCURVE",
"1034 269 CURVE SMOOTH",
"999 492 LINE SMOOTH",
"970 677 OFFCURVE",
"882 752 OFFCURVE",
"705 750 CURVE SMOOTH",
"346 746 LINE",
"312 560 LINE",
"402 562 OFFCURVE",
"482 568 OFFCURVE",
"534 568 CURVE SMOOTH",
"624 568 OFFCURVE",
"663 531 OFFCURVE",
"681 410 CURVE SMOOTH",
"719 155 LINE SMOOTH",
"729 85 OFFCURVE",
"748 -23 OFFCURVE",
"890 -23 CURVE SMOOTH"
);
},
{
closed = 1;
nodes = (
"244 -12 OFFCURVE",
"312 -10 OFFCURVE",
"369 0 CURVE",
"634 1366 LINE",
"583 1376 OFFCURVE",
"511 1378 OFFCURVE",
"472 1378 CURVE SMOOTH",
"430 1378 OFFCURVE",
"361 1376 OFFCURVE",
"304 1366 CURVE",
"39 0 LINE",
"90 -10 OFFCURVE",
"162 -12 OFFCURVE",
"201 -12 CURVE SMOOTH"
);
},
{
closed = 1;
nodes = (
"702 704 LINE SMOOTH",
"881 706 OFFCURVE",
"947 803 OFFCURVE",
"997 880 CURVE SMOOTH",
"1301 1343 LINE",
"1287 1368 LINE",
"1225 1373 OFFCURVE",
"1145 1378 OFFCURVE",
"1083 1378 CURVE SMOOTH",
"971 1378 OFFCURVE",
"938 1338 OFFCURVE",
"891 1264 CURVE SMOOTH",
"671 916 LINE SMOOTH",
"632 854 OFFCURVE",
"615 849 OFFCURVE",
"562 846 CURVE SMOOTH",
"498 842 OFFCURVE",
"436 839 OFFCURVE",
"370 838 CURVE",
"342 700 LINE"
);
}
);
width = 1197;
},
{
anchors = (
{
name = bottom;
position = "{465, 0}";
},
{
name = top;
position = "{743, 1464}";
}
);
guideLines = (
{
angle = 54.1699;
position = "{947, 1073}";
},
{
angle = 54.1699;
position = "{936, 1298}";
}
);
layerId = "1023D002-3304-4399-867A-B886C920D2C0";
paths = (
{
closed = 1;
nodes = (
"897 -14 OFFCURVE",
"939 9 OFFCURVE",
"960 38 CURVE",
"924 71 OFFCURVE",
"909 107 OFFCURVE",
"896 186 CURVE SMOOTH",
"846 484 LINE SMOOTH",
"811 692 OFFCURVE",
"712 743 OFFCURVE",
"522 740 CURVE SMOOTH",
"290 736 LINE",
"270 635 LINE",
"334 636 OFFCURVE",
"416 639 OFFCURVE",
"476 640 CURVE SMOOTH",
"678 643 OFFCURVE",
"692 541 OFFCURVE",
"710 433 CURVE SMOOTH",
"765 102 LINE SMOOTH",
"772 57 OFFCURVE",
"782 -14 OFFCURVE",
"854 -14 CURVE SMOOTH"
);
},
{
closed = 1;
nodes = (
"182 -6 OFFCURVE",
"208 -4 OFFCURVE",
"227 0 CURVE",
"492 1366 LINE",
"473 1370 OFFCURVE",
"445 1372 OFFCURVE",
"421 1372 CURVE SMOOTH",
"395 1372 OFFCURVE",
"369 1370 OFFCURVE",
"350 1366 CURVE",
"85 0 LINE",
"104 -4 OFFCURVE",
"132 -6 OFFCURVE",
"157 -6 CURVE SMOOTH"
);
},
{
closed = 1;
nodes = (
"515 691 LINE SMOOTH",
"637 693 OFFCURVE",
"690 718 OFFCURVE",
"747 796 CURVE SMOOTH",
"1153 1350 LINE",
"1144 1366 LINE",
"1114 1368 OFFCURVE",
"1081 1370 OFFCURVE",
"1062 1370 CURVE SMOOTH",
"997 1370 OFFCURVE",
"978 1347 OFFCURVE",
"942 1298 CURVE SMOOTH",
"600 830 LINE SMOOTH",
"565 782 OFFCURVE",
"559 770 OFFCURVE",
"497 768 CURVE SMOOTH",
"422 765 OFFCURVE",
"361 764 OFFCURVE",
"300 762 CURVE",
"284 687 LINE"
);
}
);
width = 1083;
}
);
leftKerningGroup = H;
leftMetricsKey = H;
rightKerningGroup = K;
unicode = 004B;
},
{
color = 5;
glyphname = L;
lastChange = "2021-07-09 03:44:36 +0000";
layers = (
{
anchors = (
{
name = bottom;
position = "{422, 0}";
},
{
name = periodcentered;
position = "{1008, 786}";
},
{
name = top;
position = "{476, 1454}";
},
{
name = topright;
position = "{554, 898}";
}
);
layerId = "861B5D7F-E490-44BC-908E-F1CBF79092B0";
paths = (
{
closed = 1;
nodes = (
"365 -6 LINE",
"587 1144 LINE SMOOTH",
"592 1168 OFFCURVE",
"599 1215 OFFCURVE",
"599 1239 CURVE SMOOTH",
"599 1326 OFFCURVE",
"548 1380 OFFCURVE",
"439 1380 CURVE SMOOTH",
"318 1380 LINE",
"300 1366 LINE",
"80 230 LINE SMOOTH",
"75 206 OFFCURVE",
"67 159 OFFCURVE",
"67 135 CURVE SMOOTH",
"67 48 OFFCURVE",
"118 -6 OFFCURVE",
"228 -6 CURVE SMOOTH"
);
},
{
closed = 1;
nodes = (
"643 -6 LINE SMOOTH",
"812 -6 OFFCURVE",
"873 60 OFFCURVE",
"897 282 CURVE",
"603 282 LINE SMOOTH",
"511 282 OFFCURVE",
"395 276 OFFCURVE",
"303 264 CURVE",
"251 -6 LINE"
);
}
);
width = 975;
},
{
anchors = (
{
name = bottom;
position = "{426, 0}";
},
{
name = periodcentered;
position = "{965, 786}";
},
{
name = top;
position = "{432, 1464}";
},
{
name = topright;
position = "{486, 870}";
}
);
layerId = "1023D002-3304-4399-867A-B886C920D2C0";
paths = (
{
closed = 1;
nodes = (
"228 0 LINE",
"476 1279 LINE SMOOTH",
"479 1294 OFFCURVE",
"482 1310 OFFCURVE",
"482 1324 CURVE SMOOTH",
"482 1359 OFFCURVE",
"458 1372 OFFCURVE",
"418 1372 CURVE SMOOTH",
"363 1372 LINE",
"349 1360 LINE",
"110 129 LINE SMOOTH",
"105 103 OFFCURVE",
"103 88 OFFCURVE",
"103 76 CURVE SMOOTH",
"103 23 OFFCURVE",
"136 0 OFFCURVE",
"186 0 CURVE SMOOTH"
);
},
{
closed = 1;
nodes = (
"674 0 LINE SMOOTH",
"756 0 OFFCURVE",
"796 11 OFFCURVE",
"807 128 CURVE",
"420 128 LINE SMOOTH",
"348 128 OFFCURVE",
"233 128 OFFCURVE",
"173 113 CURVE",
"201 0 LINE"
);
}
);
width = 929;
}
);
leftKerningGroup = E;
leftMetricsKey = E;
rightKerningGroup = L;
unicode = 004C;
},
{
color = 5;
glyphname = M;
lastChange = "2021-07-09 03:44:36 +0000";
layers = (
{
anchors = (
{
name = bottom;
position = "{678, 0}";
},
{
name = top;
position = "{956, 1464}";
}
);
guideLines = (
{
angle = 248.6479;
position = "{1255, 998}";
},
{
angle = 81.577;
position = "{1118, 0}";
},
{
angle = 83.1026;
position = "{1426, 0}";
},
{
angle = 255.5297;
position = "{362, 1364}";
},
{
angle = -89.3681;
position = "{565, 998}";
},
{
angle = 269.8806;
position = "{802, 1363}";
},
{
angle = 249.7264;
position = "{1136, 1364}";
},
{
angle = 76.5247;
position = "{321, 0}";
}
);
layerId = "861B5D7F-E490-44BC-908E-F1CBF79092B0";
paths = (
{
closed = 1;
nodes = (
"222 -12 OFFCURVE",
"285 -8 OFFCURVE",
"321 0 CURVE",
"446 530 LINE SMOOTH",
"486 699 OFFCURVE",
"516 833 OFFCURVE",
"552 1008 CURVE",
"566 1008 LINE",
"574 182 LINE",
"613 173 OFFCURVE",
"676 168 OFFCURVE",
"751 168 CURVE SMOOTH",
"825 168 OFFCURVE",
"895 173 OFFCURVE",
"936 182 CURVE",
"1258 1008 LINE",
"1272 1008 LINE",
"1247 841 OFFCURVE",
"1223 699 OFFCURVE",
"1196 520 CURVE SMOOTH",
"1118 0 LINE",
"1159 -9 OFFCURVE",
"1218 -12 OFFCURVE",
"1266 -12 CURVE SMOOTH",
"1325 -12 OFFCURVE",
"1384 -8 OFFCURVE",
"1425 0 CURVE",
"1587 1364 LINE",
"1524 1375 OFFCURVE",
"1435 1380 OFFCURVE",
"1357 1380 CURVE SMOOTH",
"1287 1380 OFFCURVE",
"1203 1376 OFFCURVE",
"1136 1364 CURVE",
"954 874 LINE SMOOTH",
"911 757 OFFCURVE",
"857 609 OFFCURVE",
"810 474 CURVE",
"796 474 LINE",
"798 615 OFFCURVE",
"800 767 OFFCURVE",
"800 883 CURVE SMOOTH",
"802 1364 LINE",
"729 1375 OFFCURVE",
"643 1380 OFFCURVE",
"570 1380 CURVE SMOOTH",
"510 1380 OFFCURVE",
"423 1376 OFFCURVE",
"362 1364 CURVE",
"10 0 LINE",
"54 -10 OFFCURVE",
"119 -12 OFFCURVE",
"162 -12 CURVE SMOOTH"
);
}
);
width = 1625;
},
{
anchors = (
{
name = bottom;
position = "{634, 0}";
},
{
name = top;
position = "{917, 1464}";
}
);
guideLines = (
{
angle = 83.1953;
position = "{1217, 0}";
},
{
angle = 75.308;
position = "{190, 0}";
},
{
angle = 64.1095;
position = "{749, 214}";
},
{
angle = 75.0007;
position = "{52, 0}";
},
{
angle = -84.3524;
position = "{510, 1205}";
},
{
angle = 83.1953;
position = "{1081, 0}";
},
{
angle = 244.2238;
position = "{1181, 1366}";
},
{
angle = -84.5362;
position = "{612, 1366}";
}
);
layerId = "1023D002-3304-4399-867A-B886C920D2C0";
paths = (
{
closed = 1;
nodes = (
"149 -7 OFFCURVE",
"177 -4 OFFCURVE",
"190 0 CURVE",
"405 820 LINE SMOOTH",
"442 960 OFFCURVE",
"469 1070 OFFCURVE",
"500 1205 CURVE",
"510 1205 LINE",
"608 214 LINE",
"623 210 OFFCURVE",
"651 208 OFFCURVE",
"679 208 CURVE SMOOTH",
"707 208 OFFCURVE",
"733 210 OFFCURVE",
"749 214 CURVE",
"1230 1205 LINE",
"1240 1205 LINE",
"1213 1040 OFFCURVE",
"1200 932 OFFCURVE",
"1184 807 CURVE SMOOTH",
"1081 0 LINE",
"1094 -4 OFFCURVE",
"1120 -7 OFFCURVE",
"1144 -7 CURVE SMOOTH",
"1170 -7 OFFCURVE",
"1200 -5 OFFCURVE",
"1217 0 CURVE",
"1380 1366 LINE",
"1353 1370 OFFCURVE",
"1321 1372 OFFCURVE",
"1281 1372 CURVE SMOOTH",
"1239 1372 OFFCURVE",
"1203 1370 OFFCURVE",
"1179 1366 CURVE",
"842 664 LINE SMOOTH",
"799 574 OFFCURVE",
"753 475 OFFCURVE",
"712 378 CURVE",
"702 378 LINE",
"695 486 OFFCURVE",
"687 579 OFFCURVE",
"678 676 CURVE SMOOTH",
"612 1366 LINE",
"586 1370 OFFCURVE",
"557 1372 OFFCURVE",
"518 1372 CURVE SMOOTH",
"477 1372 OFFCURVE",
"442 1370 OFFCURVE",
"418 1366 CURVE",
"52 0 LINE",
"68 -4 OFFCURVE",
"100 -7 OFFCURVE",
"126 -7 CURVE SMOOTH"
);
}
);
width = 1455;
}
);
leftKerningGroup = M;
rightKerningGroup = M;
unicode = 004D;
},
{
color = 5;
glyphname = N;
lastChange = "2021-07-09 03:44:36 +0000";
layers = (
{
anchors = (
{
name = bottom;
position = "{569, 0}";
},
{
name = top;
position = "{846, 1464}";
}
);
layerId = "861B5D7F-E490-44BC-908E-F1CBF79092B0";
paths = (
{
closed = 1;
nodes = (
"961 -12 OFFCURVE",
"1040 -8 OFFCURVE",
"1094 1 CURVE",
"1359 1366 LINE",
"1348 1380 LINE",
"1228 1380 LINE SMOOTH",
"1086 1380 OFFCURVE",
"1046 1310 OFFCURVE",
"1025 1202 CURVE SMOOTH",
"980 970 LINE SMOOTH",
"948 807 OFFCURVE",
"910 600 OFFCURVE",
"886 357 CURVE",
"861 352 LINE",
"700 0 LINE",
"762 -9 OFFCURVE",
"840 -12 OFFCURVE",
"891 -12 CURVE SMOOTH"
);
},
{
closed = 1;
nodes = (
"228 -12 OFFCURVE",
"289 -10 OFFCURVE",
"343 0 CURVE",
"414 366 LINE SMOOTH",
"448 542 OFFCURVE",
"485 751 OFFCURVE",
"511 986 CURVE",
"533 992 LINE",
"694 1366 LINE",
"633 1375 OFFCURVE",
"556 1378 OFFCURVE",
"506 1378 CURVE SMOOTH",
"436 1378 OFFCURVE",
"357 1372 OFFCURVE",
"303 1360 CURVE",
"39 0 LINE",
"80 -9 OFFCURVE",
"141 -12 OFFCURVE",
"188 -12 CURVE SMOOTH"
);
},
{
closed = 1;
nodes = (
"1011 179 LINE",
"877 356 LINE",
"859 507 OFFCURVE",
"836 626 OFFCURVE",
"821 702 CURVE SMOOTH",
"694 1366 LINE",
"400 1160 LINE",
"520 988 LINE",
"540 826 OFFCURVE",
"557 750 OFFCURVE",
"579 634 CURVE SMOOTH",
"700 0 LINE"
);
}
);
width = 1327;
},
{
anchors = (
{
name = bottom;
position = "{514, 0}";
},
{
name = top;
position = "{809, 1464}";
}
);
layerId = "1023D002-3304-4399-867A-B886C920D2C0";
paths = (
{
closed = 1;
nodes = (
"911 -6 OFFCURVE",
"950 -4 OFFCURVE",
"972 0 CURVE",
"1237 1362 LINE",
"1228 1372 LINE",
"1174 1372 LINE SMOOTH",
"1113 1372 OFFCURVE",
"1099 1336 OFFCURVE",
"1088 1278 CURVE SMOOTH",
"960 619 LINE SMOOTH",
"933 481 OFFCURVE",
"898 302 OFFCURVE",
"879 162 CURVE",
"867 162 LINE",
"795 0 LINE",
"818 -4 OFFCURVE",
"851 -6 OFFCURVE",
"882 -6 CURVE SMOOTH"
);
},
{
closed = 1;
nodes = (
"175 -6 OFFCURVE",
"200 -4 OFFCURVE",
"217 0 CURVE",
"367 770 LINE SMOOTH",
"394 911 OFFCURVE",
"419 1052 OFFCURVE",
"444 1198 CURVE",
"456 1198 LINE",
"526 1366 LINE",
"505 1370 OFFCURVE",
"468 1372 OFFCURVE",
"441 1372 CURVE SMOOTH",
"415 1372 OFFCURVE",
"375 1370 OFFCURVE",
"350 1366 CURVE",
"85 0 LINE",
"101 -4 OFFCURVE",
"131 -6 OFFCURVE",
"153 -6 CURVE SMOOTH"
);
},
{
closed = 1;
nodes = (
"928 99 LINE",
"874 162 LINE",
"848 263 OFFCURVE",
"822 356 OFFCURVE",
"796 445 CURVE SMOOTH",
"526 1366 LINE",
"393 1280 LINE",
"449 1198 LINE",
"475 1098 OFFCURVE",
"499 1011 OFFCURVE",
"526 918 CURVE SMOOTH",
"795 0 LINE"
);
}
);
width = 1248;
}
);
leftKerningGroup = H;
leftMetricsKey = H;
rightKerningGroup = H;
rightMetricsKey = H;
unicode = 004E;
},
{
color = 5;
glyphname = O;
lastChange = "2021-07-09 03:44:36 +0000";
layers = (
{
anchors = (
{
name = bottom;
position = "{533, 0}";
},
{
name = ogonek;
position = "{724, 0}";
},
{
name = top;
position = "{816, 1464}";
},
{
name = topright;
position = "{1201, 1336}";
}
);
layerId = "861B5D7F-E490-44BC-908E-F1CBF79092B0";
paths = (
{
closed = 1;
nodes = (
"1048 -30 OFFCURVE",
"1251 485 OFFCURVE",
"1251 888 CURVE SMOOTH",
"1251 1207 OFFCURVE",
"1095 1396 OFFCURVE",
"790 1396 CURVE SMOOTH",
"280 1396 OFFCURVE",
"78 874 OFFCURVE",
"78 475 CURVE SMOOTH",
"78 156 OFFCURVE",
"236 -30 OFFCURVE",
"539 -30 CURVE SMOOTH"
);
},
{
closed = 1;
nodes = (
"451 227 OFFCURVE",
"420 355 OFFCURVE",
"420 470 CURVE SMOOTH",
"420 683 OFFCURVE",
"513 1140 OFFCURVE",
"743 1140 CURVE SMOOTH",
"877 1140 OFFCURVE",
"909 1015 OFFCURVE",
"909 897 CURVE SMOOTH",
"909 688 OFFCURVE",
"818 224 OFFCURVE",
"585 226 CURVE SMOOTH"
);
}
);
width = 1259;
},
{
anchors = (
{
name = bottom;
position = "{506, 0}";
},
{
name = ogonek;
position = "{673, 8}";
},
{
name = top;
position = "{793, 1464}";
},
{
name = topright;
position = "{1076, 1346}";
}
);
layerId = "1023D002-3304-4399-867A-B886C920D2C0";
paths = (
{
closed = 1;
nodes = (
"953 -24 OFFCURVE",
"1165 495 OFFCURVE",
"1165 890 CURVE SMOOTH",
"1165 1210 OFFCURVE",
"1019 1390 OFFCURVE",
"764 1390 CURVE SMOOTH",
"327 1390 OFFCURVE",
"116 868 OFFCURVE",
"116 475 CURVE SMOOTH",
"116 156 OFFCURVE",
"262 -24 OFFCURVE",
"517 -24 CURVE SMOOTH"
);
},
{
closed = 1;
nodes = (
"348 97 OFFCURVE",
"266 251 OFFCURVE",
"266 485 CURVE SMOOTH",
"266 809 OFFCURVE",
"424 1269 OFFCURVE",
"748 1269 CURVE SMOOTH",
"920 1269 OFFCURVE",
"1015 1134 OFFCURVE",
"1015 882 CURVE SMOOTH",
"1015 558 OFFCURVE",
"858 97 OFFCURVE",
"533 97 CURVE SMOOTH"
);
}
);
width = 1206;
},
{
anchors = (
{
name = bottom;
position = "{534, 0}";
},
{
name = ogonek;
position = "{725, 0}";
},
{
name = top;
position = "{817, 1464}";
},
{
name = topright;
position = "{1202, 1336}";
}
);
associatedMasterId = "861B5D7F-E490-44BC-908E-F1CBF79092B0";
layerId = "9EF8D433-532F-45CE-B435-469E9D8E26EA";
name = "Oct 31 20, 23:31";
paths = (
{
closed = 1;
nodes = (
"1050 -30 OFFCURVE",
"1252 495 OFFCURVE",
"1252 868 CURVE SMOOTH",
"1252 1195 OFFCURVE",
"1096 1396 OFFCURVE",
"785 1396 CURVE SMOOTH",
"280 1396 OFFCURVE",
"79 864 OFFCURVE",
"79 495 CURVE SMOOTH",
"79 168 OFFCURVE",
"237 -30 OFFCURVE",
"546 -30 CURVE SMOOTH"
);
},
{
closed = 1;
nodes = (
"445 230 OFFCURVE",
"419 365 OFFCURVE",
"421 482 CURVE SMOOTH",
"425 699 OFFCURVE",
"519 1142 OFFCURVE",
"747 1138 CURVE SMOOTH",
"885 1136 OFFCURVE",
"913 1001 OFFCURVE",
"910 880 CURVE SMOOTH",
"907 663 OFFCURVE",
"812 223 OFFCURVE",
"583 227 CURVE SMOOTH"
);
}
);
width = 1267;
}
);
leftKerningGroup = C;
rightKerningGroup = O;
rightMetricsKey = "=|";
unicode = 004F;
},
{
color = 5;
glyphname = P;
lastChange = "2021-07-09 03:44:36 +0000";
layers = (
{
anchors = (
{
name = top;
position = "{818, 1464}";
}
);
layerId = "861B5D7F-E490-44BC-908E-F1CBF79092B0";
paths = (
{
closed = 1;
nodes = (
"251 -12 OFFCURVE",
"310 -10 OFFCURVE",
"369 0 CURVE",
"588 1127 LINE",
"623 1125 OFFCURVE",
"643 1125 OFFCURVE",
"680 1125 CURVE SMOOTH",
"782 1125 OFFCURVE",
"824 1076 OFFCURVE",
"824 970 CURVE SMOOTH",
"824 824 OFFCURVE",
"759 660 OFFCURVE",
"617 660 CURVE SMOOTH",
"557 660 OFFCURVE",
"477 660 OFFCURVE",
"420 658 CURVE",
"373 410 LINE",
"590 410 LINE SMOOTH",
"977 410 OFFCURVE",
"1161 684 OFFCURVE",
"1161 989 CURVE SMOOTH",
"1161 1267 OFFCURVE",
"982 1377 OFFCURVE",
"747 1377 CURVE SMOOTH",
"577 1377 OFFCURVE",
"396 1372 OFFCURVE",
"318 1370 CURVE",
"302 1356 LINE",
"39 0 LINE",
"94 -10 OFFCURVE",
"161 -12 OFFCURVE",
"206 -12 CURVE SMOOTH"
);
}
);
width = 1112;
},
{
anchors = (
{
name = top;
position = "{721, 1464}";
}
);
layerId = "1023D002-3304-4399-867A-B886C920D2C0";
paths = (
{
closed = 1;
nodes = (
"182 -6 OFFCURVE",
"208 -4 OFFCURVE",
"227 0 CURVE",
"470 1252 LINE",
"533 1250 OFFCURVE",
"627 1250 OFFCURVE",
"687 1250 CURVE SMOOTH",
"854 1250 OFFCURVE",
"911 1160 OFFCURVE",
"911 1033 CURVE SMOOTH",
"911 824 OFFCURVE",
"785 640 OFFCURVE",
"558 640 CURVE SMOOTH",
"465 640 OFFCURVE",
"394 638 OFFCURVE",
"298 638 CURVE",
"275 518 LINE",
"543 518 LINE SMOOTH",
"871 518 OFFCURVE",
"1058 754 OFFCURVE",
"1058 1038 CURVE SMOOTH",
"1058 1266 OFFCURVE",
"912 1372 OFFCURVE",
"691 1372 CURVE SMOOTH",
"607 1372 OFFCURVE",
"405 1367 OFFCURVE",
"361 1366 CURVE",
"348 1354 LINE",
"85 0 LINE",
"104 -4 OFFCURVE",
"133 -6 OFFCURVE",
"157 -6 CURVE SMOOTH"
);
}
);
width = 1003;
}
);
leftKerningGroup = H;
leftMetricsKey = H;
rightKerningGroup = P;
unicode = 0050;
},
{
color = 5;
glyphname = Q;
lastChange = "2021-07-09 03:44:36 +0000";
layers = (
{
layerId = "861B5D7F-E490-44BC-908E-F1CBF79092B0";
paths = (
{
closed = 1;
nodes = (
"612 -30 OFFCURVE",
"678 -20 OFFCURVE",
"731 29 CURVE",
"1083 86 OFFCURVE",
"1251 542 OFFCURVE",
"1251 888 CURVE SMOOTH",
"1251 1202 OFFCURVE",
"1095 1396 OFFCURVE",
"790 1396 CURVE SMOOTH",
"280 1396 OFFCURVE",
"78 874 OFFCURVE",
"78 475 CURVE SMOOTH",
"78 161 OFFCURVE",
"236 -30 OFFCURVE",
"539 -30 CURVE SMOOTH"
);
},
{
closed = 1;
nodes = (
"449 227 OFFCURVE",
"420 355 OFFCURVE",
"420 470 CURVE SMOOTH",
"420 683 OFFCURVE",
"513 1139 OFFCURVE",
"743 1140 CURVE SMOOTH",
"878 1140 OFFCURVE",
"909 1015 OFFCURVE",
"909 897 CURVE SMOOTH",
"909 688 OFFCURVE",
"818 227 OFFCURVE",
"585 226 CURVE SMOOTH"
);
},
{
closed = 1;
nodes = (
"1019 -290 OFFCURVE",
"1109 -215 OFFCURVE",
"1128 -63 CURVE",
"1057 -59 OFFCURVE",
"1004 -49 OFFCURVE",
"937 -5 CURVE SMOOTH",
"889 26 OFFCURVE",
"846 66 OFFCURVE",
"768 83 CURVE",
"470 -14 LINE",
"570 -64 OFFCURVE",
"642 -149 OFFCURVE",
"705 -203 CURVE SMOOTH",
"766 -255 OFFCURVE",
"827 -290 OFFCURVE",
"905 -290 CURVE SMOOTH"
);
}
);
width = 1251;
},
{
layerId = "1023D002-3304-4399-867A-B886C920D2C0";
paths = (
{
closed = 1;
nodes = (
"560 -24 OFFCURVE",
"601 -14 OFFCURVE",
"641 0 CURVE",
"971 59 OFFCURVE",
"1167 515 OFFCURVE",
"1165 890 CURVE SMOOTH",
"1163 1210 OFFCURVE",
"1019 1390 OFFCURVE",
"764 1390 CURVE SMOOTH",
"327 1390 OFFCURVE",
"116 868 OFFCURVE",
"116 475 CURVE SMOOTH",
"116 156 OFFCURVE",
"262 -24 OFFCURVE",
"517 -24 CURVE SMOOTH"
);
},
{
closed = 1;
nodes = (
"348 97 OFFCURVE",
"266 251 OFFCURVE",
"266 485 CURVE SMOOTH",
"266 809 OFFCURVE",
"424 1269 OFFCURVE",
"748 1269 CURVE SMOOTH",
"920 1269 OFFCURVE",
"1015 1134 OFFCURVE",
"1015 882 CURVE SMOOTH",
"1015 558 OFFCURVE",
"858 97 OFFCURVE",
"533 97 CURVE SMOOTH"
);
},
{
closed = 1;
nodes = (
"925 -232 OFFCURVE",
"972 -191 OFFCURVE",
"987 -122 CURVE",
"944 -119 OFFCURVE",
"900 -107 OFFCURVE",
"840 -65 CURVE SMOOTH",
"767 -14 OFFCURVE",
"731 12 OFFCURVE",
"664 41 CURVE",
"504 -22 LINE",
"586 -38 OFFCURVE",
"658 -106 OFFCURVE",
"738 -168 CURVE SMOOTH",
"793 -211 OFFCURVE",
"826 -232 OFFCURVE",
"871 -232 CURVE SMOOTH"
);
}
);
width = 1206;
},
{
associatedMasterId = "861B5D7F-E490-44BC-908E-F1CBF79092B0";
layerId = "24B02D0D-55D1-4798-8533-41A7DF7D5DBB";
name = "Nov 1 20, 21:59";
paths = (
{
closed = 1;
nodes = (
"596 -30 OFFCURVE",
"665 -22 OFFCURVE",
"732 29 CURVE",
"1098 85 OFFCURVE",
"1257 568 OFFCURVE",
"1257 891 CURVE SMOOTH",
"1257 1187 OFFCURVE",
"1120 1396 OFFCURVE",
"798 1396 CURVE SMOOTH",
"278 1396 OFFCURVE",
"76 843 OFFCURVE",
"76 470 CURVE SMOOTH",
"76 151 OFFCURVE",
"243 -30 OFFCURVE",
"535 -30 CURVE SMOOTH"
);
},
{
closed = 1;
nodes = (
"1017 -294 OFFCURVE",
"1102 -198 OFFCURVE",
"1122 -63 CURVE",
"1058 -59 OFFCURVE",
"996 -42 OFFCURVE",
"934 2 CURVE SMOOTH",
"876 43 OFFCURVE",
"834 72 OFFCURVE",
"782 94 CURVE",
"464 -19 LINE",
"532 -36 OFFCURVE",
"628 -148 OFFCURVE",
"690 -205 CURVE SMOOTH",
"754 -264 OFFCURVE",
"815 -294 OFFCURVE",
"890 -294 CURVE SMOOTH"
);
},
{
closed = 1;
nodes = (
"452 226 OFFCURVE",
"422 351 OFFCURVE",
"422 472 CURVE SMOOTH",
"422 690 OFFCURVE",
"518 1140 OFFCURVE",
"755 1140 CURVE SMOOTH",
"880 1140 OFFCURVE",
"911 1014 OFFCURVE",
"911 891 CURVE SMOOTH",
"911 674 OFFCURVE",
"815 226 OFFCURVE",
"578 226 CURVE SMOOTH"
);
}
);
width = 1253;
},
{
associatedMasterId = "1023D002-3304-4399-867A-B886C920D2C0";
layerId = "96F91261-3F50-4B1C-9E52-F8BB855D788A";
name = "Nov 1 20, 22:12";
paths = (
{
closed = 1;
nodes = (
"560 -24 OFFCURVE",
"601 -14 OFFCURVE",
"640 0 CURVE",
"971 59 OFFCURVE",
"1167 515 OFFCURVE",
"1167 888 CURVE SMOOTH",
"1167 1215 OFFCURVE",
"1017 1390 OFFCURVE",
"767 1390 CURVE SMOOTH",
"345 1390 OFFCURVE",
"116 892 OFFCURVE",
"116 478 CURVE SMOOTH",
"116 151 OFFCURVE",
"266 -24 OFFCURVE",
"516 -24 CURVE SMOOTH"
);
},
{
closed = 1;
nodes = (
"925 -232 OFFCURVE",
"972 -191 OFFCURVE",
"987 -122 CURVE",
"944 -119 OFFCURVE",
"900 -107 OFFCURVE",
"840 -65 CURVE SMOOTH",
"767 -14 OFFCURVE",
"731 12 OFFCURVE",
"664 41 CURVE",
"504 -22 LINE",
"586 -38 OFFCURVE",
"658 -106 OFFCURVE",
"738 -168 CURVE SMOOTH",
"793 -211 OFFCURVE",
"826 -232 OFFCURVE",
"871 -232 CURVE SMOOTH"
);
},
{
closed = 1;
nodes = (
"349 97 OFFCURVE",
"267 244 OFFCURVE",
"267 476 CURVE SMOOTH",
"267 806 OFFCURVE",
"423 1269 OFFCURVE",
"750 1269 CURVE SMOOTH",
"934 1269 OFFCURVE",
"1016 1122 OFFCURVE",
"1016 890 CURVE SMOOTH",
"1016 561 OFFCURVE",
"860 97 OFFCURVE",
"533 97 CURVE SMOOTH"
);
}
);
width = 1198;
}
);
leftKerningGroup = C;
leftMetricsKey = O;
rightKerningGroup = O;
unicode = 0051;
},
{
color = 5;
glyphname = R;
lastChange = "2021-07-09 03:44:36 +0000";
layers = (
{
anchors = (
{
name = bottom;
position = "{525, 0}";
},
{
name = top;
position = "{760, 1464}";
}
);
layerId = "861B5D7F-E490-44BC-908E-F1CBF79092B0";
paths = (
{
closed = 1;
nodes = (
"1007 625 OFFCURVE",
"1178 779 OFFCURVE",
"1178 1019 CURVE SMOOTH",
"1178 1256 OFFCURVE",
"1011 1378 OFFCURVE",
"749 1378 CURVE SMOOTH",
"572 1378 OFFCURVE",
"437 1374 OFFCURVE",
"319 1370 CURVE",
"302 1356 LINE",
"39 0 LINE",
"90 -10 OFFCURVE",
"162 -12 OFFCURVE",
"201 -12 CURVE SMOOTH",
"243 -12 OFFCURVE",
"309 -10 OFFCURVE",
"365 0 CURVE",
"584 1128 LINE",
"629 1126 OFFCURVE",
"660 1126 OFFCURVE",
"699 1126 CURVE SMOOTH",
"802 1126 OFFCURVE",
"841 1074 OFFCURVE",
"841 993 CURVE SMOOTH",
"841 849 OFFCURVE",
"762 759 OFFCURVE",
"628 759 CURVE SMOOTH",
"562 759 OFFCURVE",
"477 759 OFFCURVE",
"364 759 CURVE",
"316 499 LINE",
"508 499 LINE SMOOTH",
"615 499 OFFCURVE",
"645 455 OFFCURVE",
"663 344 CURVE SMOOTH",
"694 151 LINE SMOOTH",
"711 47 OFFCURVE",
"743 -23 OFFCURVE",
"864 -23 CURVE SMOOTH",
"958 -23 OFFCURVE",
"1053 20 OFFCURVE",
"1088 71 CURVE",
"1048 113 OFFCURVE",
"1030 149 OFFCURVE",
"1010 259 CURVE SMOOTH",
"991 366 LINE SMOOTH",
"969 492 OFFCURVE",
"929 553 OFFCURVE",
"855 592 CURVE"
);
}
);
width = 1177;
},
{
anchors = (
{
name = bottom;
position = "{457, 0}";
},
{
name = top;
position = "{725, 1464}";
}
);
layerId = "1023D002-3304-4399-867A-B886C920D2C0";
paths = (
{
closed = 1;
nodes = (
"942 655 OFFCURVE",
"1069 838 OFFCURVE",
"1069 1050 CURVE SMOOTH",
"1069 1261 OFFCURVE",
"931 1372 OFFCURVE",
"680 1372 CURVE SMOOTH",
"592 1372 OFFCURVE",
"458 1369 OFFCURVE",
"362 1366 CURVE",
"348 1354 LINE",
"85 0 LINE",
"104 -4 OFFCURVE",
"133 -6 OFFCURVE",
"157 -6 CURVE SMOOTH",
"182 -6 OFFCURVE",
"208 -4 OFFCURVE",
"227 0 CURVE",
"470 1251 LINE",
"524 1250 OFFCURVE",
"594 1250 OFFCURVE",
"667 1250 CURVE SMOOTH",
"866 1250 OFFCURVE",
"922 1158 OFFCURVE",
"922 1043 CURVE SMOOTH",
"922 841 OFFCURVE",
"787 704 OFFCURVE",
"547 704 CURVE SMOOTH",
"469 704 OFFCURVE",
"380 705 OFFCURVE",
"305 704 CURVE",
"281 582 LINE",
"479 580 LINE SMOOTH",
"640 578 OFFCURVE",
"679 508 OFFCURVE",
"702 387 CURVE SMOOTH",
"753 114 LINE SMOOTH",
"764 55 OFFCURVE",
"774 -14 OFFCURVE",
"845 -14 CURVE SMOOTH",
"887 -14 OFFCURVE",
"929 9 OFFCURVE",
"950 38 CURVE",
"902 81 OFFCURVE",
"895 136 OFFCURVE",
"886 186 CURVE SMOOTH",
"842 421 LINE SMOOTH",
"823 525 OFFCURVE",
"783 580 OFFCURVE",
"718 616 CURVE"
);
}
);
width = 1088;
}
);
leftKerningGroup = H;
leftMetricsKey = H;
rightKerningGroup = R;
unicode = 0052;
},
{
color = 5;
glyphname = S;
lastChange = "2021-07-09 03:44:36 +0000";
layers = (
{
anchors = (
{
name = bottom;
position = "{439, 0}";
},
{
name = top;
position = "{737, 1464}";
}
);
layerId = "861B5D7F-E490-44BC-908E-F1CBF79092B0";
paths = (
{
closed = 1;
nodes = (
"102 20 OFFCURVE",
"274 -32 OFFCURVE",
"450 -32 CURVE SMOOTH",
"814 -32 OFFCURVE",
"1008 196 OFFCURVE",
"1008 443 CURVE SMOOTH",
"1008 686 OFFCURVE",
"806 784 OFFCURVE",
"704 833 CURVE SMOOTH",
"644 862 LINE SMOOTH",
"570 898 OFFCURVE",
"504 925 OFFCURVE",
"504 996 CURVE SMOOTH",
"504 1069 OFFCURVE",
"571 1131 OFFCURVE",
"687 1131 CURVE SMOOTH",
"783 1131 OFFCURVE",
"887 1090 OFFCURVE",
"969 1038 CURVE",
"1046 1085 OFFCURVE",
"1105 1190 OFFCURVE",
"1115 1284 CURVE",
"1022 1351 OFFCURVE",
"857 1398 OFFCURVE",
"701 1398 CURVE SMOOTH",
"366 1398 OFFCURVE",
"166 1178 OFFCURVE",
"166 937 CURVE SMOOTH",
"166 725 OFFCURVE",
"334 648 OFFCURVE",
"411 610 CURVE SMOOTH",
"506 563 LINE SMOOTH",
"565 534 OFFCURVE",
"664 494 OFFCURVE",
"664 391 CURVE SMOOTH",
"664 299 OFFCURVE",
"587 235 OFFCURVE",
"461 235 CURVE SMOOTH",
"338 235 OFFCURVE",
"228 286 OFFCURVE",
"144 364 CURVE",
"71 316 OFFCURVE",
"6 219 OFFCURVE",
"-14 128 CURVE"
);
}
);
width = 1082;
},
{
anchors = (
{
name = bottom;
position = "{416, 0}";
},
{
name = top;
position = "{708, 1464}";
}
);
guideLines = (
{
angle = 154.179;
position = "{576, 603}";
}
);
layerId = "1023D002-3304-4399-867A-B886C920D2C0";
paths = (
{
closed = 1;
nodes = (
"95 45 OFFCURVE",
"237 -25 OFFCURVE",
"421 -25 CURVE SMOOTH",
"718 -25 OFFCURVE",
"904 173 OFFCURVE",
"904 397 CURVE SMOOTH",
"904 603 OFFCURVE",
"749 684 OFFCURVE",
"641 736 CURVE SMOOTH",
"562 774 LINE SMOOTH",
"473 817 OFFCURVE",
"357 867 OFFCURVE",
"357 1004 CURVE SMOOTH",
"357 1146 OFFCURVE",
"485 1267 OFFCURVE",
"668 1267 CURVE SMOOTH",
"767 1267 OFFCURVE",
"871 1231 OFFCURVE",
"944 1170 CURVE",
"986 1195 OFFCURVE",
"1012 1239 OFFCURVE",
"1020 1281 CURVE",
"944 1346 OFFCURVE",
"815 1391 OFFCURVE",
"680 1391 CURVE SMOOTH",
"407 1391 OFFCURVE",
"211 1205 OFFCURVE",
"211 984 CURVE SMOOTH",
"211 789 OFFCURVE",
"360 708 OFFCURVE",
"483 648 CURVE SMOOTH",
"576 603 LINE SMOOTH",
"629 577 OFFCURVE",
"756 520 OFFCURVE",
"756 375 CURVE SMOOTH",
"756 224 OFFCURVE",
"618 102 OFFCURVE",
"430 102 CURVE SMOOTH",
"302 102 OFFCURVE",
"186 153 OFFCURVE",
"94 243 CURVE",
"56 224 OFFCURVE",
"19 183 OFFCURVE",
"6 140 CURVE"
);
}
);
width = 1011;
},
{
anchors = (
{
name = bottom;
position = "{485, 0}";
},
{
name = top;
position = "{758, 1464}";
}
);
associatedMasterId = "861B5D7F-E490-44BC-908E-F1CBF79092B0";
layerId = "FC07DA6D-E9FC-4A48-8EA9-F5824E026727";
name = "Oct 12 20, 10:14";
paths = (
{
closed = 1;
nodes = (
"151 22 OFFCURVE",
"323 -30 OFFCURVE",
"468 -30 CURVE SMOOTH",
"794 -30 OFFCURVE",
"1034 187 OFFCURVE",
"1034 481 CURVE SMOOTH",
"1034 617 OFFCURVE",
"966 731 OFFCURVE",
"825 801 CURVE SMOOTH",
"620 903 LINE SMOOTH",
"564 931 OFFCURVE",
"548 959 OFFCURVE",
"548 994 CURVE SMOOTH",
"548 1064 OFFCURVE",
"597 1128 OFFCURVE",
"688 1128 CURVE SMOOTH",
"785 1128 OFFCURVE",
"919 1078 OFFCURVE",
"1002 1030 CURVE",
"1074 1091 OFFCURVE",
"1129 1186 OFFCURVE",
"1152 1280 CURVE",
"1068 1334 OFFCURVE",
"911 1396 OFFCURVE",
"736 1396 CURVE SMOOTH",
"449 1396 OFFCURVE",
"206 1168 OFFCURVE",
"206 897 CURVE SMOOTH",
"206 751 OFFCURVE",
"290 661 OFFCURVE",
"408 602 CURVE SMOOTH",
"608 502 LINE SMOOTH",
"672 470 OFFCURVE",
"684 431 OFFCURVE",
"684 401 CURVE SMOOTH",
"684 305 OFFCURVE",
"623 238 OFFCURVE",
"538 238 CURVE SMOOTH",
"409 238 OFFCURVE",
"283 302 OFFCURVE",
"195 368 CURVE",
"125 313 OFFCURVE",
"55 210 OFFCURVE",
"30 118 CURVE"
);
}
);
width = 1114;
}
);
leftKerningGroup = S;
rightKerningGroup = S;
unicode = 0053;
},
{
color = 5;
glyphname = T;
lastChange = "2021-07-09 03:44:36 +0000";
layers = (
{
anchors = (
{
name = bottom;
position = "{400, 0}";
},
{
name = top;
position = "{684, 1464}";
}
);
layerId = "861B5D7F-E490-44BC-908E-F1CBF79092B0";
paths = (
{
closed = 1;
nodes = (
"439 -12 OFFCURVE",
"508 -10 OFFCURVE",
"565 0 CURVE",
"748 942 LINE SMOOTH",
"758 996 OFFCURVE",
"763 1034 OFFCURVE",
"774 1090 CURVE SMOOTH",
"800 1228 LINE",
"474 1228 LINE",
"448 1090 LINE SMOOTH",
"437 1034 OFFCURVE",
"428 996 OFFCURVE",
"418 942 CURVE SMOOTH",
"235 0 LINE",
"286 -10 OFFCURVE",
"358 -12 OFFCURVE",
"397 -12 CURVE SMOOTH"
);
},
{
closed = 1;
nodes = (
"317 1088 LINE SMOOTH",
"347 1088 OFFCURVE",
"416 1090 OFFCURVE",
"446 1090 CURVE SMOOTH",
"776 1090 LINE SMOOTH",
"806 1090 OFFCURVE",
"873 1088 OFFCURVE",
"903 1088 CURVE SMOOTH",
"929 1088 LINE SMOOTH",
"1080 1088 OFFCURVE",
"1134 1158 OFFCURVE",
"1152 1366 CURVE",
"191 1366 LINE",
"152 1275 OFFCURVE",
"133 1160 OFFCURVE",
"137 1088 CURVE"
);
}
);
width = 988;
},
{
anchors = (
{
name = bottom;
position = "{345, 0}";
},
{
name = top;
position = "{627, 1464}";
}
);
layerId = "1023D002-3304-4399-867A-B886C920D2C0";
paths = (
{
closed = 1;
nodes = (
"372 -6 OFFCURVE",
"396 -4 OFFCURVE",
"415 0 CURVE",
"627 1096 LINE SMOOTH",
"638 1155 OFFCURVE",
"647 1204 OFFCURVE",
"655 1244 CURVE SMOOTH",
"667 1304 LINE",
"528 1304 LINE",
"516 1244 LINE SMOOTH",
"506 1195 OFFCURVE",
"492 1132 OFFCURVE",
"485 1096 CURVE SMOOTH",
"273 0 LINE",
"292 -4 OFFCURVE",
"321 -6 OFFCURVE",
"345 -6 CURVE SMOOTH"
);
},
{
closed = 1;
nodes = (
"423 1242 LINE SMOOTH",
"446 1242 OFFCURVE",
"496 1244 OFFCURVE",
"520 1244 CURVE SMOOTH",
"651 1244 LINE SMOOTH",
"673 1244 OFFCURVE",
"725 1242 OFFCURVE",
"749 1242 CURVE SMOOTH",
"915 1242 LINE SMOOTH",
"994 1242 OFFCURVE",
"1014 1290 OFFCURVE",
"1016 1366 CURVE",
"202 1366 LINE",
"187 1334 OFFCURVE",
"175 1288 OFFCURVE",
"178 1242 CURVE"
);
}
);
width = 874;
}
);
leftKerningGroup = T;
rightKerningGroup = T;
unicode = 0054;
},
{
color = 5;
glyphname = U;
lastChange = "2021-07-09 03:44:36 +0000";
layers = (
{
anchors = (
{
name = bottom;
position = "{548, 0}";
},
{
name = ogonek;
position = "{787, 8}";
},
{
name = top;
position = "{832, 1464}";
},
{
name = topright;
position = "{1358, 1366}";
}
);
layerId = "861B5D7F-E490-44BC-908E-F1CBF79092B0";
paths = (
{
closed = 1;
nodes = (
"932 -30 OFFCURVE",
"1104 160 OFFCURVE",
"1172 508 CURVE SMOOTH",
"1339 1366 LINE",
"1288 1376 OFFCURVE",
"1212 1378 OFFCURVE",
"1173 1378 CURVE SMOOTH",
"1129 1378 OFFCURVE",
"1067 1376 OFFCURVE",
"1009 1366 CURVE",
"842 507 LINE SMOOTH",
"823 409 OFFCURVE",
"788 236 OFFCURVE",
"604 236 CURVE SMOOTH",
"496 236 OFFCURVE",
"442 295 OFFCURVE",
"442 398 CURVE SMOOTH",
"442 448 OFFCURVE",
"450 500 OFFCURVE",
"465 578 CURVE SMOOTH",
"575 1144 LINE SMOOTH",
"580 1168 OFFCURVE",
"587 1215 OFFCURVE",
"587 1239 CURVE SMOOTH",
"587 1326 OFFCURVE",
"536 1380 OFFCURVE",
"427 1380 CURVE SMOOTH",
"306 1380 LINE",
"288 1366 LINE",
"137 589 LINE SMOOTH",
"123 519 OFFCURVE",
"111 436 OFFCURVE",
"111 366 CURVE SMOOTH",
"111 73 OFFCURVE",
"322 -30 OFFCURVE",
"566 -30 CURVE SMOOTH"
);
}
);
width = 1291;
},
{
anchors = (
{
name = bottom;
position = "{517, 0}";
},
{
name = ogonek;
position = "{693, 8}";
},
{
name = top;
position = "{801, 1464}";
},
{
name = topright;
position = "{1226, 1366}";
}
);
layerId = "1023D002-3304-4399-867A-B886C920D2C0";
paths = (
{
closed = 1;
nodes = (
"812 -24 OFFCURVE",
"992 130 OFFCURVE",
"1055 454 CURVE SMOOTH",
"1232 1366 LINE",
"1213 1370 OFFCURVE",
"1186 1372 OFFCURVE",
"1161 1372 CURVE SMOOTH",
"1136 1372 OFFCURVE",
"1109 1370 OFFCURVE",
"1090 1366 CURVE",
"917 472 LINE SMOOTH",
"893 346 OFFCURVE",
"822 96 OFFCURVE",
"544 96 CURVE SMOOTH",
"374 96 OFFCURVE",
"289 187 OFFCURVE",
"289 345 CURVE SMOOTH",
"289 406 OFFCURVE",
"301 472 OFFCURVE",
"310 518 CURVE SMOOTH",
"458 1279 LINE SMOOTH",
"460 1289 OFFCURVE",
"463 1309 OFFCURVE",
"463 1324 CURVE SMOOTH",
"463 1360 OFFCURVE",
"438 1372 OFFCURVE",
"399 1372 CURVE SMOOTH",
"344 1372 LINE",
"331 1360 LINE",
"169 523 LINE SMOOTH",
"158 467 OFFCURVE",
"146 395 OFFCURVE",
"146 328 CURVE SMOOTH",
"146 104 OFFCURVE",
"282 -24 OFFCURVE",
"531 -24 CURVE SMOOTH"
);
}
);
width = 1224;
},
{
anchors = (
{
name = bottom;
position = "{530, 0}";
},
{
name = ogonek;
position = "{706, 8}";
},
{
name = top;
position = "{788, 1464}";
},
{
name = topright;
position = "{1215, 1366}";
}
);
associatedMasterId = "1023D002-3304-4399-867A-B886C920D2C0";
layerId = "D246EB6E-1007-4EA5-ABAF-5B0920EEDAEF";
name = "Sep 14 20, 15:04";
paths = (
{
closed = 1;
nodes = (
"813 -24 OFFCURVE",
"995 120 OFFCURVE",
"1054 454 CURVE SMOOTH",
"1215 1366 LINE",
"1197 1370 OFFCURVE",
"1169 1372 OFFCURVE",
"1145 1372 CURVE SMOOTH",
"1120 1372 OFFCURVE",
"1093 1370 OFFCURVE",
"1075 1366 CURVE",
"917 472 LINE SMOOTH",
"897 358 OFFCURVE",
"847 96 OFFCURVE",
"553 96 CURVE SMOOTH",
"245 96 OFFCURVE",
"294 383 OFFCURVE",
"312 484 CURVE SMOOTH",
"453 1286 LINE SMOOTH",
"464 1348 OFFCURVE",
"447 1372 OFFCURVE",
"390 1372 CURVE SMOOTH",
"339 1372 LINE",
"326 1360 LINE",
"165 447 LINE SMOOTH",
"117 173 OFFCURVE",
"230 -24 OFFCURVE",
"544 -24 CURVE SMOOTH"
);
}
);
width = 1383;
}
);
leftKerningGroup = U;
rightKerningGroup = U;
rightMetricsKey = "=|";
unicode = 0055;
},
{
color = 5;
glyphname = V;
lastChange = "2021-07-09 03:44:36 +0000";
layers = (
{
anchors = (
{
name = bottom;
position = "{497, 0}";
},
{
name = top;
position = "{786, 1464}";
}
);
layerId = "861B5D7F-E490-44BC-908E-F1CBF79092B0";
paths = (
{
closed = 1;
nodes = (
"577 -11 OFFCURVE",
"661 -7 OFFCURVE",
"730 0 CURVE",
"1345 1338 LINE",
"1335 1356 LINE",
"1288 1372 OFFCURVE",
"1218 1378 OFFCURVE",
"1151 1378 CURVE SMOOTH",
"1100 1378 OFFCURVE",
"1059 1375 OFFCURVE",
"1021 1366 CURVE",
"560 275 LINE",
"539 275 OFFCURVE",
"539 283 OFFCURVE",
"539 300 CURVE SMOOTH",
"539 428 OFFCURVE",
"541 493 OFFCURVE",
"537 629 CURVE SMOOTH",
"519 1192 LINE SMOOTH",
"516 1300 OFFCURVE",
"493 1384 OFFCURVE",
"353 1384 CURVE SMOOTH",
"295 1384 OFFCURVE",
"226 1368 OFFCURVE",
"175 1345 CURVE",
"245 200 LINE SMOOTH",
"253 67 OFFCURVE",
"274 -11 OFFCURVE",
"490 -11 CURVE SMOOTH"
);
}
);
width = 1193;
},
{
anchors = (
{
name = bottom;
position = "{418, 0}";
},
{
name = top;
position = "{711, 1464}";
}
);
guideLines = (
{
angle = -85.1523;
position = "{353, 1303}";
}
);
layerId = "1023D002-3304-4399-867A-B886C920D2C0";
paths = (
{
closed = 1;
nodes = (
"456 -8 OFFCURVE",
"493 -6 OFFCURVE",
"522 -2 CURVE",
"1170 1355 LINE",
"1167 1363 LINE",
"1151 1368 OFFCURVE",
"1125 1372 OFFCURVE",
"1094 1372 CURVE SMOOTH",
"1072 1372 OFFCURVE",
"1046 1370 OFFCURVE",
"1030 1366 CURVE",
"458 145 LINE",
"446 145 OFFCURVE",
"443 148 OFFCURVE",
"443 162 CURVE SMOOTH",
"439 277 OFFCURVE",
"429 402 OFFCURVE",
"420 513 CURVE SMOOTH",
"353 1303 LINE SMOOTH",
"351 1331 OFFCURVE",
"342 1376 OFFCURVE",
"279 1376 CURVE SMOOTH",
"257 1376 OFFCURVE",
"227 1370 OFFCURVE",
"205 1362 CURVE",
"318 98 LINE SMOOTH",
"323 43 OFFCURVE",
"329 -8 OFFCURVE",
"435 -8 CURVE SMOOTH"
);
}
);
width = 1037;
}
);
leftKerningGroup = V;
rightKerningGroup = V;
unicode = 0056;
},
{
color = 5;
glyphname = W;
lastChange = "2021-07-09 03:44:36 +0000";
layers = (
{
anchors = (
{
name = bottom;
position = "{779, 0}";
},
{
name = top;
position = "{1083, 1464}";
}
);
guideLines = (
{
angle = 268.7302;
position = "{206, 1351}";
},
{
angle = 250.654;
position = "{1565, 1366}";
},
{
angle = 248.7412;
position = "{1885, 1336}";
},
{
angle = 267.3703;
position = "{521, 1205}";
},
{
angle = 251.9544;
position = "{829, 1340}";
},
{
angle = 265.5337;
position = "{1257, 1340}";
},
{
angle = 251.9544;
position = "{643, 2}";
},
{
angle = 265.5337;
position = "{916, 178}";
}
);
layerId = "861B5D7F-E490-44BC-908E-F1CBF79092B0";
paths = (
{
closed = 1;
nodes = (
"482 -12 OFFCURVE",
"568 -6 OFFCURVE",
"644 2 CURVE",
"817 532 LINE SMOOTH",
"882 730 OFFCURVE",
"923 873 OFFCURVE",
"972 1030 CURVE",
"988 1030 LINE",
"972 861 OFFCURVE",
"955 676 OFFCURVE",
"945 546 CURVE SMOOTH",
"917 188 LINE SMOOTH",
"903 9 OFFCURVE",
"972 -12 OFFCURVE",
"1103 -12 CURVE SMOOTH",
"1207 -12 OFFCURVE",
"1292 -6 OFFCURVE",
"1368 2 CURVE",
"1885 1336 LINE",
"1875 1354 LINE",
"1834 1370 OFFCURVE",
"1754 1378 OFFCURVE",
"1694 1378 CURVE SMOOTH",
"1654 1378 OFFCURVE",
"1613 1376 OFFCURVE",
"1565 1366 CURVE",
"1341 728 LINE SMOOTH",
"1295 597 OFFCURVE",
"1237 422 OFFCURVE",
"1190 275 CURVE",
"1178 275 OFFCURVE",
"1172 275 OFFCURVE",
"1174 303 CURVE SMOOTH",
"1255 1340 LINE",
"1197 1352 OFFCURVE",
"1112 1356 OFFCURVE",
"1044 1356 CURVE SMOOTH",
"975 1356 OFFCURVE",
"891 1352 OFFCURVE",
"827 1340 CURVE",
"481 278 LINE",
"467 278 OFFCURVE",
"465 280 OFFCURVE",
"467 307 CURVE SMOOTH",
"478 450 OFFCURVE",
"488 603 OFFCURVE",
"495 726 CURVE SMOOTH",
"521 1205 LINE SMOOTH",
"524 1266 OFFCURVE",
"529 1384 OFFCURVE",
"369 1384 CURVE SMOOTH",
"314 1384 OFFCURVE",
"255 1370 OFFCURVE",
"206 1354 CURVE",
"177 188 LINE SMOOTH",
"173 18 OFFCURVE",
"242 -12 OFFCURVE",
"387 -12 CURVE SMOOTH"
);
}
);
width = 1762;
},
{
anchors = (
{
name = bottom;
position = "{648, 0}";
},
{
name = top;
position = "{930, 1464}";
}
);
guideLines = (
{
angle = 269.5968;
position = "{246, 1366}";
},
{
angle = 248.3887;
position = "{1501, 1366}";
},
{
angle = 249.3201;
position = "{839, 1336}";
},
{
angle = 269.0899;
position = "{1031, 1336}";
},
{
angle = 269.0899;
position = "{904, 622}";
},
{
angle = 269.5968;
position = "{382, 1308}";
},
{
angle = 249.3201;
position = "{457, 0}";
}
);
layerId = "1023D002-3304-4399-867A-B886C920D2C0";
paths = (
{
closed = 1;
nodes = (
"382 -8 OFFCURVE",
"422 -5 OFFCURVE",
"457 0 CURVE",
"699 641 LINE SMOOTH",
"757 795 OFFCURVE",
"839 1016 OFFCURVE",
"905 1197 CURVE",
"917 1197 LINE",
"911 994 OFFCURVE",
"907 791 OFFCURVE",
"904 622 CURVE SMOOTH",
"895 85 LINE SMOOTH",
"894 18 OFFCURVE",
"920 -11 OFFCURVE",
"992 -9 CURVE SMOOTH",
"1040 -8 OFFCURVE",
"1075 -4 OFFCURVE",
"1108 1 CURVE",
"1644 1354 LINE",
"1638 1364 LINE",
"1618 1370 OFFCURVE",
"1594 1372 OFFCURVE",
"1569 1372 CURVE SMOOTH",
"1546 1372 OFFCURVE",
"1521 1370 OFFCURVE",
"1503 1366 CURVE",
"1176 528 LINE SMOOTH",
"1122 390 OFFCURVE",
"1076 268 OFFCURVE",
"1024 121 CURVE",
"1013 121 OFFCURVE",
"1011 124 OFFCURVE",
"1011 141 CURVE SMOOTH",
"1031 1336 LINE",
"1012 1340 OFFCURVE",
"978 1343 OFFCURVE",
"939 1343 CURVE SMOOTH",
"902 1343 OFFCURVE",
"866 1340 OFFCURVE",
"839 1336 CURVE",
"380 121 LINE",
"370 121 OFFCURVE",
"367 122 OFFCURVE",
"367 141 CURVE SMOOTH",
"370 255 OFFCURVE",
"372 387 OFFCURVE",
"373 518 CURVE SMOOTH",
"382 1308 LINE SMOOTH",
"383 1353 OFFCURVE",
"362 1377 OFFCURVE",
"318 1377 CURVE SMOOTH",
"296 1377 OFFCURVE",
"268 1373 OFFCURVE",
"246 1366 CURVE",
"237 87 LINE SMOOTH",
"237 25 OFFCURVE",
"253 -8 OFFCURVE",
"335 -8 CURVE SMOOTH"
);
}
);
width = 1552;
},
{
anchors = (
{
name = bottom;
position = "{824, 0}";
},
{
name = top;
position = "{1082, 1464}";
}
);
associatedMasterId = "861B5D7F-E490-44BC-908E-F1CBF79092B0";
guideLines = (
{
angle = -89.365;
position = "{209, 1351}";
},
{
angle = -89.365;
position = "{538, 1202}";
}
);
layerId = "FC80A7B6-613D-47FC-A356-70CC5A49977B";
name = "Oct 12 20, 18:24";
paths = (
{
closed = 1;
nodes = (
"514 -12 OFFCURVE",
"619 -6 OFFCURVE",
"695 2 CURVE",
"853 531 LINE SMOOTH",
"907 711 OFFCURVE",
"946 852 OFFCURVE",
"995 1025 CURVE",
"1011 1025 LINE",
"1000 850 OFFCURVE",
"991 706 OFFCURVE",
"983 546 CURVE SMOOTH",
"965 178 LINE SMOOTH",
"957 7 OFFCURVE",
"1030 -12 OFFCURVE",
"1148 -12 CURVE SMOOTH",
"1234 -12 OFFCURVE",
"1348 -6 OFFCURVE",
"1425 2 CURVE",
"1898 1336 LINE",
"1887 1354 LINE",
"1845 1370 OFFCURVE",
"1766 1378 OFFCURVE",
"1705 1378 CURVE SMOOTH",
"1665 1378 OFFCURVE",
"1622 1376 OFFCURVE",
"1574 1366 CURVE",
"1373 728 LINE SMOOTH",
"1324 572 OFFCURVE",
"1285 435 OFFCURVE",
"1241 280 CURVE",
"1227 280 OFFCURVE",
"1223 280 OFFCURVE",
"1224 308 CURVE SMOOTH",
"1273 1340 LINE",
"1214 1352 OFFCURVE",
"1125 1356 OFFCURVE",
"1056 1356 CURVE SMOOTH",
"986 1356 OFFCURVE",
"900 1352 OFFCURVE",
"836 1340 CURVE",
"523 283 LINE",
"509 283 OFFCURVE",
"506 285 OFFCURVE",
"508 311 CURVE SMOOTH",
"516 445 OFFCURVE",
"523 592 OFFCURVE",
"526 726 CURVE SMOOTH",
"536 1202 LINE SMOOTH",
"539 1334 OFFCURVE",
"486 1384 OFFCURVE",
"376 1384 CURVE SMOOTH",
"317 1384 OFFCURVE",
"257 1369 OFFCURVE",
"209 1351 CURVE",
"222 178 LINE SMOOTH",
"224 7 OFFCURVE",
"308 -12 OFFCURVE",
"428 -12 CURVE SMOOTH"
);
}
);
width = 1823;
}
);
leftKerningGroup = W;
rightKerningGroup = W;
unicode = 0057;
},
{
color = 5;
glyphname = X;
lastChange = "2021-07-09 03:44:36 +0000";
layers = (
{
anchors = (
{
name = top;
position = "{762, 1464}";
}
);
guideLines = (
{
angle = -67.0369;
position = "{567, 1256}";
}
);
layerId = "861B5D7F-E490-44BC-908E-F1CBF79092B0";
paths = (
{
closed = 1;
nodes = (
"142 -12 OFFCURVE",
"196 -10 OFFCURVE",
"247 0 CURVE",
"596 493 LINE",
"757 612 LINE",
"1287 1336 LINE",
"1277 1354 LINE",
"1238 1369 OFFCURVE",
"1165 1378 OFFCURVE",
"1093 1378 CURVE SMOOTH",
"1056 1378 OFFCURVE",
"1008 1376 OFFCURVE",
"957 1366 CURVE",
"652 924 LINE",
"486 805 LINE",
"-86 30 LINE",
"-76 12 LINE",
"-34 -4 OFFCURVE",
"37 -12 OFFCURVE",
"105 -12 CURVE SMOOTH"
);
},
{
closed = 1;
nodes = (
"940 -24 OFFCURVE",
"1021 5 OFFCURVE",
"1081 48 CURVE",
"566 1256 LINE SMOOTH",
"539 1319 OFFCURVE",
"505 1386 OFFCURVE",
"401 1386 CURVE SMOOTH",
"330 1386 OFFCURVE",
"248 1357 OFFCURVE",
"189 1314 CURVE",
"701 106 LINE SMOOTH",
"728 43 OFFCURVE",
"760 -24 OFFCURVE",
"869 -24 CURVE SMOOTH"
);
}
);
width = 1162;
},
{
anchors = (
{
name = top;
position = "{687, 1464}";
}
);
guideLines = (
{
angle = -68.0235;
position = "{395, 1318}";
},
{
angle = -68.252;
position = "{231, 1344}";
},
{
angle = 232.9931;
position = "{233, 383}";
},
{
angle = 232.9931;
position = "{1127, 1350}";
}
);
layerId = "1023D002-3304-4399-867A-B886C920D2C0";
paths = (
{
closed = 1;
nodes = (
"62 -7 OFFCURVE",
"87 -4 OFFCURVE",
"105 0 CURVE",
"567 630 LINE",
"622 663 LINE",
"1142 1350 LINE",
"1139 1358 LINE",
"1123 1367 OFFCURVE",
"1089 1372 OFFCURVE",
"1056 1372 CURVE SMOOTH",
"1032 1372 OFFCURVE",
"1008 1369 OFFCURVE",
"991 1365 CURVE",
"567 786 LINE",
"511 755 LINE",
"-52 15 LINE",
"-49 7 LINE",
"-31 -2 OFFCURVE",
"3 -7 OFFCURVE",
"38 -7 CURVE SMOOTH"
);
},
{
closed = 1;
nodes = (
"846 -12 OFFCURVE",
"873 -2 OFFCURVE",
"909 22 CURVE",
"408 1318 LINE SMOOTH",
"391 1363 OFFCURVE",
"368 1378 OFFCURVE",
"338 1378 CURVE SMOOTH",
"307 1378 OFFCURVE",
"278 1364 OFFCURVE",
"247 1344 CURVE",
"743 48 LINE SMOOTH",
"760 3 OFFCURVE",
"787 -12 OFFCURVE",
"816 -12 CURVE SMOOTH"
);
}
);
width = 1038;
}
);
leftKerningGroup = X;
rightKerningGroup = X;
unicode = 0058;
},
{
color = 5;
glyphname = Y;
lastChange = "2021-07-09 03:44:36 +0000";
layers = (
{
anchors = (
{
name = bottom;
position = "{449, 0}";
},
{
name = top;
position = "{736, 1464}";
}
);
layerId = "861B5D7F-E490-44BC-908E-F1CBF79092B0";
paths = (
{
closed = 1;
nodes = (
"681 393 LINE",
"1237 1336 LINE",
"1226 1354 LINE",
"1186 1370 OFFCURVE",
"1112 1378 OFFCURVE",
"1053 1378 CURVE SMOOTH",
"1013 1378 OFFCURVE",
"967 1376 OFFCURVE",
"919 1366 CURVE",
"744 1049 LINE SMOOTH",
"698 966 OFFCURVE",
"641 847 OFFCURVE",
"593 741 CURVE",
"580 741 LINE",
"571 850 OFFCURVE",
"557 962 OFFCURVE",
"540 1072 CURVE SMOOTH",
"519 1210 LINE SMOOTH",
"505 1300 OFFCURVE",
"478 1383 OFFCURVE",
"358 1383 CURVE SMOOTH",
"298 1383 OFFCURVE",
"226 1363 OFFCURVE",
"171 1336 CURVE",
"370 393 LINE"
);
},
{
closed = 1;
nodes = (
"490 -12 OFFCURVE",
"557 -10 OFFCURVE",
"615 0 CURVE",
"735 628 LINE",
"405 628 LINE",
"285 0 LINE",
"335 -10 OFFCURVE",
"408 -12 OFFCURVE",
"446 -12 CURVE SMOOTH"
);
}
);
width = 1082;
},
{
anchors = (
{
name = bottom;
position = "{369, 0}";
},
{
name = top;
position = "{661, 1464}";
}
);
guideLines = (
{
angle = -78.888;
position = "{209, 1357}";
},
{
angle = 239.9099;
position = "{1059, 1354}";
},
{
angle = -78.888;
position = "{363, 1310}";
},
{
angle = 239.9099;
position = "{919, 1366}";
}
);
layerId = "1023D002-3304-4399-867A-B886C920D2C0";
paths = (
{
closed = 1;
nodes = (
"512 410 LINE",
"1059 1354 LINE",
"1056 1363 LINE",
"1041 1368 OFFCURVE",
"1011 1372 OFFCURVE",
"985 1372 CURVE SMOOTH",
"961 1372 OFFCURVE",
"936 1370 OFFCURVE",
"919 1366 CURVE",
"623 849 LINE SMOOTH",
"579 771 OFFCURVE",
"538 698 OFFCURVE",
"497 621 CURVE",
"487 621 LINE",
"476 696 OFFCURVE",
"463 781 OFFCURVE",
"448 860 CURVE SMOOTH",
"363 1310 LINE SMOOTH",
"355 1352 OFFCURVE",
"342 1380 OFFCURVE",
"294 1380 CURVE SMOOTH",
"269 1380 OFFCURVE",
"236 1371 OFFCURVE",
"209 1357 CURVE",
"395 410 LINE"
);
},
{
closed = 1;
nodes = (
"401 -6 OFFCURVE",
"425 -4 OFFCURVE",
"444 0 CURVE",
"550 546 LINE",
"408 546 LINE",
"302 0 LINE",
"321 -4 OFFCURVE",
"350 -6 OFFCURVE",
"374 -6 CURVE SMOOTH"
);
}
);
width = 935;
},
{
anchors = (
{
name = bottom;
position = "{358, 0}";
},
{
name = top;
position = "{650, 1464}";
}
);
associatedMasterId = "1023D002-3304-4399-867A-B886C920D2C0";
guideLines = (
{
angle = 240.7546;
position = "{898, 1366}";
},
{
angle = 100.0302;
position = "{362, 1310}";
},
{
angle = 100.0302;
position = "{208, 1357}";
},
{
angle = 240.7546;
position = "{1038, 1354}";
}
);
layerId = "93A5A70A-F414-440C-BA2C-89E5A80E0C74";
name = "Dec 6 20, 00:51";
paths = (
{
closed = 1;
nodes = (
"503 420 LINE",
"1038 1354 LINE",
"1035 1363 LINE",
"1020 1368 OFFCURVE",
"990 1372 OFFCURVE",
"964 1372 CURVE SMOOTH",
"940 1372 OFFCURVE",
"915 1370 OFFCURVE",
"898 1366 CURVE",
"615 858 LINE SMOOTH",
"572 780 OFFCURVE",
"530 707 OFFCURVE",
"489 630 CURVE",
"479 630 LINE",
"468 705 OFFCURVE",
"454 790 OFFCURVE",
"440 869 CURVE SMOOTH",
"362 1310 LINE SMOOTH",
"355 1352 OFFCURVE",
"341 1380 OFFCURVE",
"293 1380 CURVE SMOOTH",
"268 1380 OFFCURVE",
"235 1371 OFFCURVE",
"208 1357 CURVE",
"386 420 LINE"
);
},
{
closed = 1;
nodes = (
"390 -6 OFFCURVE",
"414 -4 OFFCURVE",
"433 0 CURVE",
"541 556 LINE",
"399 556 LINE",
"291 0 LINE",
"310 -4 OFFCURVE",
"339 -6 OFFCURVE",
"363 -6 CURVE SMOOTH"
);
}
);
width = 913;
}
);
leftKerningGroup = Y;
rightKerningGroup = Y;
unicode = 0059;
},
{
color = 5;
glyphname = Z;
lastChange = "2021-07-09 03:44:36 +0000";
layers = (
{
anchors = (
{
name = bottom;
position = "{443, 0}";
},
{
name = top;
position = "{733, 1464}";
}
);
layerId = "861B5D7F-E490-44BC-908E-F1CBF79092B0";
paths = (
{
closed = 1;
nodes = (
"755 0 LINE SMOOTH",
"924 0 OFFCURVE",
"1003 44 OFFCURVE",
"1003 213 CURVE SMOOTH",
"1003 250 OFFCURVE",
"998 292 OFFCURVE",
"994 318 CURVE",
"915 296 OFFCURVE",
"801 279 OFFCURVE",
"708 279 CURVE SMOOTH",
"646 279 LINE SMOOTH",
"562 279 OFFCURVE",
"468 279 OFFCURVE",
"399 272 CURVE",
"394 278 LINE",
"458 333 OFFCURVE",
"526 400 OFFCURVE",
"585 466 CURVE SMOOTH",
"1063 1001 LINE SMOOTH",
"1133 1079 OFFCURVE",
"1151 1137 OFFCURVE",
"1151 1194 CURVE SMOOTH",
"1151 1240 OFFCURVE",
"1140 1298 OFFCURVE",
"1124 1366 CURVE",
"280 1366 LINE",
"238 1277 OFFCURVE",
"219 1164 OFFCURVE",
"226 1094 CURVE",
"456 1094 LINE SMOOTH",
"557 1094 OFFCURVE",
"656 1094 OFFCURVE",
"762 1107 CURVE",
"767 1101 LINE",
"706 1044 OFFCURVE",
"629 971 OFFCURVE",
"545 877 CURVE SMOOTH",
"91 367 LINE SMOOTH",
"23 291 OFFCURVE",
"0 236 OFFCURVE",
"0 168 CURVE SMOOTH",
"0 124 OFFCURVE",
"10 73 OFFCURVE",
"28 0 CURVE"
);
}
);
width = 1103;
},
{
anchors = (
{
name = bottom;
position = "{410, 0}";
},
{
name = top;
position = "{700, 1464}";
}
);
layerId = "1023D002-3304-4399-867A-B886C920D2C0";
paths = (
{
closed = 1;
nodes = (
"756 0 LINE SMOOTH",
"832 0 OFFCURVE",
"873 22 OFFCURVE",
"873 100 CURVE SMOOTH",
"873 121 OFFCURVE",
"870 145 OFFCURVE",
"866 161 CURVE",
"820 143 OFFCURVE",
"725 130 OFFCURVE",
"619 130 CURVE SMOOTH",
"378 130 LINE SMOOTH",
"315 130 OFFCURVE",
"229 127 OFFCURVE",
"171 122 CURVE",
"168 128 LINE",
"245 219 OFFCURVE",
"295 282 OFFCURVE",
"358 359 CURVE SMOOTH",
"1021 1178 LINE SMOOTH",
"1050 1214 OFFCURVE",
"1067 1242 OFFCURVE",
"1067 1277 CURVE SMOOTH",
"1067 1308 OFFCURVE",
"1058 1334 OFFCURVE",
"1050 1366 CURVE",
"305 1366 LINE",
"287 1327 OFFCURVE",
"280 1284 OFFCURVE",
"282 1242 CURVE",
"619 1238 LINE SMOOTH",
"712 1237 OFFCURVE",
"837 1242 OFFCURVE",
"903 1247 CURVE",
"907 1241 LINE",
"794 1108 OFFCURVE",
"793 1108 OFFCURVE",
"726 1025 CURVE SMOOTH",
"60 202 LINE SMOOTH",
"28 162 OFFCURVE",
"8 132 OFFCURVE",
"8 91 CURVE SMOOTH",
"8 69 OFFCURVE",
"15 37 OFFCURVE",
"23 0 CURVE"
);
}
);
width = 1020;
}
);
leftKerningGroup = Z;
rightKerningGroup = Z;
unicode = 005A;
},
{
color = 5;
glyphname = a;
lastChange = "2021-07-09 03:44:36 +0000";
layers = (
{
anchors = (
{
name = bottom;
position = "{411, 0}";
},
{
name = ogonek;
position = "{739, -16}";
},
{
name = top;
position = "{623, 1084}";
}
);
layerId = "861B5D7F-E490-44BC-908E-F1CBF79092B0";
paths = (
{
closed = 1;
nodes = (
"492 -30 OFFCURVE",
"625 160 OFFCURVE",
"655 403 CURVE",
"615 482 LINE",
"538 279 OFFCURVE",
"460 230 OFFCURVE",
"416 230 CURVE SMOOTH",
"376 230 OFFCURVE",
"356 267 OFFCURVE",
"356 344 CURVE SMOOTH",
"356 485 OFFCURVE",
"417 798 OFFCURVE",
"589 798 CURVE SMOOTH",
"617 798 OFFCURVE",
"656 790 OFFCURVE",
"680 764 CURVE",
"855 931 LINE",
"793 991 OFFCURVE",
"694 1030 OFFCURVE",
"584 1030 CURVE SMOOTH",
"234 1030 OFFCURVE",
"35 643 OFFCURVE",
"35 311 CURVE SMOOTH",
"35 83 OFFCURVE",
"143 -30 OFFCURVE",
"292 -30 CURVE SMOOTH"
);
},
{
closed = 1;
nodes = (
"835 13 OFFCURVE",
"890 85 OFFCURVE",
"907 146 CURVE",
"875 178 OFFCURVE",
"870 207 OFFCURVE",
"870 235 CURVE SMOOTH",
"870 269 OFFCURVE",
"879 312 OFFCURVE",
"886 350 CURVE SMOOTH",
"1012 1000 LINE",
"1000 1014 LINE",
"946 1014 LINE SMOOTH",
"850 1014 OFFCURVE",
"812 992 OFFCURVE",
"752 928 CURVE SMOOTH",
"665 834 LINE",
"550 244 LINE",
"551 113 OFFCURVE",
"605 -3 OFFCURVE",
"782 -16 CURVE"
);
}
);
width = 1027;
},
{
anchors = (
{
name = bottom;
position = "{380, 0}";
},
{
name = ogonek;
position = "{678, -14}";
},
{
name = top;
position = "{603, 1084}";
}
);
layerId = "1023D002-3304-4399-867A-B886C920D2C0";
paths = (
{
closed = 1;
nodes = (
"513 -23 OFFCURVE",
"669 130 OFFCURVE",
"721 320 CURVE",
"708 429 LINE",
"634 213 OFFCURVE",
"478 99 OFFCURVE",
"370 99 CURVE SMOOTH",
"271 99 OFFCURVE",
"216 188 OFFCURVE",
"216 348 CURVE SMOOTH",
"216 581 OFFCURVE",
"333 887 OFFCURVE",
"576 887 CURVE SMOOTH",
"656 887 OFFCURVE",
"743 853 OFFCURVE",
"796 803 CURVE",
"850 899 LINE",
"788 968 OFFCURVE",
"687 1003 OFFCURVE",
"591 1003 CURVE SMOOTH",
"277 1003 OFFCURVE",
"78 676 OFFCURVE",
"78 328 CURVE SMOOTH",
"78 101 OFFCURVE",
"175 -23 OFFCURVE",
"338 -23 CURVE SMOOTH"
);
},
{
closed = 1;
nodes = (
"769 -1 OFFCURVE",
"796 24 OFFCURVE",
"809 53 CURVE",
"788 79 OFFCURVE",
"778 115 OFFCURVE",
"778 155 CURVE SMOOTH",
"778 198 OFFCURVE",
"788 255 OFFCURVE",
"797 301 CURVE SMOOTH",
"929 982 LINE",
"920 994 LINE",
"885 994 LINE SMOOTH",
"840 994 OFFCURVE",
"824 978 OFFCURVE",
"805 954 CURVE SMOOTH",
"782 924 LINE",
"639 188 LINE",
"638 128 OFFCURVE",
"643 30 OFFCURVE",
"736 -14 CURVE"
);
}
);
width = 1001;
}
);
leftKerningGroup = a;
rightKerningGroup = u;
rightMetricsKey = u;
unicode = 0061;
},
{
color = 5;
glyphname = b;
lastChange = "2021-07-09 03:44:36 +0000";
layers = (
{
anchors = (
{
name = bottom;
position = "{415, 0}";
},
{
name = top;
position = "{753, 1520}";
}
);
layerId = "861B5D7F-E490-44BC-908E-F1CBF79092B0";
paths = (
{
closed = 1;
nodes = (
"797 -27 OFFCURVE",
"990 347 OFFCURVE",
"990 669 CURVE SMOOTH",
"990 902 OFFCURVE",
"891 1019 OFFCURVE",
"733 1019 CURVE SMOOTH",
"533 1019 OFFCURVE",
"404 816 OFFCURVE",
"374 546 CURVE",
"409 507 LINE",
"486 711 OFFCURVE",
"567 759 OFFCURVE",
"611 759 CURVE SMOOTH",
"652 759 OFFCURVE",
"669 719 OFFCURVE",
"669 640 CURVE SMOOTH",
"669 474 OFFCURVE",
"592 203 OFFCURVE",
"416 203 CURVE SMOOTH",
"353 203 OFFCURVE",
"273 238 OFFCURVE",
"218 285 CURVE",
"24 57 LINE",
"130 -1 OFFCURVE",
"260 -27 OFFCURVE",
"371 -27 CURVE SMOOTH"
);
},
{
closed = 1;
nodes = (
"563 1198 LINE SMOOTH",
"574 1256 OFFCURVE",
"583 1297 OFFCURVE",
"583 1339 CURVE SMOOTH",
"583 1429 OFFCURVE",
"535 1472 OFFCURVE",
"435 1472 CURVE SMOOTH",
"315 1472 LINE",
"298 1458 LINE",
"25 57 LINE",
"339 50 LINE"
);
}
);
width = 1025;
},
{
anchors = (
{
name = bottom;
position = "{389, 0}";
},
{
name = top;
position = "{710, 1520}";
}
);
layerId = "1023D002-3304-4399-867A-B886C920D2C0";
paths = (
{
closed = 1;
nodes = (
"708 -20 OFFCURVE",
"920 278 OFFCURVE",
"920 645 CURVE SMOOTH",
"920 901 OFFCURVE",
"800 996 OFFCURVE",
"665 996 CURVE SMOOTH",
"495 996 OFFCURVE",
"330 854 OFFCURVE",
"273 631 CURVE",
"293 542 LINE",
"359 751 OFFCURVE",
"514 874 OFFCURVE",
"632 874 CURVE SMOOTH",
"714 874 OFFCURVE",
"782 802 OFFCURVE",
"782 625 CURVE SMOOTH",
"782 338 OFFCURVE",
"628 91 OFFCURVE",
"383 91 CURVE SMOOTH",
"302 91 OFFCURVE",
"232 116 OFFCURVE",
"177 157 CURVE",
"80 53 LINE",
"157 9 OFFCURVE",
"260 -20 OFFCURVE",
"368 -20 CURVE SMOOTH"
);
},
{
closed = 1;
nodes = (
"473 1375 LINE SMOOTH",
"476 1391 OFFCURVE",
"479 1406 OFFCURVE",
"479 1417 CURVE SMOOTH",
"479 1459 OFFCURVE",
"447 1470 OFFCURVE",
"422 1470 CURVE SMOOTH",
"367 1470 LINE",
"353 1458 LINE",
"80 53 LINE",
"215 49 LINE"
);
}
);
width = 995;
}
);
leftKerningGroup = h;
leftMetricsKey = n;
rightKerningGroup = o;
rightMetricsKey = p;
unicode = 0062;
},
{
color = 5;
glyphname = c;
lastChange = "2021-07-09 03:44:36 +0000";
layers = (
{
anchors = (
{
name = bottom;
position = "{384, 0}";
},
{
name = top;
position = "{587, 1084}";
}
);
layerId = "861B5D7F-E490-44BC-908E-F1CBF79092B0";
paths = (
{
closed = 1;
nodes = (
"541 -30 OFFCURVE",
"690 33 OFFCURVE",
"772 119 CURVE",
"764 188 OFFCURVE",
"708 274 OFFCURVE",
"655 302 CURVE",
"602 257 OFFCURVE",
"534 218 OFFCURVE",
"465 218 CURVE SMOOTH",
"405 218 OFFCURVE",
"355 251 OFFCURVE",
"355 370 CURVE SMOOTH",
"355 513 OFFCURVE",
"425 788 OFFCURVE",
"534 788 CURVE SMOOTH",
"572 788 OFFCURVE",
"591 757 OFFCURVE",
"591 702 CURVE SMOOTH",
"591 650 OFFCURVE",
"579 600 OFFCURVE",
"571 554 CURVE",
"602 543 OFFCURVE",
"652 536 OFFCURVE",
"689 536 CURVE SMOOTH",
"820 536 OFFCURVE",
"882 623 OFFCURVE",
"882 748 CURVE SMOOTH",
"882 917 OFFCURVE",
"762 1030 OFFCURVE",
"575 1030 CURVE SMOOTH",
"219 1030 OFFCURVE",
"39 653 OFFCURVE",
"39 354 CURVE SMOOTH",
"39 99 OFFCURVE",
"172 -30 OFFCURVE",
"390 -30 CURVE SMOOTH"
);
}
);
width = 867;
},
{
anchors = (
{
name = bottom;
position = "{368, 0}";
},
{
name = top;
position = "{575, 1084}";
}
);
layerId = "1023D002-3304-4399-867A-B886C920D2C0";
paths = (
{
closed = 1;
nodes = (
"501 -24 OFFCURVE",
"632 35 OFFCURVE",
"715 116 CURVE",
"709 149 OFFCURVE",
"682 187 OFFCURVE",
"657 205 CURVE",
"583 147 OFFCURVE",
"496 98 OFFCURVE",
"401 98 CURVE SMOOTH",
"265 98 OFFCURVE",
"213 199 OFFCURVE",
"213 354 CURVE SMOOTH",
"213 590 OFFCURVE",
"334 892 OFFCURVE",
"550 892 CURVE SMOOTH",
"641 892 OFFCURVE",
"692 831 OFFCURVE",
"692 723 CURVE SMOOTH",
"692 690 OFFCURVE",
"687 660 OFFCURVE",
"683 642 CURVE",
"700 637 OFFCURVE",
"723 633 OFFCURVE",
"743 633 CURVE SMOOTH",
"804 633 OFFCURVE",
"833 670 OFFCURVE",
"833 748 CURVE SMOOTH",
"833 888 OFFCURVE",
"743 1004 OFFCURVE",
"571 1004 CURVE SMOOTH",
"254 1004 OFFCURVE",
"74 645 OFFCURVE",
"74 337 CURVE SMOOTH",
"74 112 OFFCURVE",
"170 -24 OFFCURVE",
"370 -24 CURVE SMOOTH"
);
}
);
width = 848;
},
{
anchors = (
{
name = bottom;
position = "{379, 0}";
},
{
name = top;
position = "{591, 1084}";
}
);
associatedMasterId = "861B5D7F-E490-44BC-908E-F1CBF79092B0";
layerId = "E4B5B2C1-7B96-4008-876D-7CC8FBB566C7";
name = "Nov 11 20, 19:11";
paths = (
{
closed = 1;
nodes = (
"541 -30 OFFCURVE",
"690 33 OFFCURVE",
"772 119 CURVE",
"764 188 OFFCURVE",
"708 274 OFFCURVE",
"655 302 CURVE",
"602 257 OFFCURVE",
"534 218 OFFCURVE",
"465 218 CURVE SMOOTH",
"405 218 OFFCURVE",
"355 251 OFFCURVE",
"355 370 CURVE SMOOTH",
"355 513 OFFCURVE",
"425 788 OFFCURVE",
"534 788 CURVE SMOOTH",
"572 788 OFFCURVE",
"591 757 OFFCURVE",
"591 702 CURVE SMOOTH",
"591 650 OFFCURVE",
"579 600 OFFCURVE",
"571 554 CURVE",
"602 543 OFFCURVE",
"652 536 OFFCURVE",
"689 536 CURVE SMOOTH",
"820 536 OFFCURVE",
"882 623 OFFCURVE",
"882 748 CURVE SMOOTH",
"882 917 OFFCURVE",
"762 1030 OFFCURVE",
"575 1030 CURVE SMOOTH",
"219 1030 OFFCURVE",
"39 653 OFFCURVE",
"39 354 CURVE SMOOTH",
"39 99 OFFCURVE",
"172 -30 OFFCURVE",
"390 -30 CURVE SMOOTH"
);
}
);
width = 867;
}
);
leftKerningGroup = o;
leftMetricsKey = o;
rightKerningGroup = c;
unicode = 0063;
},
{
color = 5;
glyphname = d;
lastChange = "2021-07-09 03:44:36 +0000";
layers = (
{
anchors = (
{
name = bottom;
position = "{441, 0}";
},
{
name = top;
position = "{679, 1520}";
},
{
name = topright;
position = "{1029, 1000}";
}
);
layerId = "861B5D7F-E490-44BC-908E-F1CBF79092B0";
paths = (
{
closed = 1;
nodes = (
"491 -30 OFFCURVE",
"624 160 OFFCURVE",
"654 403 CURVE",
"614 482 LINE",
"537 279 OFFCURVE",
"459 230 OFFCURVE",
"415 230 CURVE SMOOTH",
"375 230 OFFCURVE",
"355 267 OFFCURVE",
"355 344 CURVE SMOOTH",
"355 482 OFFCURVE",
"416 788 OFFCURVE",
"588 788 CURVE SMOOTH",
"616 788 OFFCURVE",
"655 780 OFFCURVE",
"679 754 CURVE",
"814 921 LINE",
"761 981 OFFCURVE",
"677 1020 OFFCURVE",
"583 1020 CURVE SMOOTH",
"233 1020 OFFCURVE",
"34 638 OFFCURVE",
"34 311 CURVE SMOOTH",
"34 83 OFFCURVE",
"142 -30 OFFCURVE",
"291 -30 CURVE SMOOTH"
);
},
{
closed = 1;
nodes = (
"834 13 OFFCURVE",
"889 85 OFFCURVE",
"906 146 CURVE",
"874 178 OFFCURVE",
"869 207 OFFCURVE",
"869 235 CURVE SMOOTH",
"869 272 OFFCURVE",
"878 312 OFFCURVE",
"885 350 CURVE SMOOTH",
"1050 1201 LINE SMOOTH",
"1061 1259 OFFCURVE",
"1070 1304 OFFCURVE",
"1070 1339 CURVE SMOOTH",
"1070 1429 OFFCURVE",
"1022 1472 OFFCURVE",
"922 1472 CURVE SMOOTH",
"802 1472 LINE",
"785 1458 LINE",
"549 244 LINE",
"550 113 OFFCURVE",
"604 -3 OFFCURVE",
"781 -16 CURVE"
);
}
);
width = 1023;
},
{
anchors = (
{
name = bottom;
position = "{447, 0}";
},
{
name = top;
position = "{696, 1520}";
},
{
name = topright;
position = "{934, 980}";
}
);
layerId = "1023D002-3304-4399-867A-B886C920D2C0";
paths = (
{
closed = 1;
nodes = (
"513 -23 OFFCURVE",
"669 130 OFFCURVE",
"721 320 CURVE",
"708 429 LINE",
"634 213 OFFCURVE",
"478 99 OFFCURVE",
"370 99 CURVE SMOOTH",
"271 99 OFFCURVE",
"216 188 OFFCURVE",
"216 348 CURVE SMOOTH",
"216 581 OFFCURVE",
"333 887 OFFCURVE",
"576 887 CURVE SMOOTH",
"656 887 OFFCURVE",
"743 853 OFFCURVE",
"796 803 CURVE",
"850 899 LINE",
"788 968 OFFCURVE",
"687 1003 OFFCURVE",
"591 1003 CURVE SMOOTH",
"277 1003 OFFCURVE",
"78 676 OFFCURVE",
"78 328 CURVE SMOOTH",
"78 101 OFFCURVE",
"175 -23 OFFCURVE",
"338 -23 CURVE SMOOTH"
);
},
{
closed = 1;
nodes = (
"769 -1 OFFCURVE",
"796 24 OFFCURVE",
"809 53 CURVE",
"788 79 OFFCURVE",
"778 115 OFFCURVE",
"778 155 CURVE SMOOTH",
"778 198 OFFCURVE",
"788 255 OFFCURVE",
"797 301 CURVE SMOOTH",
"1006 1375 LINE SMOOTH",
"1009 1391 OFFCURVE",
"1012 1406 OFFCURVE",
"1012 1417 CURVE SMOOTH",
"1012 1459 OFFCURVE",
"980 1470 OFFCURVE",
"955 1470 CURVE SMOOTH",
"900 1470 LINE",
"886 1458 LINE",
"639 188 LINE",
"638 128 OFFCURVE",
"643 30 OFFCURVE",
"736 -14 CURVE"
);
}
);
width = 998;
},
{
anchors = (
{
name = bottom;
position = "{472, 0}";
},
{
name = top;
position = "{694, 1520}";
},
{
name = topright;
position = "{942, 980}";
}
);
associatedMasterId = "1023D002-3304-4399-867A-B886C920D2C0";
layerId = "AE58D0C4-47E2-49CD-8FC6-C2927AE19D96";
name = "Sep 23 20, 23:18";
paths = (
{
closed = 1;
nodes = (
"553 -24 OFFCURVE",
"708 143 OFFCURVE",
"749 311 CURVE",
"739 425 LINE",
"665 212 OFFCURVE",
"521 100 OFFCURVE",
"409 100 CURVE SMOOTH",
"293 100 OFFCURVE",
"238 212 OFFCURVE",
"238 374 CURVE SMOOTH",
"238 588 OFFCURVE",
"335 883 OFFCURVE",
"591 883 CURVE SMOOTH",
"666 883 OFFCURVE",
"762 858 OFFCURVE",
"816 821 CURVE",
"868 914 LINE",
"809 963 OFFCURVE",
"717 996 OFFCURVE",
"612 996 CURVE SMOOTH",
"294 996 OFFCURVE",
"97 692 OFFCURVE",
"97 351 CURVE SMOOTH",
"97 85 OFFCURVE",
"212 -24 OFFCURVE",
"373 -24 CURVE SMOOTH"
);
},
{
closed = 1;
nodes = (
"806 0 OFFCURVE",
"831 24 OFFCURVE",
"844 53 CURVE",
"794 107 OFFCURVE",
"814 220 OFFCURVE",
"828 301 CURVE SMOOTH",
"1021 1394 LINE",
"1032 1456 OFFCURVE",
"996 1470 OFFCURVE",
"965 1470 CURVE SMOOTH",
"908 1470 LINE",
"895 1458 LINE",
"678 226 LINE SMOOTH",
"662 136 OFFCURVE",
"682 30 OFFCURVE",
"772 -14 CURVE"
);
}
);
width = 1047;
},
{
anchors = (
{
name = bottom;
position = "{451, 0}";
},
{
name = top;
position = "{662, 1520}";
},
{
name = topright;
position = "{1021, 1000}";
}
);
associatedMasterId = "861B5D7F-E490-44BC-908E-F1CBF79092B0";
layerId = "E29ACB76-3B38-4143-BB51-8F71422714A3";
name = "Oct 6 20, 16:23";
paths = (
{
closed = 1;
nodes = (
"220 1020 OFFCURVE",
"47 663 OFFCURVE",
"47 345 CURVE SMOOTH",
"47 98 OFFCURVE",
"151 -30 OFFCURVE",
"310 -30 CURVE SMOOTH",
"492 -30 OFFCURVE",
"623 135 OFFCURVE",
"661 390 CURVE",
"627 493 LINE",
"565 265 OFFCURVE",
"476 222 OFFCURVE",
"435 222 CURVE SMOOTH",
"401 222 OFFCURVE",
"375 247 OFFCURVE",
"375 352 CURVE SMOOTH",
"375 495 OFFCURVE",
"423 786 OFFCURVE",
"581 786 CURVE SMOOTH",
"613 786 OFFCURVE",
"651 774 OFFCURVE",
"675 752 CURVE",
"742 978 LINE",
"705 1004 OFFCURVE",
"642 1020 OFFCURVE",
"569 1020 CURVE SMOOTH"
);
},
{
closed = 1;
nodes = (
"570 112 OFFCURVE",
"627 -3 OFFCURVE",
"809 -16 CURVE",
"859 15 OFFCURVE",
"910 75 OFFCURVE",
"930 144 CURVE",
"901 173 OFFCURVE",
"894 211 OFFCURVE",
"894 240 CURVE SMOOTH",
"894 272 OFFCURVE",
"901 322 OFFCURVE",
"906 350 CURVE SMOOTH",
"1057 1204 LINE SMOOTH",
"1067 1262 OFFCURVE",
"1077 1287 OFFCURVE",
"1077 1326 CURVE SMOOTH",
"1077 1418 OFFCURVE",
"1021 1472 OFFCURVE",
"934 1472 CURVE SMOOTH",
"798 1472 LINE",
"782 1458 LINE",
"567 244 LINE"
);
}
);
width = 1055;
},
{
anchors = (
{
name = bottom;
position = "{442, 0}";
},
{
name = top;
position = "{680, 1520}";
},
{
name = topright;
position = "{1030, 1000}";
}
);
associatedMasterId = "861B5D7F-E490-44BC-908E-F1CBF79092B0";
layerId = "A0739640-6545-4FFC-9FE9-B40B8692DF25";
name = "Nov 9 20, 20:03";
paths = (
{
closed = 1;
nodes = (
"504 -30 OFFCURVE",
"637 160 OFFCURVE",
"667 403 CURVE",
"627 482 LINE",
"550 279 OFFCURVE",
"471 230 OFFCURVE",
"428 230 CURVE SMOOTH",
"391 230 OFFCURVE",
"371 268 OFFCURVE",
"371 345 CURVE SMOOTH",
"371 487 OFFCURVE",
"432 788 OFFCURVE",
"601 788 CURVE SMOOTH",
"629 788 OFFCURVE",
"668 780 OFFCURVE",
"692 754 CURVE",
"837 921 LINE",
"782 987 OFFCURVE",
"694 1020 OFFCURVE",
"594 1020 CURVE SMOOTH",
"250 1020 OFFCURVE",
"44 654 OFFCURVE",
"44 312 CURVE SMOOTH",
"44 83 OFFCURVE",
"147 -30 OFFCURVE",
"306 -30 CURVE SMOOTH"
);
},
{
closed = 1;
nodes = (
"853 13 OFFCURVE",
"907 86 OFFCURVE",
"925 146 CURVE",
"898 171 OFFCURVE",
"890 205 OFFCURVE",
"890 237 CURVE SMOOTH",
"890 272 OFFCURVE",
"899 322 OFFCURVE",
"904 350 CURVE SMOOTH",
"1069 1204 LINE SMOOTH",
"1081 1266 OFFCURVE",
"1090 1307 OFFCURVE",
"1090 1343 CURVE SMOOTH",
"1090 1429 OFFCURVE",
"1040 1472 OFFCURVE",
"951 1472 CURVE SMOOTH",
"815 1472 LINE",
"799 1458 LINE",
"563 244 LINE",
"563 113 OFFCURVE",
"618 -3 OFFCURVE",
"800 -16 CURVE"
);
}
);
width = 1033;
},
{
anchors = (
{
name = bottom;
position = "{443, 0}";
},
{
name = top;
position = "{692, 1520}";
},
{
name = topright;
position = "{930, 980}";
}
);
associatedMasterId = "1023D002-3304-4399-867A-B886C920D2C0";
layerId = "465CC56B-AEC1-4556-908E-49CE4350103B";
name = "Nov 9 20, 20:29";
paths = (
{
closed = 1;
nodes = (
"518 -23 OFFCURVE",
"674 130 OFFCURVE",
"726 320 CURVE",
"713 429 LINE",
"639 213 OFFCURVE",
"484 99 OFFCURVE",
"376 99 CURVE SMOOTH",
"279 99 OFFCURVE",
"222 189 OFFCURVE",
"222 349 CURVE SMOOTH",
"222 578 OFFCURVE",
"339 881 OFFCURVE",
"581 881 CURVE SMOOTH",
"661 881 OFFCURVE",
"748 851 OFFCURVE",
"801 806 CURVE",
"855 902 LINE",
"793 965 OFFCURVE",
"692 997 OFFCURVE",
"596 997 CURVE SMOOTH",
"281 997 OFFCURVE",
"82 673 OFFCURVE",
"82 328 CURVE SMOOTH",
"82 101 OFFCURVE",
"179 -23 OFFCURVE",
"343 -23 CURVE SMOOTH"
);
},
{
closed = 1;
nodes = (
"776 -1 OFFCURVE",
"803 24 OFFCURVE",
"816 53 CURVE",
"795 79 OFFCURVE",
"785 115 OFFCURVE",
"785 155 CURVE SMOOTH",
"785 198 OFFCURVE",
"795 255 OFFCURVE",
"804 301 CURVE SMOOTH",
"1015 1385 LINE SMOOTH",
"1017 1395 OFFCURVE",
"1019 1406 OFFCURVE",
"1019 1417 CURVE SMOOTH",
"1019 1459 OFFCURVE",
"987 1470 OFFCURVE",
"962 1470 CURVE SMOOTH",
"905 1470 LINE",
"892 1458 LINE",
"646 191 LINE",
"645 130 OFFCURVE",
"649 36 OFFCURVE",
"743 -14 CURVE"
);
}
);
width = 997;
}
);
leftKerningGroup = a;
leftMetricsKey = a;
rightKerningGroup = d;
rightMetricsKey = "=a-3";
unicode = 0064;
},
{
color = 5;
glyphname = e;
lastChange = "2021-07-09 03:44:36 +0000";
layers = (
{
anchors = (
{
name = bottom;
position = "{406, 0}";
},
{
name = ogonek;
position = "{608, 0}";
},
{
name = top;
position = "{591, 1084}";
}
);
layerId = "861B5D7F-E490-44BC-908E-F1CBF79092B0";
paths = (
{
closed = 1;
nodes = (
"563 -30 OFFCURVE",
"725 25 OFFCURVE",
"802 92 CURVE",
"793 168 OFFCURVE",
"751 249 OFFCURVE",
"701 286 CURVE",
"641 243 OFFCURVE",
"551 215 OFFCURVE",
"481 215 CURVE SMOOTH",
"390 215 OFFCURVE",
"353 267 OFFCURVE",
"353 346 CURVE SMOOTH",
"353 390 LINE SMOOTH",
"353 584 OFFCURVE",
"439 798 OFFCURVE",
"551 798 CURVE SMOOTH",
"592 798 OFFCURVE",
"621 769 OFFCURVE",
"621 721 CURVE SMOOTH",
"621 667 OFFCURVE",
"583 627 OFFCURVE",
"508 598 CURVE SMOOTH",
"441 572 OFFCURVE",
"364 560 OFFCURVE",
"273 546 CURVE",
"292 343 LINE",
"375 351 OFFCURVE",
"534 378 OFFCURVE",
"656 424 CURVE SMOOTH",
"833 491 OFFCURVE",
"921 592 OFFCURVE",
"921 738 CURVE SMOOTH",
"921 923 OFFCURVE",
"781 1030 OFFCURVE",
"589 1030 CURVE SMOOTH",
"247 1030 OFFCURVE",
"41 692 OFFCURVE",
"41 370 CURVE SMOOTH",
"41 113 OFFCURVE",
"177 -30 OFFCURVE",
"413 -30 CURVE SMOOTH"
);
}
);
width = 924;
},
{
anchors = (
{
name = bottom;
position = "{379, 0}";
},
{
name = ogonek;
position = "{515, 0}";
},
{
name = top;
position = "{578, 1084}";
}
);
layerId = "1023D002-3304-4399-867A-B886C920D2C0";
paths = (
{
closed = 1;
nodes = (
"521 -24 OFFCURVE",
"659 31 OFFCURVE",
"731 101 CURVE",
"724 137 OFFCURVE",
"702 171 OFFCURVE",
"676 191 CURVE",
"597 131 OFFCURVE",
"500 97 OFFCURVE",
"411 98 CURVE SMOOTH",
"276 100 OFFCURVE",
"214 200 OFFCURVE",
"214 354 CURVE SMOOTH",
"214 355 LINE SMOOTH",
"214 656 OFFCURVE",
"393 896 OFFCURVE",
"574 896 CURVE SMOOTH",
"660 896 OFFCURVE",
"717 840 OFFCURVE",
"717 755 CURVE SMOOTH",
"717 671 OFFCURVE",
"659 611 OFFCURVE",
"550 569 CURVE SMOOTH",
"437 525 OFFCURVE",
"282 507 OFFCURVE",
"171 499 CURVE",
"178 387 LINE",
"341 402 OFFCURVE",
"502 431 OFFCURVE",
"621 477 CURVE SMOOTH",
"777 537 OFFCURVE",
"856 626 OFFCURVE",
"856 754 CURVE SMOOTH",
"856 904 OFFCURVE",
"747 1004 OFFCURVE",
"585 1004 CURVE SMOOTH",
"296 1004 OFFCURVE",
"75 686 OFFCURVE",
"75 347 CURVE SMOOTH",
"75 96 OFFCURVE",
"201 -24 OFFCURVE",
"393 -24 CURVE SMOOTH"
);
}
);
width = 880;
},
{
anchors = (
{
name = bottom;
position = "{406, 0}";
},
{
name = ogonek;
position = "{542, 0}";
},
{
name = top;
position = "{593, 1084}";
}
);
associatedMasterId = "1023D002-3304-4399-867A-B886C920D2C0";
layerId = "3C008628-C991-45DC-854C-CAE2A87FB39A";
name = "Sep 28 20, 17:24";
paths = (
{
closed = 1;
nodes = (
"830 448 LINE",
"856 522 OFFCURVE",
"873 613 OFFCURVE",
"873 683 CURVE SMOOTH",
"873 881 OFFCURVE",
"758 1004 OFFCURVE",
"576 1004 CURVE SMOOTH",
"279 1004 OFFCURVE",
"96 684 OFFCURVE",
"96 363 CURVE SMOOTH",
"96 99 OFFCURVE",
"219 -24 OFFCURVE",
"420 -24 CURVE SMOOTH",
"548 -24 OFFCURVE",
"683 29 OFFCURVE",
"757 93 CURVE",
"750 130 OFFCURVE",
"727 166 OFFCURVE",
"702 186 CURVE",
"632 135 OFFCURVE",
"539 99 OFFCURVE",
"449 99 CURVE SMOOTH",
"295 99 OFFCURVE",
"236 202 OFFCURVE",
"236 360 CURVE SMOOTH",
"236 370 LINE SMOOTH",
"236 584 OFFCURVE",
"347 896 OFFCURVE",
"559 896 CURVE SMOOTH",
"674 896 OFFCURVE",
"736 817 OFFCURVE",
"736 680 CURVE SMOOTH",
"736 633 OFFCURVE",
"727 588 OFFCURVE",
"717 556 CURVE",
"211 556 LINE",
"192 448 LINE"
);
}
);
width = 971;
},
{
anchors = (
{
name = bottom;
position = "{406, 0}";
},
{
name = ogonek;
position = "{542, 0}";
},
{
name = top;
position = "{593, 1084}";
}
);
associatedMasterId = "1023D002-3304-4399-867A-B886C920D2C0";
layerId = "2A083888-F3C2-4D9F-8553-EA8ADE9C6D41";
name = "Sep 28 20, 17:43";
paths = (
{
closed = 1;
nodes = (
"313 390 OFFCURVE",
"477 402 OFFCURVE",
"612 449 CURVE SMOOTH",
"783 508 OFFCURVE",
"873 609 OFFCURVE",
"873 757 CURVE SMOOTH",
"873 893 OFFCURVE",
"768 1004 OFFCURVE",
"596 1004 CURVE SMOOTH",
"336 1004 OFFCURVE",
"96 743 OFFCURVE",
"96 367 CURVE SMOOTH",
"96 98 OFFCURVE",
"219 -24 OFFCURVE",
"418 -24 CURVE SMOOTH",
"548 -24 OFFCURVE",
"683 29 OFFCURVE",
"757 93 CURVE",
"750 130 OFFCURVE",
"727 166 OFFCURVE",
"702 186 CURVE",
"632 135 OFFCURVE",
"539 99 OFFCURVE",
"449 99 CURVE SMOOTH",
"295 99 OFFCURVE",
"236 202 OFFCURVE",
"236 360 CURVE SMOOTH",
"236 370 LINE SMOOTH",
"236 645 OFFCURVE",
"386 896 OFFCURVE",
"578 896 CURVE SMOOTH",
"683 896 OFFCURVE",
"732 821 OFFCURVE",
"732 744 CURVE SMOOTH",
"732 654 OFFCURVE",
"665 586 OFFCURVE",
"554 547 CURVE SMOOTH",
"450 511 OFFCURVE",
"327 502 OFFCURVE",
"211 497 CURVE",
"198 386 LINE"
);
}
);
width = 971;
},
{
anchors = (
{
name = bottom;
position = "{406, 0}";
},
{
name = ogonek;
position = "{608, 0}";
},
{
name = top;
position = "{607, 1084}";
}
);
associatedMasterId = "861B5D7F-E490-44BC-908E-F1CBF79092B0";
layerId = "C6A340D6-4CAD-4540-B1B8-74E45DB226E4";
name = "Nov 11 20, 19:13";
paths = (
{
closed = 1;
nodes = (
"564 -30 OFFCURVE",
"710 24 OFFCURVE",
"790 89 CURVE",
"783 165 OFFCURVE",
"742 247 OFFCURVE",
"693 285 CURVE",
"633 244 OFFCURVE",
"546 215 OFFCURVE",
"481 215 CURVE SMOOTH",
"389 215 OFFCURVE",
"353 267 OFFCURVE",
"353 346 CURVE SMOOTH",
"353 390 LINE SMOOTH",
"353 584 OFFCURVE",
"439 798 OFFCURVE",
"551 798 CURVE SMOOTH",
"592 798 OFFCURVE",
"621 769 OFFCURVE",
"621 721 CURVE SMOOTH",
"621 667 OFFCURVE",
"583 627 OFFCURVE",
"508 598 CURVE SMOOTH",
"441 572 OFFCURVE",
"364 560 OFFCURVE",
"273 546 CURVE",
"292 343 LINE",
"375 351 OFFCURVE",
"534 378 OFFCURVE",
"656 424 CURVE SMOOTH",
"833 491 OFFCURVE",
"921 592 OFFCURVE",
"921 738 CURVE SMOOTH",
"921 923 OFFCURVE",
"781 1030 OFFCURVE",
"589 1030 CURVE SMOOTH",
"250 1030 OFFCURVE",
"41 696 OFFCURVE",
"41 369 CURVE SMOOTH",
"41 109 OFFCURVE",
"173 -30 OFFCURVE",
"414 -30 CURVE SMOOTH"
);
}
);
width = 921;
}
);
leftKerningGroup = o;
leftMetricsKey = o;
rightKerningGroup = e;
unicode = 0065;
},
{
color = 5;
glyphname = f;
lastChange = "2021-07-09 03:44:36 +0000";
layers = (
{
anchors = (
{
name = top;
position = "{669, 1520}";
}
);
layerId = "861B5D7F-E490-44BC-908E-F1CBF79092B0";
paths = (
{
closed = 1;
nodes = (
"285 -12 OFFCURVE",
"343 -8 OFFCURVE",
"394 0 CURVE",
"558 847 LINE",
"556 1048 OFFCURVE",
"567 1134 OFFCURVE",
"604 1184 CURVE SMOOTH",
"630 1219 OFFCURVE",
"667 1234 OFFCURVE",
"706 1234 CURVE SMOOTH",
"749 1234 OFFCURVE",
"793 1220 OFFCURVE",
"826 1206 CURVE",
"878 1249 OFFCURVE",
"924 1348 OFFCURVE",
"927 1417 CURVE",
"875 1445 OFFCURVE",
"772 1479 OFFCURVE",
"664 1479 CURVE SMOOTH",
"531 1479 OFFCURVE",
"428 1428 OFFCURVE",
"355 1333 CURVE SMOOTH",
"270 1222 OFFCURVE",
"255 1092 OFFCURVE",
"256 916 CURVE",
"79 0 LINE",
"126 -8 OFFCURVE",
"180 -12 OFFCURVE",
"232 -12 CURVE SMOOTH"
);
},
{
closed = 1;
nodes = (
"363 776 LINE",
"740 770 LINE",
"769 828 OFFCURVE",
"787 901 OFFCURVE",
"787 968 CURVE SMOOTH",
"787 983 OFFCURVE",
"786 994 OFFCURVE",
"785 1002 CURVE",
"406 996 LINE",
"113 1002 LINE",
"85 945 OFFCURVE",
"67 871 OFFCURVE",
"67 805 CURVE SMOOTH",
"67 789 OFFCURVE",
"68 778 OFFCURVE",
"68 770 CURVE"
);
}
);
width = 723;
},
{
anchors = (
{
name = top;
position = "{617, 1530}";
}
);
layerId = "1023D002-3304-4399-867A-B886C920D2C0";
paths = (
{
closed = 1;
nodes = (
"207 -6 OFFCURVE",
"231 -4 OFFCURVE",
"250 0 CURVE",
"428 916 LINE",
"432 1091 OFFCURVE",
"445 1200 OFFCURVE",
"480 1271 CURVE SMOOTH",
"511 1335 OFFCURVE",
"563 1370 OFFCURVE",
"637 1370 CURVE SMOOTH",
"681 1370 OFFCURVE",
"734 1358 OFFCURVE",
"779 1339 CURVE",
"804 1363 OFFCURVE",
"819 1403 OFFCURVE",
"821 1434 CURVE",
"772 1460 OFFCURVE",
"694 1478 OFFCURVE",
"626 1478 CURVE SMOOTH",
"511 1478 OFFCURVE",
"415 1426 OFFCURVE",
"361 1321 CURVE SMOOTH",
"311 1224 OFFCURVE",
"303 1096 OFFCURVE",
"298 946 CURVE",
"114 0 LINE",
"130 -4 OFFCURVE",
"157 -6 OFFCURVE",
"182 -6 CURVE SMOOTH"
);
},
{
closed = 1;
nodes = (
"349 878 LINE",
"680 874 LINE",
"689 893 OFFCURVE",
"697 930 OFFCURVE",
"697 957 CURVE SMOOTH",
"697 964 OFFCURVE",
"696 976 OFFCURVE",
"695 982 CURVE",
"366 978 LINE",
"134 982 LINE",
"125 963 OFFCURVE",
"117 926 OFFCURVE",
"117 899 CURVE SMOOTH",
"117 892 OFFCURVE",
"118 880 OFFCURVE",
"119 874 CURVE"
);
}
);
width = 634;
},
{
anchors = (
{
name = top;
position = "{650, 1520}";
}
);
associatedMasterId = "861B5D7F-E490-44BC-908E-F1CBF79092B0";
layerId = "3DCEB8C8-EB0A-4ACA-BFFE-A3CC3C0777B1";
name = "Oct 6 20, 14:13";
paths = (
{
closed = 1;
nodes = (
"88 1002 LINE",
"74 966 OFFCURVE",
"63 924 OFFCURVE",
"56 888 CURVE SMOOTH",
"50 852 OFFCURVE",
"46 806 OFFCURVE",
"47 770 CURVE",
"376 776 LINE",
"775 770 LINE",
"790 806 OFFCURVE",
"802 852 OFFCURVE",
"808 888 CURVE SMOOTH",
"815 924 OFFCURVE",
"818 966 OFFCURVE",
"816 1002 CURVE",
"420 998 LINE"
);
},
{
closed = 1;
nodes = (
"84 0 LINE",
"132 -8 OFFCURVE",
"187 -12 OFFCURVE",
"239 -12 CURVE SMOOTH",
"293 -12 OFFCURVE",
"352 -8 OFFCURVE",
"404 0 CURVE",
"556 862 LINE",
"558 934 OFFCURVE",
"553 1028 OFFCURVE",
"566 1102 CURVE SMOOTH",
"581 1190 OFFCURVE",
"637 1234 OFFCURVE",
"721 1234 CURVE SMOOTH",
"775 1234 OFFCURVE",
"832 1218 OFFCURVE",
"869 1208 CURVE",
"918 1252 OFFCURVE",
"966 1350 OFFCURVE",
"977 1424 CURVE",
"911 1450 OFFCURVE",
"803 1480 OFFCURVE",
"673 1480 CURVE SMOOTH",
"463 1480 OFFCURVE",
"292 1328 OFFCURVE",
"256 1126 CURVE SMOOTH",
"240 1034 OFFCURVE",
"243 950 OFFCURVE",
"236 864 CURVE"
);
}
);
width = 722;
}
);
leftKerningGroup = f;
rightKerningGroup = f;
unicode = 0066;
},
{
color = 5;
glyphname = g;
lastChange = "2021-07-09 03:44:36 +0000";
layers = (
{
anchors = (
{
name = bottom;
position = "{277, -418}";
},
{
name = top;
position = "{581, 1084}";
}
);
layerId = "1023D002-3304-4399-867A-B886C920D2C0";
paths = (
{
closed = 1;
nodes = (
"408 -442 OFFCURVE",
"531 -392 OFFCURVE",
"607 -303 CURVE SMOOTH",
"705 -188 OFFCURVE",
"733 -28 OFFCURVE",
"752 70 CURVE SMOOTH",
"875 704 LINE SMOOTH",
"894 800 OFFCURVE",
"912 861 OFFCURVE",
"971 918 CURVE",
"965 950 OFFCURVE",
"941 983 OFFCURVE",
"909 994 CURVE",
"789 953 OFFCURVE",
"767 840 OFFCURVE",
"750 754 CURVE SMOOTH",
"617 62 LINE SMOOTH",
"576 -149 OFFCURVE",
"513 -325 OFFCURVE",
"266 -325 CURVE SMOOTH",
"191 -325 OFFCURVE",
"96 -302 OFFCURVE",
"27 -262 CURVE",
"1 -285 OFFCURVE",
"-18 -328 OFFCURVE",
"-20 -373 CURVE",
"53 -413 OFFCURVE",
"160 -442 OFFCURVE",
"265 -442 CURVE SMOOTH"
);
},
{
closed = 1;
nodes = (
"511 -16 OFFCURVE",
"666 137 OFFCURVE",
"717 327 CURVE",
"708 436 LINE",
"634 220 OFFCURVE",
"478 106 OFFCURVE",
"370 106 CURVE SMOOTH",
"271 106 OFFCURVE",
"216 192 OFFCURVE",
"216 348 CURVE SMOOTH",
"216 581 OFFCURVE",
"333 887 OFFCURVE",
"576 887 CURVE SMOOTH",
"656 887 OFFCURVE",
"743 853 OFFCURVE",
"796 803 CURVE",
"850 899 LINE",
"788 968 OFFCURVE",
"687 1003 OFFCURVE",
"591 1003 CURVE SMOOTH",
"277 1003 OFFCURVE",
"78 676 OFFCURVE",
"78 328 CURVE SMOOTH",
"78 106 OFFCURVE",
"175 -16 OFFCURVE",
"338 -16 CURVE SMOOTH"
);
}
);
width = 986;
},
{
anchors = (
{
name = bottom;
position = "{419, -418}";
},
{
name = top;
position = "{733, 1084}";
}
);
layerId = "861B5D7F-E490-44BC-908E-F1CBF79092B0";
paths = (
{
closed = 1;
nodes = (
"440 -448 OFFCURVE",
"572 -395 OFFCURVE",
"667 -289 CURVE SMOOTH",
"785 -157 OFFCURVE",
"821 29 OFFCURVE",
"855 204 CURVE SMOOTH",
"950 694 LINE SMOOTH",
"961 753 OFFCURVE",
"975 793 OFFCURVE",
"1045 832 CURVE",
"1043 903 OFFCURVE",
"1012 981 OFFCURVE",
"969 1016 CURVE",
"786 1006 OFFCURVE",
"676 887 OFFCURVE",
"642 710 CURVE SMOOTH",
"517 57 LINE SMOOTH",
"482 -125 OFFCURVE",
"394 -200 OFFCURVE",
"260 -200 CURVE SMOOTH",
"179 -200 OFFCURVE",
"95 -174 OFFCURVE",
"30 -138 CURVE",
"-32 -187 OFFCURVE",
"-68 -279 OFFCURVE",
"-73 -365 CURVE",
"7 -411 OFFCURVE",
"132 -448 OFFCURVE",
"282 -448 CURVE SMOOTH"
);
},
{
closed = 1;
nodes = (
"480 -20 OFFCURVE",
"604 170 OFFCURVE",
"632 413 CURVE",
"616 492 LINE",
"539 289 OFFCURVE",
"461 240 OFFCURVE",
"417 240 CURVE SMOOTH",
"377 240 OFFCURVE",
"357 277 OFFCURVE",
"357 354 CURVE SMOOTH",
"357 495 OFFCURVE",
"418 798 OFFCURVE",
"590 798 CURVE SMOOTH",
"618 798 OFFCURVE",
"657 790 OFFCURVE",
"681 764 CURVE",
"856 931 LINE",
"794 991 OFFCURVE",
"695 1030 OFFCURVE",
"585 1030 CURVE SMOOTH",
"235 1030 OFFCURVE",
"36 648 OFFCURVE",
"36 321 CURVE SMOOTH",
"36 93 OFFCURVE",
"143 -20 OFFCURVE",
"293 -20 CURVE SMOOTH"
);
}
);
width = 1015;
},
{
anchors = (
{
name = bottom;
position = "{448, -418}";
},
{
name = top;
position = "{736, 1084}";
}
);
associatedMasterId = "861B5D7F-E490-44BC-908E-F1CBF79092B0";
layerId = "FE71F794-92A0-45E7-AC75-B7672A771BF2";
name = "Oct 8 20, 16:27";
paths = (
{
closed = 1;
nodes = (
"467 -442 OFFCURVE",
"598 -387 OFFCURVE",
"688 -292 CURVE SMOOTH",
"810 -163 OFFCURVE",
"844 24 OFFCURVE",
"876 204 CURVE SMOOTH",
"963 694 LINE SMOOTH",
"975 760 OFFCURVE",
"980 768 OFFCURVE",
"1056 832 CURVE",
"1053 903 OFFCURVE",
"1021 982 OFFCURVE",
"977 1016 CURVE",
"792 1006 OFFCURVE",
"679 888 OFFCURVE",
"648 710 CURVE SMOOTH",
"531 37 LINE SMOOTH",
"504 -119 OFFCURVE",
"419 -201 OFFCURVE",
"285 -201 CURVE SMOOTH",
"213 -201 OFFCURVE",
"122 -177 OFFCURVE",
"53 -138 CURVE",
"0 -193 OFFCURVE",
"-38 -285 OFFCURVE",
"-46 -365 CURVE",
"29 -408 OFFCURVE",
"162 -442 OFFCURVE",
"298 -442 CURVE SMOOTH"
);
},
{
closed = 1;
nodes = (
"501 -20 OFFCURVE",
"615 170 OFFCURVE",
"640 413 CURVE",
"623 522 LINE",
"550 295 OFFCURVE",
"473 240 OFFCURVE",
"427 240 CURVE SMOOTH",
"389 240 OFFCURVE",
"369 276 OFFCURVE",
"369 357 CURVE SMOOTH",
"369 489 OFFCURVE",
"422 798 OFFCURVE",
"592 798 CURVE SMOOTH",
"620 798 OFFCURVE",
"659 790 OFFCURVE",
"683 764 CURVE",
"855 931 LINE",
"792 991 OFFCURVE",
"693 1030 OFFCURVE",
"583 1030 CURVE SMOOTH",
"237 1030 OFFCURVE",
"43 642 OFFCURVE",
"43 332 CURVE SMOOTH",
"43 95 OFFCURVE",
"156 -20 OFFCURVE",
"307 -20 CURVE SMOOTH"
);
}
);
width = 1051;
},
{
anchors = (
{
name = bottom;
position = "{276, -418}";
},
{
name = top;
position = "{580, 1084}";
}
);
associatedMasterId = "1023D002-3304-4399-867A-B886C920D2C0";
layerId = "6C21AFC4-87C2-4CE9-9D36-06500D20EAE5";
name = "Nov 9 20, 20:36";
paths = (
{
closed = 1;
nodes = (
"407 -441 OFFCURVE",
"518 -398 OFFCURVE",
"601 -306 CURVE SMOOTH",
"680 -219 OFFCURVE",
"726 -58 OFFCURVE",
"751 70 CURVE SMOOTH",
"874 704 LINE SMOOTH",
"893 800 OFFCURVE",
"911 863 OFFCURVE",
"970 918 CURVE",
"964 950 OFFCURVE",
"940 983 OFFCURVE",
"908 994 CURVE",
"788 953 OFFCURVE",
"766 840 OFFCURVE",
"749 754 CURVE SMOOTH",
"617 62 LINE SMOOTH",
"580 -134 OFFCURVE",
"509 -326 OFFCURVE",
"276 -326 CURVE SMOOTH",
"200 -326 OFFCURVE",
"100 -302 OFFCURVE",
"26 -262 CURVE",
"0 -289 OFFCURVE",
"-16 -335 OFFCURVE",
"-21 -373 CURVE",
"58 -414 OFFCURVE",
"170 -441 OFFCURVE",
"270 -441 CURVE SMOOTH"
);
},
{
closed = 1;
nodes = (
"511 -16 OFFCURVE",
"667 137 OFFCURVE",
"718 327 CURVE",
"705 436 LINE",
"631 220 OFFCURVE",
"477 106 OFFCURVE",
"368 106 CURVE SMOOTH",
"272 106 OFFCURVE",
"215 196 OFFCURVE",
"215 356 CURVE SMOOTH",
"215 585 OFFCURVE",
"331 888 OFFCURVE",
"573 888 CURVE SMOOTH",
"654 888 OFFCURVE",
"740 854 OFFCURVE",
"794 803 CURVE",
"847 899 LINE",
"785 969 OFFCURVE",
"685 1004 OFFCURVE",
"588 1004 CURVE SMOOTH",
"273 1004 OFFCURVE",
"74 680 OFFCURVE",
"74 334 CURVE SMOOTH",
"74 107 OFFCURVE",
"169 -16 OFFCURVE",
"330 -16 CURVE SMOOTH"
);
}
);
width = 977;
},
{
anchors = (
{
name = bottom;
position = "{436, -418}";
},
{
name = top;
position = "{750, 1084}";
}
);
associatedMasterId = "861B5D7F-E490-44BC-908E-F1CBF79092B0";
layerId = "1B0CCCAC-0B8C-4F91-B095-260131765A85";
name = "Nov 9 20, 21:23";
paths = (
{
closed = 1;
nodes = (
"448 -442 OFFCURVE",
"582 -395 OFFCURVE",
"678 -296 CURVE SMOOTH",
"802 -168 OFFCURVE",
"839 19 OFFCURVE",
"875 204 CURVE SMOOTH",
"971 694 LINE SMOOTH",
"985 766 OFFCURVE",
"1006 797 OFFCURVE",
"1066 832 CURVE",
"1064 903 OFFCURVE",
"1033 981 OFFCURVE",
"990 1016 CURVE",
"805 1006 OFFCURVE",
"694 887 OFFCURVE",
"659 710 CURVE SMOOTH",
"533 57 LINE SMOOTH",
"498 -125 OFFCURVE",
"405 -201 OFFCURVE",
"280 -201 CURVE SMOOTH",
"202 -201 OFFCURVE",
"114 -177 OFFCURVE",
"46 -138 CURVE",
"-8 -193 OFFCURVE",
"-47 -286 OFFCURVE",
"-57 -365 CURVE",
"18 -408 OFFCURVE",
"158 -442 OFFCURVE",
"284 -442 CURVE SMOOTH"
);
},
{
closed = 1;
nodes = (
"496 -20 OFFCURVE",
"616 170 OFFCURVE",
"646 413 CURVE",
"630 492 LINE",
"553 289 OFFCURVE",
"473 240 OFFCURVE",
"427 240 CURVE SMOOTH",
"390 240 OFFCURVE",
"371 274 OFFCURVE",
"371 349 CURVE SMOOTH",
"371 484 OFFCURVE",
"431 798 OFFCURVE",
"601 798 CURVE SMOOTH",
"629 798 OFFCURVE",
"668 790 OFFCURVE",
"692 764 CURVE",
"867 931 LINE",
"805 991 OFFCURVE",
"705 1030 OFFCURVE",
"596 1030 CURVE SMOOTH",
"241 1030 OFFCURVE",
"44 638 OFFCURVE",
"44 314 CURVE SMOOTH",
"44 89 OFFCURVE",
"149 -20 OFFCURVE",
"302 -20 CURVE SMOOTH"
);
}
);
width = 1023;
}
);
leftKerningGroup = g;
leftMetricsKey = a;
rightKerningGroup = g;
unicode = 0067;
},
{
color = 5;
glyphname = h;
lastChange = "2021-07-09 03:44:36 +0000";
layers = (
{
anchors = (
{
name = bottom;
position = "{531, 0}";
},
{
name = top;
position = "{548, 1084}";
}
);
layerId = "861B5D7F-E490-44BC-908E-F1CBF79092B0";
paths = (
{
closed = 1;
nodes = (
"221 -12 OFFCURVE",
"286 -9 OFFCURVE",
"328 0 CURVE",
"561 1198 LINE SMOOTH",
"572 1256 OFFCURVE",
"581 1304 OFFCURVE",
"581 1339 CURVE SMOOTH",
"581 1429 OFFCURVE",
"533 1472 OFFCURVE",
"433 1472 CURVE SMOOTH",
"313 1472 LINE",
"296 1458 LINE",
"13 0 LINE",
"44 -7 OFFCURVE",
"103 -12 OFFCURVE",
"171 -12 CURVE SMOOTH"
);
},
{
closed = 1;
nodes = (
"786 -16 OFFCURVE",
"865 13 OFFCURVE",
"915 54 CURVE",
"893 80 OFFCURVE",
"884 139 OFFCURVE",
"884 178 CURVE SMOOTH",
"884 303 OFFCURVE",
"978 595 OFFCURVE",
"978 763 CURVE SMOOTH",
"978 929 OFFCURVE",
"886 1018 OFFCURVE",
"752 1018 CURVE SMOOTH",
"618 1018 OFFCURVE",
"503 925 OFFCURVE",
"413 771 CURVE",
"395 487 LINE",
"433 630 OFFCURVE",
"528 724 OFFCURVE",
"597 724 CURVE SMOOTH",
"634 724 OFFCURVE",
"649 698 OFFCURVE",
"649 663 CURVE SMOOTH",
"649 573 OFFCURVE",
"559 254 OFFCURVE",
"559 129 CURVE SMOOTH",
"559 58 OFFCURVE",
"589 -16 OFFCURVE",
"711 -16 CURVE SMOOTH"
);
}
);
width = 1042;
},
{
anchors = (
{
name = bottom;
position = "{423, 0}";
},
{
name = top;
position = "{635, 1084}";
}
);
layerId = "1023D002-3304-4399-867A-B886C920D2C0";
paths = (
{
closed = 1;
nodes = (
"163 -6 OFFCURVE",
"187 -4 OFFCURVE",
"206 0 CURVE",
"473 1375 LINE SMOOTH",
"476 1391 OFFCURVE",
"479 1406 OFFCURVE",
"479 1417 CURVE SMOOTH",
"479 1459 OFFCURVE",
"447 1470 OFFCURVE",
"422 1470 CURVE SMOOTH",
"367 1470 LINE",
"353 1458 LINE",
"70 0 LINE",
"86 -4 OFFCURVE",
"113 -6 OFFCURVE",
"138 -6 CURVE SMOOTH"
);
},
{
closed = 1;
nodes = (
"751 -14 OFFCURVE",
"788 2 OFFCURVE",
"806 19 CURVE",
"798 44 OFFCURVE",
"795 71 OFFCURVE",
"795 95 CURVE SMOOTH",
"795 230 OFFCURVE",
"908 609 OFFCURVE",
"908 772 CURVE SMOOTH",
"908 899 OFFCURVE",
"834 998 OFFCURVE",
"687 998 CURVE SMOOTH",
"552 998 OFFCURVE",
"409 913 OFFCURVE",
"333 780 CURVE",
"308 603 LINE",
"364 740 OFFCURVE",
"513 874 OFFCURVE",
"647 874 CURVE SMOOTH",
"741 874 OFFCURVE",
"766 810 OFFCURVE",
"766 748 CURVE SMOOTH",
"766 612 OFFCURVE",
"650 172 OFFCURVE",
"650 55 CURVE SMOOTH",
"650 19 OFFCURVE",
"663 -14 OFFCURVE",
"716 -14 CURVE SMOOTH"
);
}
);
width = 1019;
}
);
leftKerningGroup = h;
leftMetricsKey = n;
rightKerningGroup = n;
rightMetricsKey = n;
unicode = 0068;
},
{
color = 5;
glyphname = k;
lastChange = "2021-07-09 03:44:36 +0000";
layers = (
{
anchors = (
{
name = bottom;
position = "{468, 0}";
},
{
name = top;
position = "{678, 1084}";
}
);
layerId = "861B5D7F-E490-44BC-908E-F1CBF79092B0";
paths = (
{
closed = 1;
nodes = (
"791 -17 OFFCURVE",
"881 17 OFFCURVE",
"925 75 CURVE",
"876 117 OFFCURVE",
"874 155 OFFCURVE",
"857 247 CURVE SMOOTH",
"832 381 LINE SMOOTH",
"801 547 OFFCURVE",
"693 577 OFFCURVE",
"583 577 CURVE SMOOTH",
"263 577 LINE",
"221 385 LINE",
"304 395 LINE SMOOTH",
"346 400 OFFCURVE",
"377 404 OFFCURVE",
"417 404 CURVE SMOOTH",
"508 404 OFFCURVE",
"520 378 OFFCURVE",
"533 303 CURVE SMOOTH",
"560 145 LINE SMOOTH",
"574 64 OFFCURVE",
"595 -17 OFFCURVE",
"714 -17 CURVE SMOOTH"
);
},
{
closed = 1;
nodes = (
"556 529 LINE SMOOTH",
"744 529 OFFCURVE",
"802 600 OFFCURVE",
"862 696 CURVE SMOOTH",
"1045 986 LINE",
"1036 1004 LINE",
"942 1007 OFFCURVE",
"894 1008 OFFCURVE",
"877 1008 CURVE SMOOTH",
"716 1008 OFFCURVE",
"676 940 OFFCURVE",
"647 890 CURVE SMOOTH",
"540 707 LINE SMOOTH",
"523 678 OFFCURVE",
"512 671 OFFCURVE",
"484 671 CURVE SMOOTH",
"321 669 LINE",
"292 529 LINE"
);
},
{
closed = 1;
nodes = (
"221 -12 OFFCURVE",
"286 -9 OFFCURVE",
"328 0 CURVE",
"561 1198 LINE SMOOTH",
"572 1256 OFFCURVE",
"581 1304 OFFCURVE",
"581 1339 CURVE SMOOTH",
"581 1429 OFFCURVE",
"533 1472 OFFCURVE",
"433 1472 CURVE SMOOTH",
"313 1472 LINE",
"296 1458 LINE",
"13 0 LINE",
"44 -7 OFFCURVE",
"103 -12 OFFCURVE",
"171 -12 CURVE SMOOTH"
);
}
);
width = 1006;
},
{
anchors = (
{
name = bottom;
position = "{386, 0}";
},
{
name = top;
position = "{596, 1084}";
}
);
layerId = "1023D002-3304-4399-867A-B886C920D2C0";
paths = (
{
closed = 1;
nodes = (
"738 -12 OFFCURVE",
"775 9 OFFCURVE",
"794 32 CURVE",
"764 61 OFFCURVE",
"742 115 OFFCURVE",
"722 187 CURVE SMOOTH",
"672 371 LINE SMOOTH",
"631 520 OFFCURVE",
"585 561 OFFCURVE",
"468 561 CURVE SMOOTH",
"253 561 LINE",
"232 453 LINE",
"293 459 LINE SMOOTH",
"334 463 OFFCURVE",
"371 465 OFFCURVE",
"396 465 CURVE SMOOTH",
"496 465 OFFCURVE",
"522 415 OFFCURVE",
"550 315 CURVE SMOOTH",
"612 90 LINE SMOOTH",
"627 35 OFFCURVE",
"633 -12 OFFCURVE",
"697 -12 CURVE SMOOTH"
);
},
{
closed = 1;
nodes = (
"442 529 LINE SMOOTH",
"521 529 OFFCURVE",
"559 555 OFFCURVE",
"600 601 CURVE SMOOTH",
"927 968 LINE",
"919 984 LINE",
"895 986 OFFCURVE",
"850 986 OFFCURVE",
"826 986 CURVE SMOOTH",
"769 986 OFFCURVE",
"747 954 OFFCURVE",
"714 916 CURVE SMOOTH",
"447 607 LINE SMOOTH",
"433 591 OFFCURVE",
"418 582 OFFCURVE",
"403 581 CURVE SMOOTH",
"274 573 LINE",
"262 529 LINE"
);
},
{
closed = 1;
nodes = (
"163 -6 OFFCURVE",
"187 -4 OFFCURVE",
"206 0 CURVE",
"473 1375 LINE SMOOTH",
"476 1391 OFFCURVE",
"479 1406 OFFCURVE",
"479 1417 CURVE SMOOTH",
"479 1459 OFFCURVE",
"447 1470 OFFCURVE",
"422 1470 CURVE SMOOTH",
"367 1470 LINE",
"353 1458 LINE",
"70 0 LINE",
"86 -4 OFFCURVE",
"113 -6 OFFCURVE",
"138 -6 CURVE SMOOTH"
);
}
);
width = 907;
}
);
leftKerningGroup = h;
leftMetricsKey = n;
rightKerningGroup = k;
unicode = 006B;
},
{
color = 5;
glyphname = l;
lastChange = "2021-07-09 03:44:36 +0000";
layers = (
{
anchors = (
{
name = bottom;
position = "{261, 0}";
},
{
name = periodcentered;
position = "{686, 786}";
},
{
name = top;
position = "{464, 1542}";
},
{
name = topright;
position = "{527, 1000}";
}
);
layerId = "861B5D7F-E490-44BC-908E-F1CBF79092B0";
paths = (
{
closed = 1;
nodes = (
"361 -9 OFFCURVE",
"423 -3 OFFCURVE",
"500 11 CURVE",
"512 43 OFFCURVE",
"516 95 OFFCURVE",
"516 124 CURVE SMOOTH",
"516 165 OFFCURVE",
"511 211 OFFCURVE",
"502 242 CURVE",
"487 240 OFFCURVE",
"469 239 OFFCURVE",
"453 239 CURVE SMOOTH",
"428 239 OFFCURVE",
"384 239 OFFCURVE",
"384 298 CURVE SMOOTH",
"384 310 OFFCURVE",
"386 333 OFFCURVE",
"392 364 CURVE SMOOTH",
"555 1204 LINE SMOOTH",
"566 1262 OFFCURVE",
"574 1293 OFFCURVE",
"574 1344 CURVE SMOOTH",
"574 1429 OFFCURVE",
"523 1472 OFFCURVE",
"435 1472 CURVE SMOOTH",
"305 1472 LINE",
"288 1458 LINE",
"81 383 LINE SMOOTH",
"70 326 OFFCURVE",
"58 257 OFFCURVE",
"58 210 CURVE SMOOTH",
"58 61 OFFCURVE",
"141 -9 OFFCURVE",
"288 -9 CURVE SMOOTH"
);
}
);
width = 606;
},
{
anchors = (
{
name = bottom;
position = "{218, 0}";
},
{
name = periodcentered;
position = "{581, 786}";
},
{
name = top;
position = "{440, 1564}";
},
{
name = topright;
position = "{393, 980}";
}
);
layerId = "1023D002-3304-4399-867A-B886C920D2C0";
paths = (
{
closed = 1;
nodes = (
"291 -6 OFFCURVE",
"342 0 OFFCURVE",
"375 8 CURVE",
"378 20 OFFCURVE",
"380 35 OFFCURVE",
"380 53 CURVE SMOOTH",
"380 71 OFFCURVE",
"376 97 OFFCURVE",
"370 113 CURVE",
"356 111 OFFCURVE",
"327 108 OFFCURVE",
"305 108 CURVE SMOOTH",
"261 108 OFFCURVE",
"238 120 OFFCURVE",
"238 165 CURVE SMOOTH",
"238 188 OFFCURVE",
"244 219 OFFCURVE",
"246 229 CURVE SMOOTH",
"469 1375 LINE SMOOTH",
"472 1391 OFFCURVE",
"475 1406 OFFCURVE",
"475 1417 CURVE SMOOTH",
"475 1459 OFFCURVE",
"443 1470 OFFCURVE",
"418 1470 CURVE SMOOTH",
"363 1470 LINE",
"349 1458 LINE",
"111 232 LINE SMOOTH",
"105 201 OFFCURVE",
"97 160 OFFCURVE",
"97 124 CURVE SMOOTH",
"97 36 OFFCURVE",
"146 -6 OFFCURVE",
"249 -6 CURVE SMOOTH"
);
}
);
width = 515;
},
{
anchors = (
{
name = bottom;
position = "{215, 0}";
},
{
name = periodcentered;
position = "{578, 786}";
},
{
name = top;
position = "{437, 1564}";
},
{
name = topright;
position = "{390, 980}";
}
);
associatedMasterId = "1023D002-3304-4399-867A-B886C920D2C0";
layerId = "97DCD85A-F519-41B5-8EBE-691CD9798E55";
name = "Nov 10 20, 02:53";
paths = (
{
closed = 1;
nodes = (
"356 112 OFFCURVE",
"322 109 OFFCURVE",
"300 109 CURVE SMOOTH",
"259 109 OFFCURVE",
"235 119 OFFCURVE",
"235 164 CURVE SMOOTH",
"235 177 OFFCURVE",
"237 198 OFFCURVE",
"243 229 CURVE SMOOTH",
"466 1375 LINE SMOOTH",
"469 1391 OFFCURVE",
"472 1406 OFFCURVE",
"472 1417 CURVE SMOOTH",
"472 1459 OFFCURVE",
"440 1470 OFFCURVE",
"415 1470 CURVE SMOOTH",
"360 1470 LINE",
"346 1458 LINE",
"108 232 LINE SMOOTH",
"102 201 OFFCURVE",
"94 155 OFFCURVE",
"94 119 CURVE SMOOTH",
"94 36 OFFCURVE",
"142 -6 OFFCURVE",
"241 -6 CURVE SMOOTH",
"271 -6 OFFCURVE",
"319 -2 OFFCURVE",
"361 7 CURVE",
"368 26 OFFCURVE",
"372 46 OFFCURVE",
"373 65 CURVE SMOOTH",
"374 81 OFFCURVE",
"373 104 OFFCURVE",
"370 114 CURVE"
);
}
);
width = 512;
}
);
leftKerningGroup = l;
rightKerningGroup = l;
unicode = 006C;
},
{
color = 5;
glyphname = m;
lastChange = "2021-07-09 03:44:36 +0000";
layers = (
{
anchors = (
{
name = bottom;
position = "{663, 0}";
},
{
name = top;
position = "{855, 1084}";
}
);
layerId = "861B5D7F-E490-44BC-908E-F1CBF79092B0";
paths = (
{
closed = 1;
nodes = (
"218 -12 OFFCURVE",
"283 -9 OFFCURVE",
"326 0 CURVE",
"467 726 LINE SMOOTH",
"472 751 OFFCURVE",
"484 827 OFFCURVE",
"484 856 CURVE SMOOTH",
"484 958 OFFCURVE",
"431 1014 OFFCURVE",
"338 1014 CURVE SMOOTH",
"224 1014 LINE",
"207 1000 LINE",
"14 0 LINE",
"44 -7 OFFCURVE",
"101 -12 OFFCURVE",
"168 -12 CURVE SMOOTH"
);
},
{
closed = 1;
nodes = (
"716 -12 OFFCURVE",
"773 -8 OFFCURVE",
"819 0 CURVE",
"939 620 LINE SMOOTH",
"944 648 OFFCURVE",
"953 697 OFFCURVE",
"953 755 CURVE SMOOTH",
"953 920 OFFCURVE",
"875 1018 OFFCURVE",
"743 1018 CURVE SMOOTH",
"618 1018 OFFCURVE",
"499 931 OFFCURVE",
"407 774 CURVE",
"389 490 LINE",
"423 624 OFFCURVE",
"509 724 OFFCURVE",
"576 724 CURVE SMOOTH",
"609 724 OFFCURVE",
"628 700 OFFCURVE",
"628 658 CURVE SMOOTH",
"628 642 OFFCURVE",
"625 613 OFFCURVE",
"622 598 CURVE SMOOTH",
"507 0 LINE",
"551 -8 OFFCURVE",
"610 -12 OFFCURVE",
"662 -12 CURVE SMOOTH"
);
},
{
closed = 1;
nodes = (
"1259 -16 OFFCURVE",
"1338 13 OFFCURVE",
"1386 54 CURVE",
"1364 83 OFFCURVE",
"1355 138 OFFCURVE",
"1355 180 CURVE SMOOTH",
"1355 314 OFFCURVE",
"1452 601 OFFCURVE",
"1449 764 CURVE SMOOTH",
"1449 909 OFFCURVE",
"1371 1018 OFFCURVE",
"1231 1018 CURVE SMOOTH",
"1107 1018 OFFCURVE",
"980 933 OFFCURVE",
"896 798 CURVE",
"883 502 LINE",
"914 615 OFFCURVE",
"1000 724 OFFCURVE",
"1070 724 CURVE SMOOTH",
"1110 724 OFFCURVE",
"1124 692 OFFCURVE",
"1124 660 CURVE SMOOTH",
"1124 570 OFFCURVE",
"1034 254 OFFCURVE",
"1034 129 CURVE SMOOTH",
"1034 59 OFFCURVE",
"1063 -16 OFFCURVE",
"1183 -16 CURVE SMOOTH"
);
}
);
width = 1513;
},
{
anchors = (
{
name = bottom;
position = "{634, 0}";
},
{
name = top;
position = "{839, 1084}";
}
);
layerId = "1023D002-3304-4399-867A-B886C920D2C0";
paths = (
{
closed = 1;
nodes = (
"163 -6 OFFCURVE",
"187 -4 OFFCURVE",
"206 0 CURVE",
"381 901 LINE SMOOTH",
"383 912 OFFCURVE",
"384 921 OFFCURVE",
"384 933 CURVE SMOOTH",
"384 975 OFFCURVE",
"354 986 OFFCURVE",
"328 986 CURVE SMOOTH",
"272 986 LINE",
"259 974 LINE",
"70 0 LINE",
"86 -4 OFFCURVE",
"113 -6 OFFCURVE",
"138 -6 CURVE SMOOTH"
);
},
{
closed = 1;
nodes = (
"664 -6 OFFCURVE",
"688 -4 OFFCURVE",
"707 0 CURVE",
"839 678 LINE SMOOTH",
"845 708 OFFCURVE",
"848 743 OFFCURVE",
"848 773 CURVE SMOOTH",
"848 914 OFFCURVE",
"774 998 OFFCURVE",
"651 998 CURVE SMOOTH",
"514 998 OFFCURVE",
"386 894 OFFCURVE",
"313 747 CURVE",
"288 573 LINE",
"364 764 OFFCURVE",
"503 874 OFFCURVE",
"607 874 CURVE SMOOTH",
"685 874 OFFCURVE",
"707 817 OFFCURVE",
"707 748 CURVE SMOOTH",
"707 697 OFFCURVE",
"696 645 OFFCURVE",
"688 602 CURVE SMOOTH",
"571 0 LINE",
"587 -4 OFFCURVE",
"614 -6 OFFCURVE",
"639 -6 CURVE SMOOTH"
);
},
{
closed = 1;
nodes = (
"1195 -14 OFFCURVE",
"1230 2 OFFCURVE",
"1248 19 CURVE",
"1240 44 OFFCURVE",
"1237 71 OFFCURVE",
"1237 95 CURVE SMOOTH",
"1238 230 OFFCURVE",
"1350 611 OFFCURVE",
"1350 775 CURVE SMOOTH",
"1350 915 OFFCURVE",
"1279 998 OFFCURVE",
"1151 998 CURVE SMOOTH",
"1029 998 OFFCURVE",
"896 923 OFFCURVE",
"808 774 CURVE",
"792 584 LINE",
"870 775 OFFCURVE",
"1004 874 OFFCURVE",
"1108 874 CURVE SMOOTH",
"1188 874 OFFCURVE",
"1209 818 OFFCURVE",
"1209 750 CURVE SMOOTH",
"1209 612 OFFCURVE",
"1093 172 OFFCURVE",
"1093 55 CURVE SMOOTH",
"1093 19 OFFCURVE",
"1106 -14 OFFCURVE",
"1158 -14 CURVE SMOOTH"
);
}
);
width = 1461;
}
);
leftKerningGroup = n;
leftMetricsKey = n;
rightKerningGroup = n;
rightMetricsKey = n;
unicode = 006D;
},
{
color = 5;
glyphname = n;
lastChange = "2021-07-09 03:44:36 +0000";
layers = (
{
anchors = (
{
name = bottom;
position = "{535, 0}";
},
{
name = top;
position = "{616, 1084}";
}
);
layerId = "861B5D7F-E490-44BC-908E-F1CBF79092B0";
paths = (
{
closed = 1;
nodes = (
"787 -16 OFFCURVE",
"866 13 OFFCURVE",
"916 54 CURVE",
"894 80 OFFCURVE",
"885 139 OFFCURVE",
"885 178 CURVE SMOOTH",
"885 303 OFFCURVE",
"979 595 OFFCURVE",
"979 763 CURVE SMOOTH",
"979 929 OFFCURVE",
"887 1018 OFFCURVE",
"753 1018 CURVE SMOOTH",
"619 1018 OFFCURVE",
"504 925 OFFCURVE",
"414 771 CURVE",
"396 487 LINE",
"434 630 OFFCURVE",
"529 724 OFFCURVE",
"598 724 CURVE SMOOTH",
"635 724 OFFCURVE",
"650 698 OFFCURVE",
"650 663 CURVE SMOOTH",
"650 573 OFFCURVE",
"560 254 OFFCURVE",
"560 129 CURVE SMOOTH",
"560 58 OFFCURVE",
"590 -16 OFFCURVE",
"712 -16 CURVE SMOOTH"
);
},
{
closed = 1;
nodes = (
"221 -12 OFFCURVE",
"288 -9 OFFCURVE",
"329 0 CURVE",
"470 726 LINE SMOOTH",
"481 783 OFFCURVE",
"487 827 OFFCURVE",
"487 853 CURVE SMOOTH",
"487 955 OFFCURVE",
"437 1014 OFFCURVE",
"337 1014 CURVE SMOOTH",
"224 1014 LINE",
"207 1000 LINE",
"14 0 LINE",
"44 -7 OFFCURVE",
"104 -12 OFFCURVE",
"171 -12 CURVE SMOOTH"
);
}
);
width = 1043;
},
{
anchors = (
{
name = bottom;
position = "{423, 0}";
},
{
name = top;
position = "{616, 1084}";
}
);
layerId = "1023D002-3304-4399-867A-B886C920D2C0";
paths = (
{
closed = 1;
nodes = (
"751 -14 OFFCURVE",
"788 2 OFFCURVE",
"806 19 CURVE",
"798 44 OFFCURVE",
"795 71 OFFCURVE",
"795 95 CURVE SMOOTH",
"795 230 OFFCURVE",
"908 609 OFFCURVE",
"908 772 CURVE SMOOTH",
"908 899 OFFCURVE",
"834 998 OFFCURVE",
"687 998 CURVE SMOOTH",
"552 998 OFFCURVE",
"409 913 OFFCURVE",
"333 780 CURVE",
"308 603 LINE",
"364 740 OFFCURVE",
"513 874 OFFCURVE",
"647 874 CURVE SMOOTH",
"741 874 OFFCURVE",
"766 810 OFFCURVE",
"766 748 CURVE SMOOTH",
"766 612 OFFCURVE",
"650 172 OFFCURVE",
"650 55 CURVE SMOOTH",
"650 19 OFFCURVE",
"663 -14 OFFCURVE",
"715 -14 CURVE SMOOTH"
);
},
{
closed = 1;
nodes = (
"163 -6 OFFCURVE",
"187 -4 OFFCURVE",
"206 0 CURVE",
"381 901 LINE SMOOTH",
"383 912 OFFCURVE",
"384 921 OFFCURVE",
"384 933 CURVE SMOOTH",
"384 975 OFFCURVE",
"353 986 OFFCURVE",
"327 986 CURVE SMOOTH",
"272 986 LINE",
"259 974 LINE",
"70 0 LINE",
"86 -4 OFFCURVE",
"113 -6 OFFCURVE",
"138 -6 CURVE SMOOTH"
);
}
);
width = 1019;
}
);
leftKerningGroup = n;
rightKerningGroup = n;
unicode = 006E;
},
{
color = 5;
glyphname = o;
lastChange = "2021-07-09 03:44:36 +0000";
layers = (
{
anchors = (
{
name = bottom;
position = "{401, 0}";
},
{
name = ogonek;
position = "{583, 0}";
},
{
name = top;
position = "{611, 1084}";
},
{
name = topright;
position = "{937, 970}";
}
);
layerId = "861B5D7F-E490-44BC-908E-F1CBF79092B0";
paths = (
{
closed = 1;
nodes = (
"766 -30 OFFCURVE",
"956 324 OFFCURVE",
"956 645 CURVE SMOOTH",
"956 897 OFFCURVE",
"810 1030 OFFCURVE",
"591 1030 CURVE SMOOTH",
"229 1030 OFFCURVE",
"39 674 OFFCURVE",
"39 355 CURVE SMOOTH",
"39 103 OFFCURVE",
"185 -30 OFFCURVE",
"404 -30 CURVE SMOOTH"
);
},
{
closed = 1;
nodes = (
"388 210 OFFCURVE",
"359 254 OFFCURVE",
"359 343 CURVE SMOOTH",
"359 459 OFFCURVE",
"417 790 OFFCURVE",
"552 790 CURVE SMOOTH",
"606 790 OFFCURVE",
"636 747 OFFCURVE",
"636 657 CURVE SMOOTH",
"636 540 OFFCURVE",
"577 210 OFFCURVE",
"442 210 CURVE SMOOTH"
);
}
);
width = 995;
},
{
anchors = (
{
name = bottom;
position = "{385, 0}";
},
{
name = ogonek;
position = "{514, 0}";
},
{
name = top;
position = "{595, 1084}";
},
{
name = topright;
position = "{800, 960}";
}
);
layerId = "1023D002-3304-4399-867A-B886C920D2C0";
paths = (
{
closed = 1;
nodes = (
"714 -24 OFFCURVE",
"886 342 OFFCURVE",
"886 634 CURVE SMOOTH",
"886 889 OFFCURVE",
"748 1004 OFFCURVE",
"567 1004 CURVE SMOOTH",
"246 1004 OFFCURVE",
"75 637 OFFCURVE",
"75 346 CURVE SMOOTH",
"75 91 OFFCURVE",
"213 -24 OFFCURVE",
"393 -24 CURVE SMOOTH"
);
},
{
closed = 1;
nodes = (
"283 85 OFFCURVE",
"214 184 OFFCURVE",
"214 353 CURVE SMOOTH",
"214 575 OFFCURVE",
"330 895 OFFCURVE",
"553 895 CURVE SMOOTH",
"679 895 OFFCURVE",
"747 794 OFFCURVE",
"747 627 CURVE SMOOTH",
"747 406 OFFCURVE",
"631 85 OFFCURVE",
"407 85 CURVE SMOOTH"
);
}
);
width = 961;
}
);
leftKerningGroup = o;
rightKerningGroup = o;
rightMetricsKey = "=|";
unicode = 006F;
},
{
color = 5;
glyphname = p;
lastChange = "2021-07-09 03:44:36 +0000";
layers = (
{
anchors = (
{
name = top;
position = "{626, 1084}";
}
);
layerId = "861B5D7F-E490-44BC-908E-F1CBF79092B0";
paths = (
{
closed = 1;
nodes = (
"781 -21 OFFCURVE",
"991 341 OFFCURVE",
"991 688 CURVE SMOOTH",
"991 910 OFFCURVE",
"894 1029 OFFCURVE",
"730 1029 CURVE SMOOTH",
"535 1029 OFFCURVE",
"399 839 OFFCURVE",
"369 596 CURVE",
"409 517 LINE",
"486 720 OFFCURVE",
"566 769 OFFCURVE",
"609 769 CURVE SMOOTH",
"651 769 OFFCURVE",
"670 732 OFFCURVE",
"670 655 CURVE SMOOTH",
"670 512 OFFCURVE",
"604 211 OFFCURVE",
"435 211 CURVE SMOOTH",
"408 211 OFFCURVE",
"368 219 OFFCURVE",
"345 245 CURVE",
"200 78 LINE",
"254 13 OFFCURVE",
"339 -21 OFFCURVE",
"442 -21 CURVE SMOOTH"
);
},
{
closed = 1;
nodes = (
"76 -432 LINE SMOOTH",
"199 -432 OFFCURVE",
"254 -379 OFFCURVE",
"278 -257 CURVE SMOOTH",
"467 715 LINE SMOOTH",
"475 757 OFFCURVE",
"480 799 OFFCURVE",
"480 835 CURVE SMOOTH",
"480 941 OFFCURVE",
"424 1014 OFFCURVE",
"293 1014 CURVE SMOOTH",
"223 1014 LINE",
"207 1000 LINE",
"-68 -418 LINE",
"-56 -432 LINE"
);
}
);
width = 1023;
},
{
anchors = (
{
name = top;
position = "{584, 1084}";
}
);
layerId = "1023D002-3304-4399-867A-B886C920D2C0";
paths = (
{
closed = 1;
nodes = (
"731 -16 OFFCURVE",
"921 317 OFFCURVE",
"921 646 CURVE SMOOTH",
"921 881 OFFCURVE",
"824 1004 OFFCURVE",
"666 1004 CURVE SMOOTH",
"489 1004 OFFCURVE",
"331 851 OFFCURVE",
"280 661 CURVE",
"293 552 LINE",
"367 770 OFFCURVE",
"523 882 OFFCURVE",
"630 882 CURVE SMOOTH",
"724 882 OFFCURVE",
"783 798 OFFCURVE",
"783 635 CURVE SMOOTH",
"783 401 OFFCURVE",
"661 100 OFFCURVE",
"422 100 CURVE SMOOTH",
"342 100 OFFCURVE",
"256 133 OFFCURVE",
"204 181 CURVE",
"151 84 LINE",
"213 18 OFFCURVE",
"312 -16 OFFCURVE",
"413 -16 CURVE SMOOTH"
);
},
{
closed = 1;
nodes = (
"50 -430 LINE SMOOTH",
"114 -430 OFFCURVE",
"129 -396 OFFCURVE",
"141 -334 CURVE SMOOTH",
"381 901 LINE SMOOTH",
"383 911 OFFCURVE",
"385 923 OFFCURVE",
"385 933 CURVE SMOOTH",
"385 975 OFFCURVE",
"353 986 OFFCURVE",
"328 986 CURVE SMOOTH",
"273 986 LINE",
"259 974 LINE",
"-11 -418 LINE",
"-1 -430 LINE"
);
}
);
width = 995;
}
);
leftKerningGroup = p;
leftMetricsKey = n;
rightKerningGroup = o;
rightMetricsKey = o;
unicode = 0070;
},
{
color = 5;
glyphname = q;
lastChange = "2021-07-09 03:44:36 +0000";
layers = (
{
layerId = "861B5D7F-E490-44BC-908E-F1CBF79092B0";
paths = (
{
closed = 1;
nodes = (
"719 -432 LINE",
"736 -418 LINE",
"952 694 LINE SMOOTH",
"965 761 OFFCURVE",
"981 793 OFFCURVE",
"1047 832 CURVE",
"1045 903 OFFCURVE",
"1014 981 OFFCURVE",
"971 1016 CURVE",
"788 1006 OFFCURVE",
"677 887 OFFCURVE",
"642 710 CURVE SMOOTH",
"471 -161 LINE SMOOTH",
"460 -219 OFFCURVE",
"451 -264 OFFCURVE",
"451 -299 CURVE SMOOTH",
"451 -389 OFFCURVE",
"499 -432 OFFCURVE",
"599 -432 CURVE SMOOTH"
);
},
{
closed = 1;
nodes = (
"486 -20 OFFCURVE",
"613 170 OFFCURVE",
"642 413 CURVE",
"616 492 LINE",
"539 289 OFFCURVE",
"461 240 OFFCURVE",
"417 240 CURVE SMOOTH",
"377 240 OFFCURVE",
"357 277 OFFCURVE",
"357 354 CURVE SMOOTH",
"357 495 OFFCURVE",
"418 798 OFFCURVE",
"590 798 CURVE SMOOTH",
"618 798 OFFCURVE",
"657 790 OFFCURVE",
"681 764 CURVE",
"856 931 LINE",
"794 991 OFFCURVE",
"695 1030 OFFCURVE",
"585 1030 CURVE SMOOTH",
"235 1030 OFFCURVE",
"36 648 OFFCURVE",
"36 321 CURVE SMOOTH",
"36 87 OFFCURVE",
"143 -20 OFFCURVE",
"293 -20 CURVE SMOOTH"
);
}
);
width = 1017;
},
{
layerId = "1023D002-3304-4399-867A-B886C920D2C0";
paths = (
{
closed = 1;
nodes = (
"644 -430 LINE",
"658 -418 LINE",
"876 704 LINE SMOOTH",
"895 800 OFFCURVE",
"913 863 OFFCURVE",
"972 918 CURVE",
"966 950 OFFCURVE",
"942 983 OFFCURVE",
"910 994 CURVE",
"790 953 OFFCURVE",
"767 840 OFFCURVE",
"750 754 CURVE SMOOTH",
"538 -335 LINE SMOOTH",
"535 -351 OFFCURVE",
"532 -366 OFFCURVE",
"532 -377 CURVE SMOOTH",
"532 -419 OFFCURVE",
"564 -430 OFFCURVE",
"589 -430 CURVE SMOOTH"
);
},
{
closed = 1;
nodes = (
"512 -16 OFFCURVE",
"669 137 OFFCURVE",
"711 327 CURVE",
"708 436 LINE",
"634 220 OFFCURVE",
"478 106 OFFCURVE",
"370 106 CURVE SMOOTH",
"271 106 OFFCURVE",
"216 192 OFFCURVE",
"216 348 CURVE SMOOTH",
"216 581 OFFCURVE",
"333 887 OFFCURVE",
"576 887 CURVE SMOOTH",
"656 887 OFFCURVE",
"743 853 OFFCURVE",
"796 803 CURVE",
"850 899 LINE",
"788 968 OFFCURVE",
"687 1003 OFFCURVE",
"591 1003 CURVE SMOOTH",
"277 1003 OFFCURVE",
"78 676 OFFCURVE",
"78 328 CURVE SMOOTH",
"78 106 OFFCURVE",
"174 -16 OFFCURVE",
"337 -16 CURVE SMOOTH"
);
}
);
width = 987;
},
{
associatedMasterId = "861B5D7F-E490-44BC-908E-F1CBF79092B0";
layerId = "B8BD7A2F-3A9A-488F-BDC6-4710C50A98CC";
name = "Nov 9 20, 22:24";
paths = (
{
closed = 1;
nodes = (
"496 -20 OFFCURVE",
"623 170 OFFCURVE",
"653 413 CURVE",
"627 492 LINE",
"550 288 OFFCURVE",
"472 240 OFFCURVE",
"427 240 CURVE SMOOTH",
"390 240 OFFCURVE",
"371 274 OFFCURVE",
"371 349 CURVE SMOOTH",
"371 484 OFFCURVE",
"431 798 OFFCURVE",
"601 798 CURVE SMOOTH",
"629 798 OFFCURVE",
"668 790 OFFCURVE",
"692 764 CURVE",
"867 931 LINE",
"805 991 OFFCURVE",
"705 1030 OFFCURVE",
"596 1030 CURVE SMOOTH",
"241 1030 OFFCURVE",
"44 638 OFFCURVE",
"44 314 CURVE SMOOTH",
"44 90 OFFCURVE",
"148 -20 OFFCURVE",
"304 -20 CURVE SMOOTH"
);
},
{
closed = 1;
nodes = (
"739 -432 LINE",
"755 -418 LINE",
"971 694 LINE SMOOTH",
"985 765 OFFCURVE",
"1005 798 OFFCURVE",
"1066 832 CURVE",
"1064 903 OFFCURVE",
"1033 981 OFFCURVE",
"990 1016 CURVE",
"805 1006 OFFCURVE",
"688 887 OFFCURVE",
"653 710 CURVE SMOOTH",
"485 -164 LINE SMOOTH",
"473 -226 OFFCURVE",
"464 -266 OFFCURVE",
"464 -302 CURVE SMOOTH",
"464 -389 OFFCURVE",
"514 -432 OFFCURVE",
"603 -432 CURVE SMOOTH"
);
}
);
width = 1027;
},
{
associatedMasterId = "1023D002-3304-4399-867A-B886C920D2C0";
layerId = "CC5705AE-FC7E-475C-BA61-BD3DC495BD0D";
name = "Nov 9 20, 22:26";
paths = (
{
closed = 1;
nodes = (
"519 -16 OFFCURVE",
"675 137 OFFCURVE",
"727 327 CURVE",
"714 436 LINE",
"640 220 OFFCURVE",
"486 106 OFFCURVE",
"377 106 CURVE SMOOTH",
"280 106 OFFCURVE",
"223 196 OFFCURVE",
"223 356 CURVE SMOOTH",
"223 585 OFFCURVE",
"340 888 OFFCURVE",
"582 888 CURVE SMOOTH",
"662 888 OFFCURVE",
"749 854 OFFCURVE",
"802 803 CURVE",
"856 899 LINE",
"794 969 OFFCURVE",
"693 1004 OFFCURVE",
"597 1004 CURVE SMOOTH",
"282 1004 OFFCURVE",
"83 680 OFFCURVE",
"83 334 CURVE SMOOTH",
"83 107 OFFCURVE",
"177 -16 OFFCURVE",
"339 -16 CURVE SMOOTH"
);
},
{
closed = 1;
nodes = (
"653 -430 LINE",
"666 -418 LINE",
"884 704 LINE SMOOTH",
"902 798 OFFCURVE",
"921 871 OFFCURVE",
"978 918 CURVE",
"972 951 OFFCURVE",
"949 984 OFFCURVE",
"916 994 CURVE",
"814 959 OFFCURVE",
"778 868 OFFCURVE",
"756 754 CURVE SMOOTH",
"542 -345 LINE SMOOTH",
"540 -355 OFFCURVE",
"538 -366 OFFCURVE",
"538 -377 CURVE SMOOTH",
"538 -419 OFFCURVE",
"570 -430 OFFCURVE",
"596 -430 CURVE SMOOTH"
);
}
);
width = 985;
}
);
leftKerningGroup = a;
leftMetricsKey = a;
rightKerningGroup = q;
unicode = 0071;
},
{
color = 5;
glyphname = r;
lastChange = "2021-07-09 03:44:36 +0000";
layers = (
{
anchors = (
{
name = bottom;
position = "{197, 0}";
},
{
name = top;
position = "{534, 1084}";
}
);
layerId = "861B5D7F-E490-44BC-908E-F1CBF79092B0";
paths = (
{
closed = 1;
nodes = (
"231 -12 OFFCURVE",
"298 -9 OFFCURVE",
"340 0 CURVE",
"475 700 LINE",
"472 879 OFFCURVE",
"408 991 OFFCURVE",
"238 1016 CURVE",
"185 987 OFFCURVE",
"131 915 OFFCURVE",
"112 855 CURVE",
"139 830 OFFCURVE",
"159 792 OFFCURVE",
"159 735 CURVE SMOOTH",
"159 697 OFFCURVE",
"151 659 OFFCURVE",
"147 637 CURVE SMOOTH",
"24 0 LINE",
"54 -7 OFFCURVE",
"113 -12 OFFCURVE",
"182 -12 CURVE SMOOTH"
);
},
{
closed = 1;
nodes = (
"477 659 OFFCURVE",
"552 712 OFFCURVE",
"637 712 CURVE SMOOTH",
"669 712 OFFCURVE",
"713 700 OFFCURVE",
"746 689 CURVE",
"805 772 OFFCURVE",
"832 903 OFFCURVE",
"834 999 CURVE",
"799 1011 OFFCURVE",
"768 1014 OFFCURVE",
"728 1014 CURVE SMOOTH",
"507 1014 OFFCURVE",
"434 825 OFFCURVE",
"359 556 CURVE",
"415 500 LINE"
);
}
);
width = 757;
},
{
anchors = (
{
name = bottom;
position = "{158, 0}";
},
{
name = top;
position = "{481, 1084}";
}
);
layerId = "1023D002-3304-4399-867A-B886C920D2C0";
paths = (
{
closed = 1;
nodes = (
"179 -6 OFFCURVE",
"203 -4 OFFCURVE",
"222 0 CURVE",
"367 742 LINE",
"369 855 OFFCURVE",
"345 953 OFFCURVE",
"262 994 CURVE",
"231 986 OFFCURVE",
"197 952 OFFCURVE",
"185 919 CURVE",
"210 893 OFFCURVE",
"229 845 OFFCURVE",
"229 789 CURVE SMOOTH",
"229 763 OFFCURVE",
"225 722 OFFCURVE",
"219 692 CURVE SMOOTH",
"86 0 LINE",
"103 -4 OFFCURVE",
"126 -6 OFFCURVE",
"154 -6 CURVE SMOOTH"
);
},
{
closed = 1;
nodes = (
"359 691 OFFCURVE",
"452 856 OFFCURVE",
"627 856 CURVE SMOOTH",
"646 856 OFFCURVE",
"673 853 OFFCURVE",
"692 850 CURVE",
"722 892 OFFCURVE",
"731 948 OFFCURVE",
"730 984 CURVE",
"707 990 OFFCURVE",
"675 994 OFFCURVE",
"642 994 CURVE SMOOTH",
"446 994 OFFCURVE",
"336 814 OFFCURVE",
"282 586 CURVE",
"304 528 LINE"
);
}
);
width = 660;
}
);
leftKerningGroup = r;
rightKerningGroup = r;
unicode = 0072;
},
{
color = 5;
glyphname = s;
lastChange = "2021-07-09 03:44:36 +0000";
layers = (
{
anchors = (
{
name = bottom;
position = "{298, 0}";
},
{
name = top;
position = "{493, 1084}";
}
);
guideLines = (
{
angle = 155.6235;
position = "{410, 428}";
}
);
layerId = "1023D002-3304-4399-867A-B886C920D2C0";
paths = (
{
closed = 1;
nodes = (
"502 -24 OFFCURVE",
"671 97 OFFCURVE",
"671 296 CURVE SMOOTH",
"671 456 OFFCURVE",
"555 513 OFFCURVE",
"467 553 CURVE SMOOTH",
"436 567 LINE SMOOTH",
"368 598 OFFCURVE",
"286 634 OFFCURVE",
"286 722 CURVE SMOOTH",
"286 812 OFFCURVE",
"364 890 OFFCURVE",
"491 890 CURVE SMOOTH",
"569 890 OFFCURVE",
"641 863 OFFCURVE",
"693 828 CURVE",
"728 851 OFFCURVE",
"753 897 OFFCURVE",
"755 935 CURVE",
"698 975 OFFCURVE",
"600 1004 OFFCURVE",
"500 1004 CURVE SMOOTH",
"282 1004 OFFCURVE",
"146 856 OFFCURVE",
"146 700 CURVE SMOOTH",
"146 548 OFFCURVE",
"282 486 OFFCURVE",
"340 460 CURVE SMOOTH",
"392 437 LINE SMOOTH",
"460 407 OFFCURVE",
"530 364 OFFCURVE",
"530 275 CURVE SMOOTH",
"530 166 OFFCURVE",
"434 90 OFFCURVE",
"308 90 CURVE SMOOTH",
"220 90 OFFCURVE",
"137 126 OFFCURVE",
"74 182 CURVE",
"36 163 OFFCURVE",
"9 112 OFFCURVE",
"2 81 CURVE",
"73 18 OFFCURVE",
"180 -24 OFFCURVE",
"301 -24 CURVE SMOOTH"
);
}
);
width = 788;
},
{
anchors = (
{
name = bottom;
position = "{240, 0}";
},
{
name = top;
position = "{621, 1084}";
}
);
associatedMasterId = "861B5D7F-E490-44BC-908E-F1CBF79092B0";
layerId = "A8BB4F0E-8BCA-468D-8C47-BCF9258575C7";
name = "Oct 19 20, 18:40";
paths = (
{
closed = 1;
nodes = (
"571 -30 OFFCURVE",
"756 122 OFFCURVE",
"756 328 CURVE SMOOTH",
"756 458 OFFCURVE",
"690 544 OFFCURVE",
"551 607 CURVE SMOOTH",
"480 639 LINE SMOOTH",
"438 658 OFFCURVE",
"395 673 OFFCURVE",
"395 718 CURVE SMOOTH",
"395 757 OFFCURVE",
"427 796 OFFCURVE",
"503 796 CURVE SMOOTH",
"568 796 OFFCURVE",
"654 768 OFFCURVE",
"718 728 CURVE",
"768 764 OFFCURVE",
"823 868 OFFCURVE",
"831 941 CURVE",
"751 994 OFFCURVE",
"632 1030 OFFCURVE",
"511 1030 CURVE SMOOTH",
"256 1030 OFFCURVE",
"82 879 OFFCURVE",
"82 671 CURVE SMOOTH",
"82 547 OFFCURVE",
"151 461 OFFCURVE",
"264 409 CURVE SMOOTH",
"339 374 LINE SMOOTH",
"385 353 OFFCURVE",
"429 333 OFFCURVE",
"429 285 CURVE SMOOTH",
"429 239 OFFCURVE",
"388 205 OFFCURVE",
"307 205 CURVE SMOOTH",
"224 205 OFFCURVE",
"130 237 OFFCURVE",
"60 284 CURVE",
"12 236 OFFCURVE",
"-36 141 OFFCURVE",
"-48 74 CURVE",
"33 12 OFFCURVE",
"165 -30 OFFCURVE",
"302 -30 CURVE SMOOTH"
);
}
);
width = 821;
},
{
anchors = (
{
name = bottom;
position = "{253, 0}";
},
{
name = top;
position = "{615, 1084}";
}
);
associatedMasterId = "861B5D7F-E490-44BC-908E-F1CBF79092B0";
layerId = "29BE02EB-7EB4-4668-AB7D-4AB819EEB662";
name = "Oct 19 20, 19:18";
paths = (
{
closed = 1;
nodes = (
"569 -32 OFFCURVE",
"762 113 OFFCURVE",
"762 336 CURVE SMOOTH",
"762 515 OFFCURVE",
"639 576 OFFCURVE",
"561 613 CURVE SMOOTH",
"488 648 LINE SMOOTH",
"449 667 OFFCURVE",
"417 683 OFFCURVE",
"417 721 CURVE SMOOTH",
"417 755 OFFCURVE",
"442 794 OFFCURVE",
"522 794 CURVE SMOOTH",
"593 794 OFFCURVE",
"665 764 OFFCURVE",
"724 729 CURVE",
"772 765 OFFCURVE",
"826 873 OFFCURVE",
"832 947 CURVE",
"758 999 OFFCURVE",
"635 1032 OFFCURVE",
"518 1032 CURVE SMOOTH",
"282 1032 OFFCURVE",
"98 898 OFFCURVE",
"98 677 CURVE SMOOTH",
"98 494 OFFCURVE",
"224 432 OFFCURVE",
"263 414 CURVE SMOOTH",
"337 379 LINE SMOOTH",
"380 359 OFFCURVE",
"431 334 OFFCURVE",
"431 281 CURVE SMOOTH",
"431 233 OFFCURVE",
"390 206 OFFCURVE",
"321 206 CURVE SMOOTH",
"233 206 OFFCURVE",
"137 249 OFFCURVE",
"77 297 CURVE",
"31 249 OFFCURVE",
"-20 149 OFFCURVE",
"-33 81 CURVE",
"45 15 OFFCURVE",
"179 -32 OFFCURVE",
"321 -32 CURVE SMOOTH"
);
}
);
width = 838;
},
{
anchors = (
{
name = bottom;
position = "{237, 0}";
},
{
name = top;
position = "{527, 1084}";
}
);
layerId = "861B5D7F-E490-44BC-908E-F1CBF79092B0";
paths = (
{
closed = 1;
nodes = (
"561 -30 OFFCURVE",
"755 106 OFFCURVE",
"755 335 CURVE SMOOTH",
"755 494 OFFCURVE",
"637 566 OFFCURVE",
"561 604 CURVE SMOOTH",
"495 637 LINE SMOOTH",
"455 657 OFFCURVE",
"414 673 OFFCURVE",
"414 718 CURVE SMOOTH",
"414 758 OFFCURVE",
"452 796 OFFCURVE",
"526 796 CURVE SMOOTH",
"590 796 OFFCURVE",
"663 769 OFFCURVE",
"721 728 CURVE",
"772 764 OFFCURVE",
"828 870 OFFCURVE",
"838 942 CURVE",
"761 997 OFFCURVE",
"642 1030 OFFCURVE",
"526 1030 CURVE SMOOTH",
"260 1030 OFFCURVE",
"98 861 OFFCURVE",
"98 671 CURVE SMOOTH",
"98 509 OFFCURVE",
"215 445 OFFCURVE",
"273 415 CURVE SMOOTH",
"344 378 LINE SMOOTH",
"387 355 OFFCURVE",
"428 334 OFFCURVE",
"428 286 CURVE SMOOTH",
"428 239 OFFCURVE",
"389 205 OFFCURVE",
"309 205 CURVE SMOOTH",
"232 205 OFFCURVE",
"143 233 OFFCURVE",
"74 286 CURVE",
"24 237 OFFCURVE",
"-24 144 OFFCURVE",
"-37 77 CURVE",
"41 13 OFFCURVE",
"168 -30 OFFCURVE",
"306 -30 CURVE SMOOTH"
);
}
);
width = 822;
},
{
anchors = (
{
name = bottom;
position = "{245, 0}";
},
{
name = top;
position = "{626, 1084}";
}
);
associatedMasterId = "861B5D7F-E490-44BC-908E-F1CBF79092B0";
layerId = "F4A4FCF4-40BC-4DC0-AEDA-60D4B605B1F7";
name = "Oct 23 20, 11:20";
paths = (
{
closed = 1;
nodes = (
"567 -30 OFFCURVE",
"761 109 OFFCURVE",
"761 331 CURVE SMOOTH",
"761 514 OFFCURVE",
"623 579 OFFCURVE",
"569 604 CURVE SMOOTH",
"474 648 LINE SMOOTH",
"437 665 OFFCURVE",
"410 681 OFFCURVE",
"410 716 CURVE SMOOTH",
"410 757 OFFCURVE",
"445 796 OFFCURVE",
"520 796 CURVE SMOOTH",
"580 796 OFFCURVE",
"665 771 OFFCURVE",
"727 731 CURVE",
"777 767 OFFCURVE",
"832 872 OFFCURVE",
"840 945 CURVE",
"760 998 OFFCURVE",
"637 1030 OFFCURVE",
"518 1030 CURVE SMOOTH",
"258 1030 OFFCURVE",
"95 871 OFFCURVE",
"95 673 CURVE SMOOTH",
"95 546 OFFCURVE",
"161 466 OFFCURVE",
"272 412 CURVE SMOOTH",
"344 377 LINE SMOOTH",
"390 355 OFFCURVE",
"434 333 OFFCURVE",
"434 285 CURVE SMOOTH",
"434 239 OFFCURVE",
"396 205 OFFCURVE",
"314 205 CURVE SMOOTH",
"239 205 OFFCURVE",
"144 233 OFFCURVE",
"68 284 CURVE",
"20 236 OFFCURVE",
"-28 141 OFFCURVE",
"-40 74 CURVE",
"41 12 OFFCURVE",
"173 -30 OFFCURVE",
"312 -30 CURVE SMOOTH"
);
}
);
width = 831;
},
{
anchors = (
{
name = bottom;
position = "{315, 0}";
},
{
name = top;
position = "{511, 1084}";
}
);
associatedMasterId = "1023D002-3304-4399-867A-B886C920D2C0";
guideLines = (
{
angle = 155.6235;
position = "{418, 428}";
}
);
layerId = "0DC2BF29-B791-48F2-9F00-9CE8DC5553EE";
name = "Oct 23 20, 11:31";
paths = (
{
closed = 1;
nodes = (
"529 -24 OFFCURVE",
"692 101 OFFCURVE",
"692 292 CURVE SMOOTH",
"692 454 OFFCURVE",
"576 508 OFFCURVE",
"492 546 CURVE SMOOTH",
"428 575 LINE SMOOTH",
"360 606 OFFCURVE",
"287 639 OFFCURVE",
"287 722 CURVE SMOOTH",
"287 813 OFFCURVE",
"367 890 OFFCURVE",
"498 890 CURVE SMOOTH",
"575 890 OFFCURVE",
"654 863 OFFCURVE",
"709 828 CURVE",
"744 851 OFFCURVE",
"767 899 OFFCURVE",
"769 935 CURVE",
"710 975 OFFCURVE",
"606 1004 OFFCURVE",
"504 1004 CURVE SMOOTH",
"281 1004 OFFCURVE",
"145 854 OFFCURVE",
"145 700 CURVE SMOOTH",
"145 555 OFFCURVE",
"269 496 OFFCURVE",
"350 459 CURVE SMOOTH",
"418 428 LINE SMOOTH",
"482 399 OFFCURVE",
"550 364 OFFCURVE",
"550 272 CURVE SMOOTH",
"550 158 OFFCURVE",
"447 90 OFFCURVE",
"326 90 CURVE SMOOTH",
"240 90 OFFCURVE",
"139 127 OFFCURVE",
"78 182 CURVE",
"41 163 OFFCURVE",
"14 114 OFFCURVE",
"8 81 CURVE",
"78 21 OFFCURVE",
"193 -24 OFFCURVE",
"319 -24 CURVE SMOOTH"
);
}
);
width = 805;
},
{
anchors = (
{
name = bottom;
position = "{245, 0}";
},
{
name = top;
position = "{645, 1084}";
}
);
associatedMasterId = "861B5D7F-E490-44BC-908E-F1CBF79092B0";
layerId = "84F26F91-5905-4DA1-BDA0-3E3A32BCE9FE";
name = "Nov 10 20, 22:51";
paths = (
{
closed = 1;
nodes = (
"564 -30 OFFCURVE",
"763 110 OFFCURVE",
"763 337 CURVE SMOOTH",
"763 515 OFFCURVE",
"631 580 OFFCURVE",
"579 604 CURVE SMOOTH",
"485 648 LINE SMOOTH",
"449 665 OFFCURVE",
"422 681 OFFCURVE",
"422 715 CURVE SMOOTH",
"422 757 OFFCURVE",
"459 796 OFFCURVE",
"534 796 CURVE SMOOTH",
"590 796 OFFCURVE",
"671 770 OFFCURVE",
"729 728 CURVE",
"780 764 OFFCURVE",
"836 870 OFFCURVE",
"846 942 CURVE",
"769 997 OFFCURVE",
"650 1030 OFFCURVE",
"536 1030 CURVE SMOOTH",
"276 1030 OFFCURVE",
"106 870 OFFCURVE",
"106 667 CURVE SMOOTH",
"106 543 OFFCURVE",
"171 465 OFFCURVE",
"279 412 CURVE SMOOTH",
"350 377 LINE SMOOTH",
"394 355 OFFCURVE",
"436 333 OFFCURVE",
"436 286 CURVE SMOOTH",
"436 239 OFFCURVE",
"397 205 OFFCURVE",
"317 205 CURVE SMOOTH",
"245 205 OFFCURVE",
"155 234 OFFCURVE",
"83 287 CURVE",
"33 238 OFFCURVE",
"-16 144 OFFCURVE",
"-29 77 CURVE",
"49 13 OFFCURVE",
"176 -30 OFFCURVE",
"311 -30 CURVE SMOOTH"
);
}
);
width = 821;
}
);
leftKerningGroup = s;
rightKerningGroup = s;
unicode = 0073;
},
{
color = 5;
glyphname = t;
lastChange = "2021-07-09 03:44:36 +0000";
layers = (
{
anchors = (
{
name = bottom;
position = "{302, 0}";
},
{
name = top;
position = "{492, 1370}";
},
{
name = topright;
position = "{551, 1000}";
}
);
layerId = "861B5D7F-E490-44BC-908E-F1CBF79092B0";
paths = (
{
closed = 1;
nodes = (
"433 -10 OFFCURVE",
"523 -1 OFFCURVE",
"596 17 CURVE",
"605 43 OFFCURVE",
"608 82 OFFCURVE",
"608 110 CURVE SMOOTH",
"608 155 OFFCURVE",
"600 210 OFFCURVE",
"588 246 CURVE",
"578 244 OFFCURVE",
"547 238 OFFCURVE",
"519 238 CURVE SMOOTH",
"484 238 OFFCURVE",
"441 244 OFFCURVE",
"441 299 CURVE SMOOTH",
"441 313 OFFCURVE",
"444 338 OFFCURVE",
"449 364 CURVE SMOOTH",
"628 1286 LINE",
"617 1300 LINE",
"484 1300 LINE SMOOTH",
"356 1300 OFFCURVE",
"303 1240 OFFCURVE",
"281 1124 CURVE SMOOTH",
"130 341 LINE SMOOTH",
"124 310 OFFCURVE",
"115 253 OFFCURVE",
"115 216 CURVE SMOOTH",
"115 57 OFFCURVE",
"197 -10 OFFCURVE",
"366 -10 CURVE SMOOTH"
);
},
{
closed = 1;
nodes = (
"368 776 LINE",
"732 770 LINE",
"761 828 OFFCURVE",
"779 901 OFFCURVE",
"779 968 CURVE SMOOTH",
"779 983 OFFCURVE",
"778 994 OFFCURVE",
"777 1002 CURVE",
"411 996 LINE",
"103 1002 LINE",
"75 945 OFFCURVE",
"57 871 OFFCURVE",
"57 804 CURVE SMOOTH",
"57 790 OFFCURVE",
"58 778 OFFCURVE",
"58 770 CURVE"
);
}
);
width = 736;
},
{
anchors = (
{
name = bottom;
position = "{261, 0}";
},
{
name = top;
position = "{459, 1360}";
},
{
name = topright;
position = "{418, 980}";
}
);
layerId = "1023D002-3304-4399-867A-B886C920D2C0";
paths = (
{
closed = 1;
nodes = (
"362 -8 OFFCURVE",
"437 2 OFFCURVE",
"487 12 CURVE",
"490 23 OFFCURVE",
"491 34 OFFCURVE",
"491 45 CURVE SMOOTH",
"491 69 OFFCURVE",
"486 99 OFFCURVE",
"478 117 CURVE",
"442 112 OFFCURVE",
"396 107 OFFCURVE",
"355 107 CURVE SMOOTH",
"296 107 OFFCURVE",
"275 126 OFFCURVE",
"275 176 CURVE SMOOTH",
"275 194 OFFCURVE",
"279 231 OFFCURVE",
"286 266 CURVE SMOOTH",
"483 1278 LINE",
"473 1290 LINE",
"421 1290 LINE SMOOTH",
"353 1290 OFFCURVE",
"340 1244 OFFCURVE",
"330 1192 CURVE SMOOTH",
"146 245 LINE SMOOTH",
"136 193 OFFCURVE",
"133 158 OFFCURVE",
"133 136 CURVE SMOOTH",
"133 38 OFFCURVE",
"187 -8 OFFCURVE",
"299 -8 CURVE SMOOTH"
);
},
{
closed = 1;
nodes = (
"336 878 LINE",
"649 874 LINE",
"659 896 OFFCURVE",
"666 932 OFFCURVE",
"666 957 CURVE SMOOTH",
"666 966 OFFCURVE",
"665 976 OFFCURVE",
"664 982 CURVE",
"353 978 LINE",
"149 982 LINE",
"139 959 OFFCURVE",
"133 924 OFFCURVE",
"133 899 CURVE SMOOTH",
"133 888 OFFCURVE",
"133 879 OFFCURVE",
"134 874 CURVE"
);
}
);
width = 635;
},
{
anchors = (
{
name = bottom;
position = "{259, 0}";
},
{
name = top;
position = "{457, 1360}";
},
{
name = topright;
position = "{416, 980}";
}
);
associatedMasterId = "1023D002-3304-4399-867A-B886C920D2C0";
layerId = "518DF11F-E925-438A-B114-96D102B111CB";
name = "Nov 10 20, 02:51";
paths = (
{
closed = 1;
nodes = (
"365 -6 OFFCURVE",
"434 4 OFFCURVE",
"473 14 CURVE",
"480 33 OFFCURVE",
"484 53 OFFCURVE",
"485 72 CURVE SMOOTH",
"486 87 OFFCURVE",
"485 109 OFFCURVE",
"482 119 CURVE",
"442 114 OFFCURVE",
"394 108 OFFCURVE",
"352 108 CURVE SMOOTH",
"294 108 OFFCURVE",
"272 126 OFFCURVE",
"272 175 CURVE SMOOTH",
"272 196 OFFCURVE",
"277 231 OFFCURVE",
"284 266 CURVE SMOOTH",
"481 1278 LINE",
"471 1290 LINE",
"419 1290 LINE SMOOTH",
"348 1290 OFFCURVE",
"338 1246 OFFCURVE",
"328 1194 CURVE SMOOTH",
"144 245 LINE SMOOTH",
"134 195 OFFCURVE",
"131 159 OFFCURVE",
"131 130 CURVE SMOOTH",
"131 35 OFFCURVE",
"183 -6 OFFCURVE",
"303 -6 CURVE SMOOTH"
);
},
{
closed = 1;
nodes = (
"334 878 LINE",
"647 874 LINE",
"657 896 OFFCURVE",
"664 932 OFFCURVE",
"664 957 CURVE SMOOTH",
"664 966 OFFCURVE",
"663 976 OFFCURVE",
"662 982 CURVE",
"351 978 LINE",
"147 982 LINE",
"137 959 OFFCURVE",
"131 924 OFFCURVE",
"131 899 CURVE SMOOTH",
"131 888 OFFCURVE",
"131 879 OFFCURVE",
"132 874 CURVE"
);
}
);
width = 632;
}
);
leftKerningGroup = t;
rightKerningGroup = t;
unicode = 0074;
},
{
color = 5;
glyphname = u;
lastChange = "2021-07-09 03:44:36 +0000";
layers = (
{
anchors = (
{
name = bottom;
position = "{398, 0}";
},
{
name = ogonek;
position = "{723, -14}";
},
{
name = top;
position = "{599, 1084}";
},
{
name = topright;
position = "{924, 975}";
}
);
layerId = "1023D002-3304-4399-867A-B886C920D2C0";
paths = (
{
closed = 1;
nodes = (
"464 -18 OFFCURVE",
"599 67 OFFCURVE",
"677 200 CURVE",
"699 382 LINE",
"644 240 OFFCURVE",
"503 106 OFFCURVE",
"371 106 CURVE SMOOTH",
"289 106 OFFCURVE",
"246 156 OFFCURVE",
"246 244 CURVE SMOOTH",
"248 393 OFFCURVE",
"362 805 OFFCURVE",
"360 924 CURVE SMOOTH",
"360 961 OFFCURVE",
"347 994 OFFCURVE",
"294 994 CURVE SMOOTH",
"259 994 OFFCURVE",
"222 978 OFFCURVE",
"204 961 CURVE",
"212 937 OFFCURVE",
"216 909 OFFCURVE",
"216 885 CURVE SMOOTH",
"216 748 OFFCURVE",
"104 395 OFFCURVE",
"104 220 CURVE SMOOTH",
"104 78 OFFCURVE",
"185 -18 OFFCURVE",
"330 -18 CURVE SMOOTH"
);
},
{
closed = 1;
nodes = (
"775 -1 OFFCURVE",
"802 24 OFFCURVE",
"815 53 CURVE",
"794 79 OFFCURVE",
"784 115 OFFCURVE",
"784 155 CURVE SMOOTH",
"784 198 OFFCURVE",
"794 255 OFFCURVE",
"803 301 CURVE SMOOTH",
"935 980 LINE",
"918 984 OFFCURVE",
"895 986 OFFCURVE",
"868 986 CURVE SMOOTH",
"843 986 OFFCURVE",
"818 984 OFFCURVE",
"799 980 CURVE",
"645 188 LINE",
"644 128 OFFCURVE",
"649 30 OFFCURVE",
"742 -14 CURVE"
);
}
);
width = 1007;
},
{
anchors = (
{
name = bottom;
position = "{389, 0}";
},
{
name = ogonek;
position = "{783, -16}";
},
{
name = top;
position = "{602, 1084}";
},
{
name = topright;
position = "{1022, 1000}";
}
);
layerId = "861B5D7F-E490-44BC-908E-F1CBF79092B0";
paths = (
{
closed = 1;
nodes = (
"424 -18 OFFCURVE",
"525 74 OFFCURVE",
"612 226 CURVE",
"620 520 LINE",
"591 362 OFFCURVE",
"501 272 OFFCURVE",
"434 272 CURVE SMOOTH",
"396 272 OFFCURVE",
"383 300 OFFCURVE",
"383 333 CURVE SMOOTH",
"383 432 OFFCURVE",
"473 743 OFFCURVE",
"473 871 CURVE SMOOTH",
"473 941 OFFCURVE",
"444 1016 OFFCURVE",
"322 1016 CURVE SMOOTH",
"246 1016 OFFCURVE",
"166 987 OFFCURVE",
"117 946 CURVE",
"139 920 OFFCURVE",
"148 860 OFFCURVE",
"148 821 CURVE SMOOTH",
"148 695 OFFCURVE",
"55 416 OFFCURVE",
"55 246 CURVE SMOOTH",
"55 80 OFFCURVE",
"151 -18 OFFCURVE",
"288 -18 CURVE SMOOTH"
);
},
{
closed = 1;
nodes = (
"836 13 OFFCURVE",
"891 85 OFFCURVE",
"908 146 CURVE",
"876 178 OFFCURVE",
"871 207 OFFCURVE",
"871 235 CURVE SMOOTH",
"871 269 OFFCURVE",
"880 312 OFFCURVE",
"887 350 CURVE SMOOTH",
"1013 1000 LINE",
"970 1009 OFFCURVE",
"909 1012 OFFCURVE",
"857 1012 CURVE SMOOTH",
"804 1012 OFFCURVE",
"744 1009 OFFCURVE",
"698 1000 CURVE",
"552 247 LINE",
"552 114 OFFCURVE",
"606 -3 OFFCURVE",
"783 -16 CURVE"
);
}
);
width = 1028;
}
);
leftKerningGroup = u;
rightKerningGroup = u;
unicode = 0075;
},
{
color = 5;
glyphname = v;
lastChange = "2021-07-09 03:44:36 +0000";
layers = (
{
anchors = (
{
name = bottom;
position = "{372, 0}";
},
{
name = top;
position = "{586, 1084}";
}
);
layerId = "861B5D7F-E490-44BC-908E-F1CBF79092B0";
paths = (
{
closed = 1;
nodes = (
"430 236 LINE",
"419 236 OFFCURVE",
"411 236 OFFCURVE",
"412 251 CURVE SMOOTH",
"419 344 OFFCURVE",
"419 451 OFFCURVE",
"418 538 CURVE SMOOTH",
"415 855 LINE SMOOTH",
"414 973 OFFCURVE",
"366 1018 OFFCURVE",
"266 1018 CURVE SMOOTH",
"206 1018 OFFCURVE",
"150 1002 OFFCURVE",
"101 984 CURVE",
"138 188 LINE SMOOTH",
"144 52 OFFCURVE",
"179 -12 OFFCURVE",
"337 -12 CURVE SMOOTH",
"413 -12 OFFCURVE",
"514 -8 OFFCURVE",
"592 0 CURVE",
"704 250 OFFCURVE",
"885 646 OFFCURVE",
"1025 969 CURVE",
"1017 984 LINE",
"973 1004 OFFCURVE",
"906 1010 OFFCURVE",
"851 1010 CURVE SMOOTH",
"806 1010 OFFCURVE",
"762 1006 OFFCURVE",
"722 998 CURVE"
);
}
);
width = 948;
},
{
anchors = (
{
name = bottom;
position = "{326, 0}";
},
{
name = top;
position = "{532, 1084}";
}
);
guideLines = (
{
angle = -82.5058;
position = "{114, 977}";
},
{
angle = -82.845;
position = "{257, 932}";
}
);
layerId = "1023D002-3304-4399-867A-B886C920D2C0";
paths = (
{
closed = 1;
nodes = (
"356 120 LINE",
"343 120 OFFCURVE",
"342 121 OFFCURVE",
"341 138 CURVE SMOOTH",
"335 236 OFFCURVE",
"327 345 OFFCURVE",
"315 462 CURVE SMOOTH",
"267 932 LINE SMOOTH",
"262 979 OFFCURVE",
"236 994 OFFCURVE",
"202 994 CURVE SMOOTH",
"178 994 OFFCURVE",
"146 985 OFFCURVE",
"123 977 CURVE",
"225 80 LINE SMOOTH",
"233 11 OFFCURVE",
"257 -9 OFFCURVE",
"319 -9 CURVE SMOOTH",
"351 -9 OFFCURVE",
"396 -4 OFFCURVE",
"420 1 CURVE",
"530 212 OFFCURVE",
"758 663 OFFCURVE",
"911 972 CURVE",
"908 978 LINE",
"891 984 OFFCURVE",
"865 988 OFFCURVE",
"837 988 CURVE SMOOTH",
"815 988 OFFCURVE",
"800 987 OFFCURVE",
"777 982 CURVE"
);
}
);
width = 853;
}
);
leftKerningGroup = v;
rightKerningGroup = v;
unicode = 0076;
},
{
color = 5;
glyphname = w;
lastChange = "2021-07-09 03:44:36 +0000";
layers = (
{
anchors = (
{
name = bottom;
position = "{629, 0}";
},
{
name = top;
position = "{839, 1084}";
}
);
guideLines = (
{
angle = 72.2358;
position = "{543, 0}";
},
{
angle = 250.6312;
position = "{1229, 998}";
},
{
angle = 87.8945;
position = "{412, 714}";
},
{
angle = 85.8475;
position = "{955, 258}";
},
{
angle = 85.8475;
position = "{734, 171}";
}
);
layerId = "861B5D7F-E490-44BC-908E-F1CBF79092B0";
paths = (
{
closed = 1;
nodes = (
"365 -12 OFFCURVE",
"478 -7 OFFCURVE",
"535 0 CURVE",
"645 344 LINE SMOOTH",
"680 454 OFFCURVE",
"725 602 OFFCURVE",
"760 720 CURVE",
"772 720 LINE",
"761 601 OFFCURVE",
"746 449 OFFCURVE",
"738 340 CURVE SMOOTH",
"726 171 LINE SMOOTH",
"719 72 OFFCURVE",
"725 -12 OFFCURVE",
"891 -12 CURVE SMOOTH",
"954 -12 OFFCURVE",
"1066 -7 OFFCURVE",
"1124 0 CURVE",
"1519 967 LINE",
"1512 984 LINE",
"1466 1004 OFFCURVE",
"1396 1010 OFFCURVE",
"1343 1010 CURVE SMOOTH",
"1297 1010 OFFCURVE",
"1261 1006 OFFCURVE",
"1221 998 CURVE",
"1072 577 LINE SMOOTH",
"1036 475 OFFCURVE",
"1003 376 OFFCURVE",
"961 242 CURVE",
"948 242 OFFCURVE",
"946 246 OFFCURVE",
"947 258 CURVE SMOOTH",
"1000 988 LINE",
"954 1000 OFFCURVE",
"848 1004 OFFCURVE",
"807 1004 CURVE SMOOTH",
"770 1004 OFFCURVE",
"683 1000 OFFCURVE",
"631 988 CURVE",
"392 242 LINE",
"379 242 OFFCURVE",
"377 246 OFFCURVE",
"378 259 CURVE SMOOTH",
"385 345 OFFCURVE",
"394 455 OFFCURVE",
"399 578 CURVE SMOOTH",
"409 850 LINE SMOOTH",
"413 957 OFFCURVE",
"383 1018 OFFCURVE",
"265 1018 CURVE SMOOTH",
"209 1018 OFFCURVE",
"157 1005 OFFCURVE",
"110 987 CURVE",
"125 171 LINE SMOOTH",
"127 74 OFFCURVE",
"136 -12 OFFCURVE",
"304 -12 CURVE SMOOTH"
);
}
);
width = 1458;
},
{
anchors = (
{
name = bottom;
position = "{561, 0}";
},
{
name = top;
position = "{771, 1084}";
}
);
guideLines = (
{
angle = 67.7153;
position = "{305, 104}";
},
{
angle = 90.8681;
position = "{841, 122}";
},
{
angle = 90.8681;
position = "{733, 88}";
},
{
angle = 67.7153;
position = "{377, 0}";
},
{
angle = 66.9083;
position = "{1210, 982}";
},
{
angle = -88.5246;
position = "{168, 535}";
},
{
angle = -88.5246;
position = "{288, 933}";
}
);
layerId = "1023D002-3304-4399-867A-B886C920D2C0";
paths = (
{
closed = 1;
nodes = (
"294 -8 OFFCURVE",
"332 -5 OFFCURVE",
"368 0 CURVE",
"533 402 LINE SMOOTH",
"575 504 OFFCURVE",
"645 686 OFFCURVE",
"709 846 CURVE",
"717 846 LINE",
"718 688 OFFCURVE",
"720 505 OFFCURVE",
"721 392 CURVE SMOOTH",
"724 88 LINE SMOOTH",
"725 15 OFFCURVE",
"753 -8 OFFCURVE",
"815 -8 CURVE SMOOTH",
"848 -8 OFFCURVE",
"885 -4 OFFCURVE",
"921 1 CURVE",
"1335 972 LINE",
"1332 978 LINE",
"1315 984 OFFCURVE",
"1292 988 OFFCURVE",
"1269 988 CURVE SMOOTH",
"1248 988 OFFCURVE",
"1215 986 OFFCURVE",
"1201 982 CURVE",
"988 466 LINE SMOOTH",
"948 369 OFFCURVE",
"904 260 OFFCURVE",
"845 104 CURVE",
"834 104 OFFCURVE",
"832 108 OFFCURVE",
"832 122 CURVE SMOOTH",
"819 980 LINE",
"802 984 OFFCURVE",
"762 986 OFFCURVE",
"739 986 CURVE SMOOTH",
"720 986 OFFCURVE",
"673 984 OFFCURVE",
"654 980 CURVE",
"296 104 LINE",
"287 104 OFFCURVE",
"282 105 OFFCURVE",
"283 120 CURVE SMOOTH",
"287 221 OFFCURVE",
"288 331 OFFCURVE",
"286 466 CURVE SMOOTH",
"279 933 LINE SMOOTH",
"278 978 OFFCURVE",
"251 994 OFFCURVE",
"218 994 CURVE SMOOTH",
"193 994 OFFCURVE",
"170 989 OFFCURVE",
"147 981 CURVE",
"170 88 LINE SMOOTH",
"172 23 OFFCURVE",
"191 -8 OFFCURVE",
"261 -8 CURVE SMOOTH"
);
}
);
width = 1299;
},
{
anchors = (
{
name = bottom;
position = "{670, 0}";
},
{
name = top;
position = "{861, 1084}";
}
);
associatedMasterId = "861B5D7F-E490-44BC-908E-F1CBF79092B0";
guideLines = (
{
angle = 267.4117;
position = "{1026, 988}";
},
{
angle = 252.9351;
position = "{665, 988}";
},
{
angle = 269.1873;
position = "{441, 850}";
},
{
angle = 252.9351;
position = "{579, 0}";
},
{
angle = 267.4117;
position = "{775, 171}";
},
{
angle = 250.8738;
position = "{1181, 788}";
}
);
layerId = "A35E45D0-5D40-4E42-A5E6-741955FAAF53";
name = "Oct 12 20, 19:05";
paths = (
{
closed = 1;
nodes = (
"415 -12 OFFCURVE",
"522 -7 OFFCURVE",
"579 0 CURVE",
"685 345 LINE SMOOTH",
"720 458 OFFCURVE",
"759 594 OFFCURVE",
"792 712 CURVE",
"803 712 LINE",
"796 590 OFFCURVE",
"789 458 OFFCURVE",
"783 340 CURVE SMOOTH",
"775 171 LINE SMOOTH",
"770 61 OFFCURVE",
"786 -12 OFFCURVE",
"943 -12 CURVE SMOOTH",
"1005 -12 OFFCURVE",
"1110 -7 OFFCURVE",
"1167 0 CURVE",
"1556 967 LINE",
"1549 984 LINE",
"1505 1004 OFFCURVE",
"1433 1010 OFFCURVE",
"1380 1010 CURVE SMOOTH",
"1333 1010 OFFCURVE",
"1294 1006 OFFCURVE",
"1254 998 CURVE",
"1108 577 LINE SMOOTH",
"1075 483 OFFCURVE",
"1037 359 OFFCURVE",
"1006 242 CURVE",
"991 242 OFFCURVE",
"993 248 OFFCURVE",
"993 258 CURVE SMOOTH",
"1026 988 LINE",
"980 1000 OFFCURVE",
"880 1004 OFFCURVE",
"839 1004 CURVE SMOOTH",
"801 1004 OFFCURVE",
"717 1000 OFFCURVE",
"665 988 CURVE",
"436 242 LINE",
"425 242 OFFCURVE",
"422 246 OFFCURVE",
"423 259 CURVE SMOOTH",
"428 346 OFFCURVE",
"436 482 OFFCURVE",
"437 578 CURVE SMOOTH",
"441 850 LINE SMOOTH",
"442 952 OFFCURVE",
"421 1018 OFFCURVE",
"293 1018 CURVE SMOOTH",
"237 1018 OFFCURVE",
"186 1005 OFFCURVE",
"139 987 CURVE",
"171 171 LINE SMOOTH",
"175 61 OFFCURVE",
"196 -12 OFFCURVE",
"353 -12 CURVE SMOOTH"
);
}
);
width = 1522;
}
);
leftKerningGroup = w;
rightKerningGroup = w;
unicode = 0077;
},
{
color = 5;
glyphname = x;
lastChange = "2021-07-09 03:44:36 +0000";
layers = (
{
anchors = (
{
name = top;
position = "{592, 1084}";
}
);
layerId = "861B5D7F-E490-44BC-908E-F1CBF79092B0";
paths = (
{
closed = 1;
nodes = (
"138 -12 OFFCURVE",
"181 -10 OFFCURVE",
"217 0 CURVE",
"467 342 LINE",
"604 448 LINE",
"1004 968 LINE",
"1001 990 LINE",
"955 1004 OFFCURVE",
"903 1012 OFFCURVE",
"845 1012 CURVE SMOOTH",
"800 1012 OFFCURVE",
"752 1008 OFFCURVE",
"716 1000 CURVE",
"493 694 LINE",
"360 594 LINE",
"-78 32 LINE",
"-71 12 LINE",
"-27 -6 OFFCURVE",
"28 -12 OFFCURVE",
"89 -12 CURVE SMOOTH"
);
},
{
closed = 1;
nodes = (
"713 -18 OFFCURVE",
"781 2 OFFCURVE",
"852 48 CURVE",
"464 918 LINE SMOOTH",
"432 989 OFFCURVE",
"391 1020 OFFCURVE",
"314 1020 CURVE SMOOTH",
"260 1020 OFFCURVE",
"192 999 OFFCURVE",
"123 954 CURVE",
"506 84 LINE SMOOTH",
"538 12 OFFCURVE",
"582 -18 OFFCURVE",
"660 -18 CURVE SMOOTH"
);
}
);
width = 943;
},
{
anchors = (
{
name = top;
position = "{477, 1084}";
}
);
layerId = "1023D002-3304-4399-867A-B886C920D2C0";
paths = (
{
closed = 1;
nodes = (
"51 -10 OFFCURVE",
"75 -7 OFFCURVE",
"90 -2 CURVE",
"419 435 LINE",
"472 474 LINE",
"850 964 LINE",
"847 976 LINE",
"833 983 OFFCURVE",
"808 988 OFFCURVE",
"777 988 CURVE SMOOTH",
"754 988 OFFCURVE",
"729 985 OFFCURVE",
"714 980 CURVE",
"420 589 LINE",
"369 553 LINE",
"-48 16 LINE",
"-44 4 LINE",
"-31 -4 OFFCURVE",
"-3 -10 OFFCURVE",
"27 -10 CURVE SMOOTH"
);
},
{
closed = 1;
nodes = (
"644 -17 OFFCURVE",
"675 -4 OFFCURVE",
"701 14 CURVE",
"315 945 LINE SMOOTH",
"299 983 OFFCURVE",
"278 995 OFFCURVE",
"246 995 CURVE SMOOTH",
"219 995 OFFCURVE",
"188 982 OFFCURVE",
"162 964 CURVE",
"548 33 LINE SMOOTH",
"564 -5 OFFCURVE",
"585 -17 OFFCURVE",
"617 -17 CURVE SMOOTH"
);
}
);
width = 832;
},
{
anchors = (
{
name = top;
position = "{487, 1084}";
}
);
associatedMasterId = "1023D002-3304-4399-867A-B886C920D2C0";
guideLines = (
{
angle = -66.4319;
position = "{359, 500}";
},
{
angle = -66.4319;
position = "{307, 946}";
},
{
angle = 232.7057;
position = "{167, 285}";
},
{
angle = 232.8088;
position = "{833, 964}";
}
);
layerId = "98A085FC-4C61-450F-96B8-BC4587D30C12";
name = "Nov 12 20, 01:23";
paths = (
{
closed = 1;
nodes = (
"62 -10 OFFCURVE",
"84 -7 OFFCURVE",
"100 -2 CURVE",
"438 449 LINE",
"493 482 LINE",
"860 964 LINE",
"857 976 LINE",
"843 983 OFFCURVE",
"818 988 OFFCURVE",
"787 988 CURVE SMOOTH",
"763 988 OFFCURVE",
"739 985 OFFCURVE",
"724 980 CURVE",
"440 588 LINE",
"384 555 LINE",
"-38 16 LINE",
"-34 4 LINE",
"-21 -4 OFFCURVE",
"7 -10 OFFCURVE",
"37 -10 CURVE SMOOTH"
);
},
{
closed = 1;
nodes = (
"655 -17 OFFCURVE",
"687 -4 OFFCURVE",
"714 14 CURVE",
"317 946 LINE SMOOTH",
"301 984 OFFCURVE",
"282 996 OFFCURVE",
"253 996 CURVE SMOOTH",
"225 996 OFFCURVE",
"196 982 OFFCURVE",
"169 964 CURVE",
"558 33 LINE SMOOTH",
"574 -5 OFFCURVE",
"595 -17 OFFCURVE",
"627 -17 CURVE SMOOTH"
);
}
);
width = 838;
},
{
anchors = (
{
name = top;
position = "{601, 1084}";
}
);
associatedMasterId = "861B5D7F-E490-44BC-908E-F1CBF79092B0";
layerId = "10E24B5B-D96A-47E1-A28A-CCFDC96512A2";
name = "Nov 12 20, 01:35";
paths = (
{
closed = 1;
nodes = (
"151 -12 OFFCURVE",
"194 -10 OFFCURVE",
"230 0 CURVE",
"497 372 LINE",
"611 444 LINE",
"1013 968 LINE",
"1010 990 LINE",
"963 1004 OFFCURVE",
"909 1012 OFFCURVE",
"850 1012 CURVE SMOOTH",
"805 1012 OFFCURVE",
"757 1008 OFFCURVE",
"721 1000 CURVE",
"479 666 LINE",
"363 596 LINE",
"-69 32 LINE",
"-62 12 LINE",
"-17 -6 OFFCURVE",
"40 -12 OFFCURVE",
"102 -12 CURVE SMOOTH"
);
},
{
closed = 1;
nodes = (
"718 -18 OFFCURVE",
"793 2 OFFCURVE",
"864 48 CURVE",
"476 918 LINE SMOOTH",
"445 989 OFFCURVE",
"403 1020 OFFCURVE",
"326 1020 CURVE SMOOTH",
"272 1020 OFFCURVE",
"198 999 OFFCURVE",
"129 954 CURVE",
"511 84 LINE SMOOTH",
"543 12 OFFCURVE",
"587 -18 OFFCURVE",
"665 -18 CURVE SMOOTH"
);
}
);
width = 941;
}
);
leftKerningGroup = x;
rightKerningGroup = x;
unicode = 0078;
},
{
color = 5;
glyphname = y;
lastChange = "2021-07-09 03:44:36 +0000";
layers = (
{
anchors = (
{
name = bottom;
position = "{772, -16}";
},
{
name = top;
position = "{604, 1084}";
}
);
layerId = "861B5D7F-E490-44BC-908E-F1CBF79092B0";
paths = (
{
closed = 1;
nodes = (
"393 -437 OFFCURVE",
"523 -275 OFFCURVE",
"643 7 CURVE SMOOTH",
"1052 969 LINE",
"1044 984 LINE",
"993 1005 OFFCURVE",
"920 1010 OFFCURVE",
"867 1010 CURVE SMOOTH",
"821 1010 OFFCURVE",
"772 1006 OFFCURVE",
"736 998 CURVE",
"442 225 LINE",
"430 225 OFFCURVE",
"427 227 OFFCURVE",
"428 239 CURVE SMOOTH",
"433 306 OFFCURVE",
"434 462 OFFCURVE",
"433 504 CURVE SMOOTH",
"428 855 LINE SMOOTH",
"427 946 OFFCURVE",
"404 1018 OFFCURVE",
"286 1018 CURVE SMOOTH",
"223 1018 OFFCURVE",
"163 1003 OFFCURVE",
"114 984 CURVE",
"151 168 LINE SMOOTH",
"156 50 OFFCURVE",
"189 -4 OFFCURVE",
"339 -14 CURVE",
"324 -44 LINE SMOOTH",
"289 -114 OFFCURVE",
"232 -192 OFFCURVE",
"100 -192 CURVE SMOOTH",
"55 -192 OFFCURVE",
"3 -179 OFFCURVE",
"-39 -157 CURVE",
"-92 -210 OFFCURVE",
"-125 -317 OFFCURVE",
"-125 -387 CURVE",
"-69 -416 OFFCURVE",
"31 -437 OFFCURVE",
"118 -437 CURVE SMOOTH"
);
}
);
width = 977;
},
{
anchors = (
{
name = bottom;
position = "{546, -131}";
},
{
name = top;
position = "{551, 1084}";
}
);
guideLines = (
{
angle = -83.6228;
position = "{281, 930}";
},
{
angle = 245.3494;
position = "{778, 982}";
}
);
layerId = "1023D002-3304-4399-867A-B886C920D2C0";
paths = (
{
closed = 1;
nodes = (
"243 -436 OFFCURVE",
"349 -256 OFFCURVE",
"472 5 CURVE SMOOTH",
"927 972 LINE",
"924 978 LINE",
"906 984 OFFCURVE",
"878 988 OFFCURVE",
"843 988 CURVE SMOOTH",
"826 988 OFFCURVE",
"808 987 OFFCURVE",
"784 982 CURVE",
"381 106 LINE",
"373 106 OFFCURVE",
"365 106 OFFCURVE",
"364 125 CURVE SMOOTH",
"361 175 OFFCURVE",
"353 304 OFFCURVE",
"340 420 CURVE SMOOTH",
"283 930 LINE SMOOTH",
"278 972 OFFCURVE",
"257 994 OFFCURVE",
"218 994 CURVE SMOOTH",
"197 994 OFFCURVE",
"166 987 OFFCURVE",
"139 977 CURVE",
"237 89 LINE SMOOTH",
"243 37 OFFCURVE",
"252 4 OFFCURVE",
"328 -8 CURVE",
"315 -37 LINE SMOOTH",
"282 -111 OFFCURVE",
"186 -321 OFFCURVE",
"8 -321 CURVE SMOOTH",
"-26 -321 OFFCURVE",
"-62 -312 OFFCURVE",
"-88 -300 CURVE",
"-109 -320 OFFCURVE",
"-129 -367 OFFCURVE",
"-130 -406 CURVE",
"-95 -425 OFFCURVE",
"-41 -436 OFFCURVE",
"11 -436 CURVE SMOOTH"
);
}
);
width = 880;
},
{
anchors = (
{
name = bottom;
position = "{521, -130}";
},
{
name = top;
position = "{552, 1084}";
}
);
associatedMasterId = "1023D002-3304-4399-867A-B886C920D2C0";
guideLines = (
{
angle = -83.6228;
position = "{282, 930}";
},
{
angle = 245.3494;
position = "{779, 982}";
}
);
layerId = "E5CD5F72-3A37-42B4-BCE0-4FBC458784EC";
name = "Dec 2 20, 11:24";
paths = (
{
closed = 1;
nodes = (
"235 -436 OFFCURVE",
"335 -279 OFFCURVE",
"468 5 CURVE SMOOTH",
"922 972 LINE",
"919 978 LINE",
"901 984 OFFCURVE",
"873 988 OFFCURVE",
"838 988 CURVE SMOOTH",
"821 988 OFFCURVE",
"803 987 OFFCURVE",
"779 982 CURVE",
"377 106 LINE",
"369 106 OFFCURVE",
"361 106 OFFCURVE",
"360 125 CURVE SMOOTH",
"358 155 OFFCURVE",
"349 291 OFFCURVE",
"336 420 CURVE SMOOTH",
"284 930 LINE SMOOTH",
"280 972 OFFCURVE",
"257 994 OFFCURVE",
"219 994 CURVE SMOOTH",
"198 994 OFFCURVE",
"167 987 OFFCURVE",
"140 977 CURVE",
"233 89 LINE SMOOTH",
"238 37 OFFCURVE",
"248 2 OFFCURVE",
"324 -8 CURVE",
"311 -37 LINE SMOOTH",
"234 -209 OFFCURVE",
"156 -320 OFFCURVE",
"3 -320 CURVE SMOOTH",
"-32 -320 OFFCURVE",
"-70 -315 OFFCURVE",
"-117 -300 CURVE",
"-138 -320 OFFCURVE",
"-158 -367 OFFCURVE",
"-159 -406 CURVE",
"-116 -425 OFFCURVE",
"-52 -436 OFFCURVE",
"8 -436 CURVE SMOOTH"
);
}
);
width = 876;
}
);
leftKerningGroup = y;
rightKerningGroup = y;
unicode = 0079;
},
{
color = 5;
glyphname = z;
lastChange = "2021-07-09 03:44:36 +0000";
layers = (
{
anchors = (
{
name = bottom;
position = "{341, 0}";
},
{
name = top;
position = "{551, 1084}";
}
);
guideLines = (
{
angle = 47.7049;
position = "{70, 310}";
},
{
angle = 227.7578;
position = "{791, 692}";
}
);
layerId = "861B5D7F-E490-44BC-908E-F1CBF79092B0";
paths = (
{
closed = 1;
nodes = (
"577 0 LINE SMOOTH",
"691 0 OFFCURVE",
"762 47 OFFCURVE",
"762 186 CURVE SMOOTH",
"762 225 OFFCURVE",
"758 256 OFFCURVE",
"752 278 CURVE",
"703 256 OFFCURVE",
"633 244 OFFCURVE",
"561 244 CURVE SMOOTH",
"533 244 LINE SMOOTH",
"469 244 OFFCURVE",
"416 239 OFFCURVE",
"363 232 CURVE",
"360 242 LINE",
"439 310 OFFCURVE",
"491 363 OFFCURVE",
"543 418 CURVE SMOOTH",
"798 685 LINE SMOOTH",
"855 744 OFFCURVE",
"874 791 OFFCURVE",
"874 848 CURVE SMOOTH",
"874 890 OFFCURVE",
"864 937 OFFCURVE",
"849 1000 CURVE",
"183 1000 LINE",
"153 940 OFFCURVE",
"134 862 OFFCURVE",
"134 794 CURVE SMOOTH",
"134 779 OFFCURVE",
"135 765 OFFCURVE",
"136 758 CURVE",
"260 758 LINE SMOOTH",
"338 758 OFFCURVE",
"432 765 OFFCURVE",
"508 774 CURVE",
"513 764 LINE",
"435 705 OFFCURVE",
"379 644 OFFCURVE",
"316 578 CURVE SMOOTH",
"65 315 LINE SMOOTH",
"11 258 OFFCURVE",
"-11 213 OFFCURVE",
"-11 153 CURVE SMOOTH",
"-11 111 OFFCURVE",
"-1 64 OFFCURVE",
"14 0 CURVE"
);
}
);
width = 875;
},
{
anchors = (
{
name = bottom;
position = "{321, 0}";
},
{
name = top;
position = "{531, 1084}";
}
);
guideLines = (
{
angle = 90;
position = "{376, 1081}";
}
);
layerId = "1023D002-3304-4399-867A-B886C920D2C0";
paths = (
{
closed = 1;
nodes = (
"583 0 LINE SMOOTH",
"647 0 OFFCURVE",
"685 20 OFFCURVE",
"685 84 CURVE SMOOTH",
"685 101 OFFCURVE",
"683 125 OFFCURVE",
"679 141 CURVE",
"639 126 OFFCURVE",
"555 116 OFFCURVE",
"464 116 CURVE SMOOTH",
"353 116 LINE SMOOTH",
"311 116 OFFCURVE",
"233 114 OFFCURVE",
"170 110 CURVE",
"165 116 LINE",
"223 176 OFFCURVE",
"291 247 OFFCURVE",
"355 320 CURVE SMOOTH",
"806 834 LINE SMOOTH",
"833 865 OFFCURVE",
"844 881 OFFCURVE",
"844 910 CURVE SMOOTH",
"844 931 OFFCURVE",
"838 956 OFFCURVE",
"831 980 CURVE",
"204 980 LINE",
"194 957 OFFCURVE",
"187 918 OFFCURVE",
"187 893 CURVE SMOOTH",
"187 883 OFFCURVE",
"188 874 OFFCURVE",
"189 866 CURVE",
"423 866 LINE SMOOTH",
"499 866 OFFCURVE",
"631 870 OFFCURVE",
"673 876 CURVE",
"678 870 LINE",
"614 804 OFFCURVE",
"557 746 OFFCURVE",
"494 674 CURVE SMOOTH",
"33 148 LINE SMOOTH",
"14 126 OFFCURVE",
"-4 102 OFFCURVE",
"-4 66 CURVE SMOOTH",
"-4 49 OFFCURVE",
"0 30 OFFCURVE",
"7 0 CURVE"
);
}
);
width = 848;
}
);
leftKerningGroup = z;
rightKerningGroup = z;
unicode = 007A;
},
{
color = 3;
glyphname = quotesingle;
lastChange = "2021-07-09 03:44:36 +0000";
layers = (
{
layerId = "861B5D7F-E490-44BC-908E-F1CBF79092B0";
paths = (
{
closed = 1;
nodes = (
"350 965 OFFCURVE",
"384 969 OFFCURVE",
"402 976 CURVE",
"493 1225 OFFCURVE",
"556 1386 OFFCURVE",
"568 1446 CURVE SMOOTH",
"576 1485 OFFCURVE",
"579 1528 OFFCURVE",
"577 1567 CURVE",
"546 1585 OFFCURVE",
"495 1598 OFFCURVE",
"447 1598 CURVE SMOOTH",
"397 1598 OFFCURVE",
"346 1587 OFFCURVE",
"305 1567 CURVE",
"288 1530 OFFCURVE",
"270 1476 OFFCURVE",
"264 1429 CURVE SMOOTH",
"258 1380 OFFCURVE",
"253 1225 OFFCURVE",
"240 976 CURVE",
"256 969 OFFCURVE",
"288 965 OFFCURVE",
"317 965 CURVE SMOOTH"
);
}
);
width = 467;
},
{
layerId = "1023D002-3304-4399-867A-B886C920D2C0";
paths = (
{
closed = 1;
nodes = (
"304 980 OFFCURVE",
"321 982 OFFCURVE",
"331 986 CURVE",
"406 1221 OFFCURVE",
"449 1339 OFFCURVE",
"458 1389 CURVE SMOOTH",
"462 1412 OFFCURVE",
"464 1444 OFFCURVE",
"463 1472 CURVE",
"448 1481 OFFCURVE",
"419 1488 OFFCURVE",
"389 1488 CURVE SMOOTH",
"356 1488 OFFCURVE",
"328 1481 OFFCURVE",
"305 1472 CURVE",
"294 1447 OFFCURVE",
"283 1414 OFFCURVE",
"279 1385 CURVE SMOOTH",
"273 1339 OFFCURVE",
"269 1221 OFFCURVE",
"252 986 CURVE",
"262 982 OFFCURVE",
"277 980 OFFCURVE",
"292 980 CURVE SMOOTH"
);
}
);
width = 388;
}
);
leftKerningGroup = quotesingle;
rightKerningGroup = quotesingle;
rightMetricsKey = "=|";
unicode = 0027;
},
{
glyphname = numbersign;
lastChange = "2021-07-09 03:44:36 +0000";
layers = (
{
layerId = "861B5D7F-E490-44BC-908E-F1CBF79092B0";
paths = (
{
closed = 1;
nodes = (
"777 -17 OFFCURVE",
"833 -12 OFFCURVE",
"870 0 CURVE",
"1356 1261 LINE",
"1324 1272 OFFCURVE",
"1272 1278 OFFCURVE",
"1224 1278 CURVE SMOOTH",
"1171 1278 OFFCURVE",
"1115 1273 OFFCURVE",
"1078 1261 CURVE",
"592 0 LINE",
"624 -11 OFFCURVE",
"676 -17 OFFCURVE",
"724 -17 CURVE SMOOTH"
);
},
{
closed = 1;
nodes = (
"1220 235 LINE",
"1253 301 OFFCURVE",
"1274 415 OFFCURVE",
"1268 490 CURVE",
"43 490 LINE",
"10 424 OFFCURVE",
"-11 310 OFFCURVE",
"-5 235 CURVE"
);
},
{
closed = 1;
nodes = (
"282 -17 OFFCURVE",
"338 -12 OFFCURVE",
"375 0 CURVE",
"861 1261 LINE",
"829 1272 OFFCURVE",
"777 1278 OFFCURVE",
"729 1278 CURVE SMOOTH",
"676 1278 OFFCURVE",
"620 1273 OFFCURVE",
"583 1261 CURVE",
"97 0 LINE",
"129 -11 OFFCURVE",
"181 -17 OFFCURVE",
"229 -17 CURVE SMOOTH"
);
},
{
closed = 1;
nodes = (
"1409 771 LINE",
"1442 837 OFFCURVE",
"1463 951 OFFCURVE",
"1457 1026 CURVE",
"232 1026 LINE",
"199 960 OFFCURVE",
"178 846 OFFCURVE",
"184 771 CURVE"
);
}
);
width = 1401;
},
{
layerId = "1023D002-3304-4399-867A-B886C920D2C0";
paths = (
{
closed = 1;
nodes = (
"607 -8 OFFCURVE",
"631 -5 OFFCURVE",
"647 0 CURVE",
"1133 1264 LINE",
"1119 1269 OFFCURVE",
"1094 1272 OFFCURVE",
"1071 1272 CURVE SMOOTH",
"1043 1272 OFFCURVE",
"1019 1269 OFFCURVE",
"1003 1264 CURVE",
"517 0 LINE",
"531 -5 OFFCURVE",
"556 -8 OFFCURVE",
"579 -8 CURVE SMOOTH"
);
},
{
closed = 1;
nodes = (
"1020 315 LINE",
"1036 354 OFFCURVE",
"1045 393 OFFCURVE",
"1043 439 CURVE",
"42 439 LINE",
"26 400 OFFCURVE",
"17 361 OFFCURVE",
"19 315 CURVE"
);
},
{
closed = 1;
nodes = (
"200 -8 OFFCURVE",
"224 -5 OFFCURVE",
"240 0 CURVE",
"726 1264 LINE",
"712 1269 OFFCURVE",
"687 1272 OFFCURVE",
"664 1272 CURVE SMOOTH",
"636 1272 OFFCURVE",
"612 1269 OFFCURVE",
"596 1264 CURVE",
"110 0 LINE",
"124 -5 OFFCURVE",
"149 -8 OFFCURVE",
"172 -8 CURVE SMOOTH"
);
},
{
closed = 1;
nodes = (
"1201 825 LINE",
"1217 864 OFFCURVE",
"1226 903 OFFCURVE",
"1224 949 CURVE",
"223 949 LINE",
"207 910 OFFCURVE",
"198 871 OFFCURVE",
"200 825 CURVE"
);
}
);
width = 1188;
}
);
rightMetricsKey = "=|";
unicode = 0023;
},
{
color = 3;
glyphname = ampersand;
lastChange = "2021-07-09 03:44:36 +0000";
layers = (
{
layerId = "861B5D7F-E490-44BC-908E-F1CBF79092B0";
paths = (
{
closed = 1;
nodes = (
"716 854 LINE SMOOTH",
"654 854 OFFCURVE",
"562 864 OFFCURVE",
"562 969 CURVE SMOOTH",
"562 1068 OFFCURVE",
"629 1138 OFFCURVE",
"761 1138 CURVE SMOOTH",
"838 1138 OFFCURVE",
"933 1115 OFFCURVE",
"1018 1079 CURVE",
"1090 1144 OFFCURVE",
"1119 1233 OFFCURVE",
"1122 1318 CURVE",
"1025 1360 OFFCURVE",
"882 1396 OFFCURVE",
"737 1396 CURVE SMOOTH",
"420 1396 OFFCURVE",
"229 1226 OFFCURVE",
"229 996 CURVE SMOOTH",
"229 815 OFFCURVE",
"348 727 OFFCURVE",
"478 727 CURVE",
"484 759 LINE",
"202 759 OFFCURVE",
"37 534 OFFCURVE",
"37 302 CURVE SMOOTH",
"37 100 OFFCURVE",
"161 -30 OFFCURVE",
"367 -30 CURVE SMOOTH",
"496 -30 OFFCURVE",
"606 21 OFFCURVE",
"675 90 CURVE",
"678 -4 LINE",
"716 -14 OFFCURVE",
"771 -20 OFFCURVE",
"829 -20 CURVE SMOOTH",
"886 -20 OFFCURVE",
"941 -14 OFFCURVE",
"980 0 CURVE",
"979 111 OFFCURVE",
"993 248 OFFCURVE",
"1017 370 CURVE SMOOTH",
"1084 719 LINE",
"780 719 LINE",
"757 663 OFFCURVE",
"728 529 OFFCURVE",
"714 456 CURVE SMOOTH",
"685 306 LINE",
"641 257 OFFCURVE",
"567 220 OFFCURVE",
"496 220 CURVE SMOOTH",
"423 220 OFFCURVE",
"373 257 OFFCURVE",
"373 350 CURVE SMOOTH",
"373 475 OFFCURVE",
"457 578 OFFCURVE",
"610 578 CURVE SMOOTH",
"1096 578 LINE SMOOTH",
"1232 578 OFFCURVE",
"1294 645 OFFCURVE",
"1294 773 CURVE SMOOTH",
"1294 815 OFFCURVE",
"1287 855 OFFCURVE",
"1275 884 CURVE",
"1231 863 OFFCURVE",
"1157 854 OFFCURVE",
"1065 854 CURVE SMOOTH"
);
}
);
width = 1245;
},
{
layerId = "1023D002-3304-4399-867A-B886C920D2C0";
paths = (
{
closed = 1;
nodes = (
"632 790 LINE SMOOTH",
"499 790 OFFCURVE",
"410 861 OFFCURVE",
"410 993 CURVE SMOOTH",
"410 1141 OFFCURVE",
"523 1268 OFFCURVE",
"714 1268 CURVE SMOOTH",
"803 1268 OFFCURVE",
"903 1241 OFFCURVE",
"981 1201 CURVE",
"1014 1233 OFFCURVE",
"1034 1278 OFFCURVE",
"1041 1316 CURVE",
"951 1361 OFFCURVE",
"832 1390 OFFCURVE",
"721 1390 CURVE SMOOTH",
"426 1390 OFFCURVE",
"262 1184 OFFCURVE",
"262 994 CURVE SMOOTH",
"262 836 OFFCURVE",
"375 729 OFFCURVE",
"484 725 CURVE",
"484 750 LINE",
"228 724 OFFCURVE",
"72 516 OFFCURVE",
"72 302 CURVE SMOOTH",
"72 102 OFFCURVE",
"209 -24 OFFCURVE",
"409 -24 CURVE SMOOTH",
"514 -24 OFFCURVE",
"621 11 OFFCURVE",
"708 81 CURVE",
"705 0 LINE",
"722 -4 OFFCURVE",
"744 -6 OFFCURVE",
"772 -6 CURVE SMOOTH",
"800 -6 OFFCURVE",
"821 -4 OFFCURVE",
"840 0 CURVE",
"849 87 OFFCURVE",
"865 197 OFFCURVE",
"883 292 CURVE",
"968 728 LINE",
"836 728 LINE",
"823 686 OFFCURVE",
"808 618 OFFCURVE",
"792 538 CURVE SMOOTH",
"729 215 LINE",
"653 146 OFFCURVE",
"541 97 OFFCURVE",
"436 97 CURVE SMOOTH",
"313 97 OFFCURVE",
"222 165 OFFCURVE",
"222 315 CURVE SMOOTH",
"222 496 OFFCURVE",
"355 666 OFFCURVE",
"615 666 CURVE SMOOTH",
"1029 666 LINE SMOOTH",
"1065 666 OFFCURVE",
"1153 666 OFFCURVE",
"1153 757 CURVE SMOOTH",
"1153 783 OFFCURVE",
"1146 805 OFFCURVE",
"1140 816 CURVE",
"1103 798 OFFCURVE",
"1043 790 OFFCURVE",
"983 790 CURVE SMOOTH"
);
}
);
width = 1143;
}
);
unicode = 0026;
},
{
color = 3;
glyphname = asterisk;
lastChange = "2021-07-09 03:44:36 +0000";
layers = (
{
layerId = "861B5D7F-E490-44BC-908E-F1CBF79092B0";
paths = (
{
closed = 1;
nodes = (
"554 1328 LINE SMOOTH",
"542 1238 OFFCURVE",
"567 1140 OFFCURVE",
"577 1048 CURVE",
"586 1034 OFFCURVE",
"603 1026 OFFCURVE",
"621 1026 CURVE SMOOTH",
"639 1026 OFFCURVE",
"658 1034 OFFCURVE",
"673 1048 CURVE",
"719 1140 OFFCURVE",
"778 1230 OFFCURVE",
"800 1320 CURVE SMOOTH",
"832 1453 LINE",
"775 1476 OFFCURVE",
"664 1484 OFFCURVE",
"572 1460 CURVE"
);
},
{
closed = 1;
nodes = (
"297 1010 LINE SMOOTH",
"379 988 OFFCURVE",
"481 988 OFFCURVE",
"577 988 CURVE",
"596 994 OFFCURVE",
"611 1008 OFFCURVE",
"621 1026 CURVE SMOOTH",
"630 1044 OFFCURVE",
"632 1062 OFFCURVE",
"625 1078 CURVE",
"558 1134 OFFCURVE",
"477 1200 OFFCURVE",
"400 1233 CURVE SMOOTH",
"288 1281 LINE",
"234 1225 OFFCURVE",
"188 1128 OFFCURVE",
"176 1042 CURVE"
);
},
{
closed = 1;
nodes = (
"487 709 LINE SMOOTH",
"549 785 OFFCURVE",
"590 883 OFFCURVE",
"638 975 CURVE",
"639 993 OFFCURVE",
"634 1014 OFFCURVE",
"621 1026 CURVE SMOOTH",
"607 1038 OFFCURVE",
"583 1040 OFFCURVE",
"565 1036 CURVE",
"478 980 OFFCURVE",
"378 929 OFFCURVE",
"307 860 CURVE SMOOTH",
"210 766 LINE",
"241 699 OFFCURVE",
"320 627 OFFCURVE",
"402 605 CURVE"
);
},
{
closed = 1;
nodes = (
"862 837 LINE SMOOTH",
"817 907 OFFCURVE",
"743 977 OFFCURVE",
"676 1033 CURVE",
"658 1037 OFFCURVE",
"639 1038 OFFCURVE",
"621 1026 CURVE SMOOTH",
"602 1014 OFFCURVE",
"594 998 OFFCURVE",
"589 980 CURVE",
"601 890 OFFCURVE",
"611 789 OFFCURVE",
"645 713 CURVE SMOOTH",
"695 601 LINE",
"777 618 OFFCURVE",
"875 676 OFFCURVE",
"926 737 CURVE"
);
},
{
closed = 1;
nodes = (
"911 1231 LINE SMOOTH",
"820 1202 OFFCURVE",
"728 1136 OFFCURVE",
"639 1078 CURVE",
"628 1062 OFFCURVE",
"618 1044 OFFCURVE",
"621 1026 CURVE SMOOTH",
"623 1008 OFFCURVE",
"634 988 OFFCURVE",
"649 982 CURVE",
"743 982 OFFCURVE",
"854 978 OFFCURVE",
"944 998 CURVE SMOOTH",
"1073 1027 LINE",
"1089 1115 OFFCURVE",
"1074 1214 OFFCURVE",
"1043 1273 CURVE"
);
}
);
width = 1041;
},
{
layerId = "1023D002-3304-4399-867A-B886C920D2C0";
paths = (
{
closed = 1;
nodes = (
"576 1362 LINE SMOOTH",
"555 1270 OFFCURVE",
"559 1168 OFFCURVE",
"561 1092 CURVE",
"570 1076 OFFCURVE",
"580 1070 OFFCURVE",
"590 1070 CURVE SMOOTH",
"600 1070 OFFCURVE",
"614 1078 OFFCURVE",
"629 1092 CURVE",
"657 1168 OFFCURVE",
"702 1267 OFFCURVE",
"718 1359 CURVE SMOOTH",
"735 1459 LINE",
"704 1475 OFFCURVE",
"639 1477 OFFCURVE",
"599 1462 CURVE"
);
},
{
closed = 1;
nodes = (
"302 1097 LINE SMOOTH",
"382 1064 OFFCURVE",
"481 1056 OFFCURVE",
"554 1046 CURVE",
"574 1050 OFFCURVE",
"584 1060 OFFCURVE",
"590 1070 CURVE SMOOTH",
"596 1080 OFFCURVE",
"595 1094 OFFCURVE",
"588 1110 CURVE",
"523 1147 OFFCURVE",
"446 1204 OFFCURVE",
"362 1232 CURVE SMOOTH",
"270 1263 LINE",
"242 1235 OFFCURVE",
"215 1178 OFFCURVE",
"211 1135 CURVE"
);
},
{
closed = 1;
nodes = (
"425 790 LINE SMOOTH",
"495 865 OFFCURVE",
"552 962 OFFCURVE",
"597 1034 CURVE",
"603 1052 OFFCURVE",
"597 1064 OFFCURVE",
"590 1070 CURVE SMOOTH",
"584 1076 OFFCURVE",
"570 1078 OFFCURVE",
"549 1072 CURVE",
"475 1014 OFFCURVE",
"388 954 OFFCURVE",
"322 878 CURVE SMOOTH",
"256 802 LINE",
"272 766 OFFCURVE",
"321 726 OFFCURVE",
"357 717 CURVE"
);
},
{
closed = 1;
nodes = (
"781 871 LINE SMOOTH",
"741 949 OFFCURVE",
"682 1011 OFFCURVE",
"628 1072 CURVE",
"611 1080 OFFCURVE",
"600 1076 OFFCURVE",
"590 1070 CURVE SMOOTH",
"581 1064 OFFCURVE",
"574 1055 OFFCURVE",
"570 1035 CURVE",
"592 963 OFFCURVE",
"614 869 OFFCURVE",
"657 794 CURVE SMOOTH",
"704 712 LINE",
"748 720 OFFCURVE",
"803 753 OFFCURVE",
"826 783 CURVE"
);
},
{
closed = 1;
nodes = (
"876 1229 LINE SMOOTH",
"782 1206 OFFCURVE",
"684 1150 OFFCURVE",
"609 1110 CURVE",
"594 1096 OFFCURVE",
"588 1080 OFFCURVE",
"590 1070 CURVE SMOOTH",
"592 1060 OFFCURVE",
"600 1050 OFFCURVE",
"621 1044 CURVE",
"697 1054 OFFCURVE",
"801 1063 OFFCURVE",
"895 1091 CURVE SMOOTH",
"996 1121 LINE",
"1007 1163 OFFCURVE",
"995 1230 OFFCURVE",
"978 1254 CURVE"
);
}
);
width = 959;
}
);
rightMetricsKey = "=|";
unicode = 002A;
},
{
color = 3;
glyphname = comma;
lastChange = "2021-07-09 03:44:36 +0000";
layers = (
{
layerId = "861B5D7F-E490-44BC-908E-F1CBF79092B0";
paths = (
{
closed = 1;
nodes = (
"259 -267 OFFCURVE",
"417 -62 OFFCURVE",
"417 190 CURVE SMOOTH",
"417 235 OFFCURVE",
"412 261 OFFCURVE",
"410 265 CURVE",
"370 289 OFFCURVE",
"309 302 OFFCURVE",
"253 302 CURVE SMOOTH",
"194 302 OFFCURVE",
"129 289 OFFCURVE",
"88 266 CURVE",
"56 216 OFFCURVE",
"35 136 OFFCURVE",
"35 68 CURVE SMOOTH",
"35 47 OFFCURVE",
"37 28 OFFCURVE",
"41 15 CURVE",
"63 0 OFFCURVE",
"99 -12 OFFCURVE",
"132 -19 CURVE",
"106 -102 OFFCURVE",
"26 -173 OFFCURVE",
"-90 -219 CURVE",
"-94 -275 OFFCURVE",
"-67 -339 OFFCURVE",
"-15 -367 CURVE"
);
}
);
width = 597;
},
{
layerId = "1023D002-3304-4399-867A-B886C920D2C0";
paths = (
{
closed = 1;
nodes = (
"175 -217 OFFCURVE",
"290 -56 OFFCURVE",
"290 120 CURVE SMOOTH",
"290 137 OFFCURVE",
"288 160 OFFCURVE",
"285 175 CURVE",
"260 190 OFFCURVE",
"225 198 OFFCURVE",
"185 198 CURVE SMOOTH",
"146 198 OFFCURVE",
"104 190 OFFCURVE",
"82 177 CURVE",
"61 146 OFFCURVE",
"47 97 OFFCURVE",
"47 49 CURVE SMOOTH",
"47 30 OFFCURVE",
"49 16 OFFCURVE",
"52 8 CURVE",
"69 -3 OFFCURVE",
"98 -11 OFFCURVE",
"125 -17 CURVE",
"106 -100 OFFCURVE",
"34 -171 OFFCURVE",
"-50 -217 CURVE",
"-51 -247 OFFCURVE",
"-33 -280 OFFCURVE",
"-6 -294 CURVE"
);
}
);
width = 493;
}
);
leftKerningGroup = comma;
rightKerningGroup = comma;
unicode = 002C;
},
{
color = 3;
glyphname = period;
lastChange = "2021-07-09 03:44:36 +0000";
layers = (
{
layerId = "861B5D7F-E490-44BC-908E-F1CBF79092B0";
paths = (
{
closed = 1;
nodes = (
"130 290 OFFCURVE",
"198 302 OFFCURVE",
"254 302 CURVE SMOOTH",
"309 302 OFFCURVE",
"370 289 OFFCURVE",
"405 265 CURVE",
"410 249 OFFCURVE",
"411 226 OFFCURVE",
"411 212 CURVE SMOOTH",
"411 147 OFFCURVE",
"391 66 OFFCURVE",
"358 14 CURVE",
"316 -10 OFFCURVE",
"248 -22 OFFCURVE",
"192 -22 CURVE SMOOTH",
"137 -22 OFFCURVE",
"76 -9 OFFCURVE",
"41 15 CURVE",
"36 31 OFFCURVE",
"35 54 OFFCURVE",
"35 68 CURVE SMOOTH",
"35 133 OFFCURVE",
"55 214 OFFCURVE",
"88 266 CURVE"
);
}
);
width = 580;
},
{
layerId = "1023D002-3304-4399-867A-B886C920D2C0";
paths = (
{
closed = 1;
nodes = (
"108 190 OFFCURVE",
"150 198 OFFCURVE",
"189 198 CURVE SMOOTH",
"230 198 OFFCURVE",
"267 189 OFFCURVE",
"284 176 CURVE",
"287 168 OFFCURVE",
"289 152 OFFCURVE",
"289 135 CURVE SMOOTH",
"289 89 OFFCURVE",
"276 40 OFFCURVE",
"254 7 CURVE",
"232 -6 OFFCURVE",
"190 -14 OFFCURVE",
"151 -14 CURVE SMOOTH",
"110 -14 OFFCURVE",
"73 -5 OFFCURVE",
"56 8 CURVE",
"53 16 OFFCURVE",
"51 32 OFFCURVE",
"51 49 CURVE SMOOTH",
"51 95 OFFCURVE",
"64 144 OFFCURVE",
"86 177 CURVE"
);
}
);
width = 495;
}
);
leftKerningGroup = comma;
rightKerningGroup = comma;
unicode = 002E;
},
{
color = 3;
glyphname = question;
lastChange = "2021-07-09 03:44:36 +0000";
layers = (
{
layerId = "861B5D7F-E490-44BC-908E-F1CBF79092B0";
paths = (
{
closed = 1;
nodes = (
"384 408 OFFCURVE",
"427 412 OFFCURVE",
"467 424 CURVE",
"517 569 LINE",
"608 609 LINE SMOOTH",
"804 695 OFFCURVE",
"952 837 OFFCURVE",
"952 1046 CURVE SMOOTH",
"952 1284 OFFCURVE",
"759 1398 OFFCURVE",
"542 1398 CURVE SMOOTH",
"401 1398 OFFCURVE",
"263 1350 OFFCURVE",
"180 1290 CURVE",
"176 1209 OFFCURVE",
"212 1104 OFFCURVE",
"269 1049 CURVE",
"323 1091 OFFCURVE",
"403 1121 OFFCURVE",
"474 1121 CURVE SMOOTH",
"556 1121 OFFCURVE",
"608 1080 OFFCURVE",
"608 1004 CURVE SMOOTH",
"608 890 OFFCURVE",
"489 838 OFFCURVE",
"425 811 CURVE SMOOTH",
"293 755 LINE",
"262 723 LINE",
"224 424 LINE",
"255 414 OFFCURVE",
"298 408 OFFCURVE",
"345 408 CURVE SMOOTH"
);
},
{
closed = 1;
nodes = (
"451 53 OFFCURVE",
"470 133 OFFCURVE",
"470 193 CURVE SMOOTH",
"470 207 OFFCURVE",
"469 230 OFFCURVE",
"464 246 CURVE",
"431 268 OFFCURVE",
"372 280 OFFCURVE",
"320 280 CURVE SMOOTH",
"266 280 OFFCURVE",
"199 269 OFFCURVE",
"159 247 CURVE",
"128 197 OFFCURVE",
"109 117 OFFCURVE",
"109 57 CURVE SMOOTH",
"109 43 OFFCURVE",
"110 20 OFFCURVE",
"115 4 CURVE",
"148 -18 OFFCURVE",
"207 -30 OFFCURVE",
"259 -30 CURVE SMOOTH",
"313 -30 OFFCURVE",
"380 -19 OFFCURVE",
"420 3 CURVE"
);
}
);
width = 889;
},
{
layerId = "1023D002-3304-4399-867A-B886C920D2C0";
paths = (
{
closed = 1;
nodes = (
"299 362 OFFCURVE",
"318 364 OFFCURVE",
"336 370 CURVE",
"395 602 LINE",
"472 640 LINE SMOOTH",
"612 709 OFFCURVE",
"825 846 OFFCURVE",
"825 1087 CURVE SMOOTH",
"825 1281 OFFCURVE",
"679 1386 OFFCURVE",
"490 1388 CURVE SMOOTH",
"380 1389 OFFCURVE",
"264 1355 OFFCURVE",
"188 1305 CURVE",
"192 1261 OFFCURVE",
"210 1220 OFFCURVE",
"241 1196 CURVE",
"307 1234 OFFCURVE",
"393 1261 OFFCURVE",
"467 1261 CURVE SMOOTH",
"592 1261 OFFCURVE",
"675 1187 OFFCURVE",
"675 1071 CURVE SMOOTH",
"675 875 OFFCURVE",
"444 762 OFFCURVE",
"349 717 CURVE SMOOTH",
"284 686 LINE",
"269 668 LINE",
"224 370 LINE",
"239 364 OFFCURVE",
"260 362 OFFCURVE",
"280 362 CURVE SMOOTH"
);
},
{
closed = 1;
nodes = (
"324 37 OFFCURVE",
"336 83 OFFCURVE",
"336 124 CURVE SMOOTH",
"336 140 OFFCURVE",
"334 156 OFFCURVE",
"331 163 CURVE",
"313 175 OFFCURVE",
"282 183 OFFCURVE",
"244 183 CURVE SMOOTH",
"209 183 OFFCURVE",
"171 176 OFFCURVE",
"151 164 CURVE",
"131 132 OFFCURVE",
"119 86 OFFCURVE",
"119 45 CURVE SMOOTH",
"119 29 OFFCURVE",
"121 13 OFFCURVE",
"124 6 CURVE",
"142 -6 OFFCURVE",
"173 -14 OFFCURVE",
"211 -14 CURVE SMOOTH",
"246 -14 OFFCURVE",
"284 -7 OFFCURVE",
"304 5 CURVE"
);
}
);
width = 770;
}
);
unicode = 003F;
},
{
color = 3;
glyphname = exclam;
lastChange = "2021-07-09 03:44:36 +0000";
layers = (
{
layerId = "861B5D7F-E490-44BC-908E-F1CBF79092B0";
paths = (
{
closed = 1;
nodes = (
"431 59 OFFCURVE",
"450 139 OFFCURVE",
"450 199 CURVE SMOOTH",
"450 213 OFFCURVE",
"449 236 OFFCURVE",
"444 252 CURVE",
"411 274 OFFCURVE",
"352 286 OFFCURVE",
"300 286 CURVE SMOOTH",
"246 286 OFFCURVE",
"179 275 OFFCURVE",
"139 253 CURVE",
"108 203 OFFCURVE",
"89 123 OFFCURVE",
"89 63 CURVE SMOOTH",
"89 49 OFFCURVE",
"90 26 OFFCURVE",
"95 10 CURVE",
"128 -12 OFFCURVE",
"187 -24 OFFCURVE",
"239 -24 CURVE SMOOTH",
"293 -24 OFFCURVE",
"360 -13 OFFCURVE",
"400 9 CURVE"
);
},
{
closed = 1;
nodes = (
"356 408 OFFCURVE",
"402 410 OFFCURVE",
"449 422 CURVE",
"520 679 OFFCURVE",
"607 932 OFFCURVE",
"656 1188 CURVE SMOOTH",
"690 1366 LINE",
"633 1381 OFFCURVE",
"559 1384 OFFCURVE",
"514 1384 CURVE SMOOTH",
"471 1384 OFFCURVE",
"389 1381 OFFCURVE",
"329 1366 CURVE",
"295 1192 LINE SMOOTH",
"244 933 OFFCURVE",
"228 661 OFFCURVE",
"203 422 CURVE",
"242 410 OFFCURVE",
"297 408 OFFCURVE",
"324 408 CURVE SMOOTH"
);
}
);
width = 682;
},
{
layerId = "1023D002-3304-4399-867A-B886C920D2C0";
paths = (
{
closed = 1;
nodes = (
"318 37 OFFCURVE",
"330 83 OFFCURVE",
"330 124 CURVE SMOOTH",
"330 140 OFFCURVE",
"328 156 OFFCURVE",
"325 163 CURVE",
"307 175 OFFCURVE",
"276 183 OFFCURVE",
"238 183 CURVE SMOOTH",
"203 183 OFFCURVE",
"165 176 OFFCURVE",
"145 164 CURVE",
"125 132 OFFCURVE",
"113 86 OFFCURVE",
"113 45 CURVE SMOOTH",
"113 29 OFFCURVE",
"115 13 OFFCURVE",
"118 6 CURVE",
"136 -6 OFFCURVE",
"167 -14 OFFCURVE",
"205 -14 CURVE SMOOTH",
"240 -14 OFFCURVE",
"278 -7 OFFCURVE",
"298 5 CURVE"
);
},
{
closed = 1;
nodes = (
"300 362 OFFCURVE",
"317 365 OFFCURVE",
"332 370 CURVE",
"397 643 OFFCURVE",
"462 906 OFFCURVE",
"514 1180 CURVE SMOOTH",
"550 1366 LINE",
"528 1371 OFFCURVE",
"499 1373 OFFCURVE",
"471 1373 CURVE SMOOTH",
"441 1373 OFFCURVE",
"412 1371 OFFCURVE",
"390 1366 CURVE",
"354 1180 LINE SMOOTH",
"300 906 OFFCURVE",
"261 643 OFFCURVE",
"220 370 CURVE",
"235 364 OFFCURVE",
"254 362 OFFCURVE",
"274 362 CURVE SMOOTH"
);
}
);
width = 600;
}
);
rightMetricsKey = "=|";
unicode = 0021;
},
{
color = 3;
glyphname = questiondown;
lastChange = "2021-07-09 03:44:36 +0000";
layers = (
{
layerId = "861B5D7F-E490-44BC-908E-F1CBF79092B0";
paths = (
{
closed = 1;
nodes = (
"516 580 OFFCURVE",
"473 576 OFFCURVE",
"433 564 CURVE",
"383 419 LINE",
"292 379 LINE SMOOTH",
"96 293 OFFCURVE",
"-52 151 OFFCURVE",
"-52 -58 CURVE SMOOTH",
"-52 -296 OFFCURVE",
"141 -410 OFFCURVE",
"358 -410 CURVE SMOOTH",
"499 -410 OFFCURVE",
"637 -362 OFFCURVE",
"720 -302 CURVE",
"724 -221 OFFCURVE",
"688 -116 OFFCURVE",
"631 -61 CURVE",
"577 -103 OFFCURVE",
"497 -133 OFFCURVE",
"426 -133 CURVE SMOOTH",
"344 -133 OFFCURVE",
"292 -92 OFFCURVE",
"292 -16 CURVE SMOOTH",
"292 98 OFFCURVE",
"411 150 OFFCURVE",
"475 177 CURVE SMOOTH",
"607 233 LINE",
"638 265 LINE",
"676 564 LINE",
"645 574 OFFCURVE",
"602 580 OFFCURVE",
"555 580 CURVE SMOOTH"
);
},
{
closed = 1;
nodes = (
"449 935 OFFCURVE",
"430 855 OFFCURVE",
"430 795 CURVE SMOOTH",
"430 781 OFFCURVE",
"431 758 OFFCURVE",
"436 742 CURVE",
"469 720 OFFCURVE",
"528 708 OFFCURVE",
"580 708 CURVE SMOOTH",
"634 708 OFFCURVE",
"701 719 OFFCURVE",
"741 741 CURVE",
"772 791 OFFCURVE",
"791 871 OFFCURVE",
"791 931 CURVE SMOOTH",
"791 945 OFFCURVE",
"790 968 OFFCURVE",
"785 984 CURVE",
"752 1006 OFFCURVE",
"693 1018 OFFCURVE",
"641 1018 CURVE SMOOTH",
"587 1018 OFFCURVE",
"520 1007 OFFCURVE",
"480 985 CURVE"
);
}
);
width = 881;
},
{
layerId = "1023D002-3304-4399-867A-B886C920D2C0";
paths = (
{
closed = 1;
nodes = (
"487 622 OFFCURVE",
"468 620 OFFCURVE",
"450 614 CURVE",
"391 382 LINE",
"314 344 LINE SMOOTH",
"174 275 OFFCURVE",
"-39 138 OFFCURVE",
"-39 -103 CURVE SMOOTH",
"-39 -297 OFFCURVE",
"107 -402 OFFCURVE",
"296 -404 CURVE SMOOTH",
"406 -405 OFFCURVE",
"522 -371 OFFCURVE",
"598 -321 CURVE",
"594 -277 OFFCURVE",
"576 -236 OFFCURVE",
"545 -212 CURVE",
"479 -250 OFFCURVE",
"393 -277 OFFCURVE",
"319 -277 CURVE SMOOTH",
"194 -277 OFFCURVE",
"111 -203 OFFCURVE",
"111 -87 CURVE SMOOTH",
"111 109 OFFCURVE",
"342 222 OFFCURVE",
"437 267 CURVE SMOOTH",
"502 298 LINE",
"517 316 LINE",
"562 614 LINE",
"547 620 OFFCURVE",
"526 622 OFFCURVE",
"506 622 CURVE SMOOTH"
);
},
{
closed = 1;
nodes = (
"462 947 OFFCURVE",
"450 901 OFFCURVE",
"450 860 CURVE SMOOTH",
"450 844 OFFCURVE",
"452 828 OFFCURVE",
"455 821 CURVE",
"473 809 OFFCURVE",
"504 801 OFFCURVE",
"542 801 CURVE SMOOTH",
"577 801 OFFCURVE",
"615 808 OFFCURVE",
"635 820 CURVE",
"655 852 OFFCURVE",
"667 898 OFFCURVE",
"667 939 CURVE SMOOTH",
"667 955 OFFCURVE",
"665 971 OFFCURVE",
"662 978 CURVE",
"644 990 OFFCURVE",
"613 998 OFFCURVE",
"575 998 CURVE SMOOTH",
"540 998 OFFCURVE",
"502 991 OFFCURVE",
"482 979 CURVE"
);
}
);
width = 769;
}
);
unicode = 00BF;
},
{
color = 3;
glyphname = at;
lastChange = "2021-07-09 03:44:36 +0000";
layers = (
{
layerId = "861B5D7F-E490-44BC-908E-F1CBF79092B0";
paths = (
{
closed = 1;
nodes = (
"992 -410 OFFCURVE",
"1143 -375 OFFCURVE",
"1254 -323 CURVE",
"1259 -252 OFFCURVE",
"1230 -144 OFFCURVE",
"1186 -96 CURVE",
"1080 -140 OFFCURVE",
"967 -162 OFFCURVE",
"858 -162 CURVE SMOOTH",
"545 -162 OFFCURVE",
"387 19 OFFCURVE",
"387 327 CURVE SMOOTH",
"387 701 OFFCURVE",
"618 1134 OFFCURVE",
"1095 1134 CURVE SMOOTH",
"1366 1134 OFFCURVE",
"1585 995 OFFCURVE",
"1585 673 CURVE SMOOTH",
"1585 489 OFFCURVE",
"1513 234 OFFCURVE",
"1396 234 CURVE SMOOTH",
"1364 234 OFFCURVE",
"1347 254 OFFCURVE",
"1347 291 CURVE SMOOTH",
"1347 320 OFFCURVE",
"1357 364 OFFCURVE",
"1362 390 CURVE SMOOTH",
"1449 837 LINE",
"1373 910 OFFCURVE",
"1238 971 OFFCURVE",
"1086 971 CURVE SMOOTH",
"717 971 OFFCURVE",
"554 605 OFFCURVE",
"554 330 CURVE SMOOTH",
"554 111 OFFCURVE",
"657 -8 OFFCURVE",
"819 -8 CURVE SMOOTH",
"975 -8 OFFCURVE",
"1108 102 OFFCURVE",
"1173 314 CURVE",
"1101 426 LINE",
"1045 301 OFFCURVE",
"978 232 OFFCURVE",
"924 232 CURVE SMOOTH",
"883 232 OFFCURVE",
"864 272 OFFCURVE",
"864 345 CURVE SMOOTH",
"864 489 OFFCURVE",
"937 754 OFFCURVE",
"1069 754 CURVE SMOOTH",
"1087 754 OFFCURVE",
"1112 749 OFFCURVE",
"1128 738 CURVE",
"1037 272 LINE",
"1054 144 OFFCURVE",
"1136 -2 OFFCURVE",
"1360 -2 CURVE SMOOTH",
"1709 -2 OFFCURVE",
"1897 352 OFFCURVE",
"1897 675 CURVE SMOOTH",
"1897 1143 OFFCURVE",
"1501 1374 OFFCURVE",
"1110 1374 CURVE SMOOTH",
"579 1374 OFFCURVE",
"66 948 OFFCURVE",
"66 321 CURVE SMOOTH",
"66 -175 OFFCURVE",
"389 -410 OFFCURVE",
"824 -410 CURVE SMOOTH"
);
}
);
width = 1950;
},
{
layerId = "1023D002-3304-4399-867A-B886C920D2C0";
paths = (
{
closed = 1;
nodes = (
"887 -358 OFFCURVE",
"1007 -337 OFFCURVE",
"1098 -301 CURVE",
"1101 -264 OFFCURVE",
"1086 -215 OFFCURVE",
"1065 -193 CURVE",
"981 -225 OFFCURVE",
"879 -245 OFFCURVE",
"777 -245 CURVE SMOOTH",
"448 -245 OFFCURVE",
"246 -24 OFFCURVE",
"246 345 CURVE SMOOTH",
"246 809 OFFCURVE",
"570 1236 OFFCURVE",
"1038 1236 CURVE SMOOTH",
"1358 1236 OFFCURVE",
"1590 1036 OFFCURVE",
"1590 672 CURVE SMOOTH",
"1590 396 OFFCURVE",
"1456 142 OFFCURVE",
"1296 142 CURVE SMOOTH",
"1241 142 OFFCURVE",
"1213 175 OFFCURVE",
"1213 241 CURVE SMOOTH",
"1213 278 OFFCURVE",
"1222 337 OFFCURVE",
"1231 383 CURVE SMOOTH",
"1320 839 LINE",
"1244 910 OFFCURVE",
"1139 959 OFFCURVE",
"1027 961 CURVE SMOOTH",
"734 967 OFFCURVE",
"537 650 OFFCURVE",
"537 351 CURVE SMOOTH",
"537 129 OFFCURVE",
"645 20 OFFCURVE",
"786 20 CURVE SMOOTH",
"921 20 OFFCURVE",
"1078 123 OFFCURVE",
"1148 328 CURVE",
"1119 398 LINE",
"1026 219 OFFCURVE",
"900 141 OFFCURVE",
"813 141 CURVE SMOOTH",
"725 141 OFFCURVE",
"675 219 OFFCURVE",
"675 366 CURVE SMOOTH",
"675 602 OFFCURVE",
"808 851 OFFCURVE",
"1008 851 CURVE SMOOTH",
"1071 851 OFFCURVE",
"1136 827 OFFCURVE",
"1173 788 CURVE",
"1074 281 LINE",
"1062 148 OFFCURVE",
"1115 28 OFFCURVE",
"1281 28 CURVE SMOOTH",
"1532 28 OFFCURVE",
"1729 333 OFFCURVE",
"1729 676 CURVE SMOOTH",
"1729 1127 OFFCURVE",
"1393 1344 OFFCURVE",
"1038 1344 CURVE SMOOTH",
"529 1344 OFFCURVE",
"107 899 OFFCURVE",
"107 335 CURVE SMOOTH",
"107 -115 OFFCURVE",
"376 -358 OFFCURVE",
"762 -358 CURVE SMOOTH"
);
}
);
width = 1812;
}
);
unicode = 0040;
},
{
color = 4;
glyphname = parenleft;
lastChange = "2021-07-09 03:44:36 +0000";
layers = (
{
guideLines = (
{
angle = 31.9335;
position = "{335, -502}";
showMeasurement = 1;
},
{
angle = -48.5763;
position = "{741, 1590}";
showMeasurement = 1;
}
);
layerId = "861B5D7F-E490-44BC-908E-F1CBF79092B0";
paths = (
{
closed = 1;
nodes = (
"426 -491 OFFCURVE",
"514 -435 OFFCURVE",
"550 -368 CURVE",
"463 -192 OFFCURVE",
"422 38 OFFCURVE",
"422 264 CURVE SMOOTH",
"422 743 OFFCURVE",
"631 1138 OFFCURVE",
"907 1403 CURVE",
"880 1494 OFFCURVE",
"809 1566 OFFCURVE",
"746 1590 CURVE",
"310 1267 OFFCURVE",
"89 761 OFFCURVE",
"89 283 CURVE SMOOTH",
"89 -95 OFFCURVE",
"222 -376 OFFCURVE",
"340 -502 CURVE"
);
}
);
width = 751;
},
{
layerId = "1023D002-3304-4399-867A-B886C920D2C0";
paths = (
{
closed = 1;
nodes = (
"338 -432 OFFCURVE",
"379 -408 OFFCURVE",
"397 -374 CURVE",
"303 -210 OFFCURVE",
"248 22 OFFCURVE",
"248 282 CURVE SMOOTH",
"248 748 OFFCURVE",
"442 1165 OFFCURVE",
"746 1454 CURVE",
"732 1498 OFFCURVE",
"702 1529 OFFCURVE",
"666 1540 CURVE",
"287 1215 OFFCURVE",
"98 747 OFFCURVE",
"98 281 CURVE SMOOTH",
"98 -68 OFFCURVE",
"204 -316 OFFCURVE",
"299 -438 CURVE"
);
}
);
width = 573;
}
);
leftKerningGroup = parenleft;
rightKerningGroup = parenleft;
unicode = 0028;
},
{
color = 4;
glyphname = parenright;
lastChange = "2021-07-09 03:44:36 +0000";
layers = (
{
layerId = "861B5D7F-E490-44BC-908E-F1CBF79092B0";
paths = (
{
closed = 1;
nodes = (
"343 1579 OFFCURVE",
"255 1523 OFFCURVE",
"219 1456 CURVE",
"306 1280 OFFCURVE",
"347 1042 OFFCURVE",
"347 819 CURVE SMOOTH",
"347 351 OFFCURVE",
"140 -49 OFFCURVE",
"-138 -315 CURVE",
"-111 -406 OFFCURVE",
"-40 -478 OFFCURVE",
"23 -502 CURVE",
"459 -179 OFFCURVE",
"680 327 OFFCURVE",
"680 808 CURVE SMOOTH",
"680 1182 OFFCURVE",
"547 1464 OFFCURVE",
"429 1590 CURVE"
);
}
);
width = 752;
},
{
layerId = "1023D002-3304-4399-867A-B886C920D2C0";
paths = (
{
closed = 1;
nodes = (
"259 1534 OFFCURVE",
"218 1510 OFFCURVE",
"200 1476 CURVE",
"294 1312 OFFCURVE",
"349 1080 OFFCURVE",
"349 820 CURVE SMOOTH",
"349 354 OFFCURVE",
"155 -63 OFFCURVE",
"-149 -352 CURVE",
"-135 -396 OFFCURVE",
"-105 -427 OFFCURVE",
"-69 -438 CURVE",
"310 -113 OFFCURVE",
"499 355 OFFCURVE",
"499 821 CURVE SMOOTH",
"499 1170 OFFCURVE",
"393 1418 OFFCURVE",
"298 1540 CURVE"
);
}
);
width = 574;
}
);
leftKerningGroup = parenright;
rightKerningGroup = parenright;
unicode = 0029;
},
{
color = 4;
glyphname = bracketleft;
lastChange = "2021-07-09 03:44:36 +0000";
layers = (
{
layerId = "861B5D7F-E490-44BC-908E-F1CBF79092B0";
paths = (
{
closed = 1;
nodes = (
"-7 -416 LINE",
"326 -336 LINE",
"670 1434 LINE",
"373 1544 LINE"
);
},
{
closed = 1;
nodes = (
"546 -359 OFFCURVE",
"566 -251 OFFCURVE",
"563 -192 CURVE",
"65 -178 LINE",
"-7 -416 LINE",
"7 -432 LINE",
"520 -414 LINE"
);
},
{
closed = 1;
nodes = (
"883 1375 OFFCURVE",
"903 1483 OFFCURVE",
"900 1542 CURVE",
"395 1560 LINE",
"373 1544 LINE",
"353 1306 LINE",
"857 1320 LINE"
);
}
);
width = 764;
},
{
layerId = "1023D002-3304-4399-867A-B886C920D2C0";
paths = (
{
closed = 1;
nodes = (
"13 -368 LINE",
"165 -320 LINE",
"509 1450 LINE",
"377 1502 LINE"
);
},
{
closed = 1;
nodes = (
"379 -333 OFFCURVE",
"385 -294 OFFCURVE",
"384 -258 CURVE",
"48 -250 LINE",
"13 -368 LINE",
"23 -380 LINE",
"364 -366 LINE"
);
},
{
closed = 1;
nodes = (
"721 1425 OFFCURVE",
"727 1464 OFFCURVE",
"726 1500 CURVE",
"391 1514 LINE",
"377 1502 LINE",
"366 1384 LINE",
"706 1392 LINE"
);
}
);
width = 586;
}
);
leftKerningGroup = bracketleft;
rightKerningGroup = bracketleft;
unicode = 005B;
},
{
color = 4;
glyphname = bracketright;
lastChange = "2021-07-09 03:44:36 +0000";
layers = (
{
layerId = "861B5D7F-E490-44BC-908E-F1CBF79092B0";
paths = (
{
closed = 1;
nodes = (
"796 1544 LINE",
"463 1464 LINE",
"119 -306 LINE",
"416 -416 LINE"
);
},
{
closed = 1;
nodes = (
"243 1487 OFFCURVE",
"223 1379 OFFCURVE",
"226 1320 CURVE",
"724 1306 LINE",
"796 1544 LINE",
"782 1560 LINE",
"269 1542 LINE"
);
},
{
closed = 1;
nodes = (
"-94 -247 OFFCURVE",
"-114 -355 OFFCURVE",
"-111 -414 CURVE",
"394 -432 LINE",
"416 -416 LINE",
"436 -178 LINE",
"-68 -192 LINE"
);
}
);
width = 764;
},
{
layerId = "1023D002-3304-4399-867A-B886C920D2C0";
paths = (
{
closed = 1;
nodes = (
"603 1502 LINE",
"451 1454 LINE",
"107 -316 LINE",
"239 -368 LINE"
);
},
{
closed = 1;
nodes = (
"237 1467 OFFCURVE",
"231 1428 OFFCURVE",
"232 1392 CURVE",
"568 1384 LINE",
"603 1502 LINE",
"593 1514 LINE",
"252 1500 LINE"
);
},
{
closed = 1;
nodes = (
"-105 -291 OFFCURVE",
"-111 -330 OFFCURVE",
"-110 -366 CURVE",
"225 -380 LINE",
"239 -368 LINE",
"250 -250 LINE",
"-90 -258 LINE"
);
}
);
width = 586;
}
);
leftKerningGroup = bracketright;
rightKerningGroup = bracketright;
unicode = 005D;
},
